# Blender 4.4.3
# www.blender.org
mtllib Camera.mtl
o Camera.001
v -0.058100 0.013440 0.002325
v -0.057992 0.042257 -0.002488
v -0.050093 0.041185 0.000587
v -0.058223 0.013440 0.028077
v -0.047907 0.034364 0.028329
v -0.048288 0.013158 0.035127
v -0.057914 0.013439 -0.036774
v -0.049932 0.041185 -0.033151
v -0.057861 0.042257 -0.030052
v -0.050293 0.013332 -0.071705
v -0.044043 0.029596 -0.067872
v -0.047475 0.033498 -0.062590
v 0.019168 0.038236 0.001462
v 0.017182 0.035054 0.012918
v 0.026581 0.043171 0.005871
v 0.026685 0.046480 -0.015897
v 0.018415 0.041103 -0.015937
v 0.019332 0.038189 -0.033071
v 0.026788 0.043171 -0.037667
v 0.017448 0.034960 -0.043238
v 0.026685 0.046480 -0.015897
v 0.020801 0.048923 -0.037696
v 0.026788 0.043171 -0.037667
v 0.020697 0.052232 -0.015926
v 0.020593 0.048923 0.005843
v 0.026581 0.043171 0.005871
v 0.058110 -0.041801 -0.002933
v 0.058057 -0.034661 0.008327
v 0.058034 -0.025668 0.013376
v 0.058175 -0.013653 -0.016134
v 0.058173 -0.043995 -0.016132
v 0.058024 -0.013567 0.015196
v 0.058228 -0.041801 -0.027632
v 0.058036 0.001322 0.012861
v 0.058303 -0.025668 -0.043307
v 0.058278 -0.034661 -0.038259
v 0.058311 -0.013567 -0.045127
v 0.058301 0.001284 -0.042792
v 0.058091 0.018592 -0.003448
v 0.058061 0.012323 0.007356
v 0.058130 0.020047 -0.015563
v 0.058205 0.018554 -0.027117
v 0.058274 0.012251 -0.037288
v 0.019547 0.002429 0.014907
v 0.055155 0.002429 0.015077
v 0.055136 -0.013653 0.017599
v 0.019518 -0.013653 0.017430
v 0.055152 -0.026724 0.015633
v 0.019544 -0.026724 0.015464
v 0.055172 -0.036582 0.010180
v 0.019553 -0.036582 0.010010
v 0.019558 0.014481 0.008962
v 0.055155 0.002429 0.015077
v 0.019547 0.002429 0.014907
v 0.055176 0.014481 0.009131
v 0.054943 0.021084 -0.002539
v 0.018900 0.021084 -0.002711
v 0.018297 0.022571 -0.015801
v 0.054736 0.022571 -0.015627
v 0.019022 0.021042 -0.028278
v 0.055065 0.021042 -0.028106
v 0.019787 0.014403 -0.039259
v 0.055406 0.014403 -0.039090
v 0.019833 0.002388 -0.045205
v 0.055406 0.014403 -0.039090
v 0.019787 0.014403 -0.039259
v 0.055441 0.002388 -0.045036
v 0.019828 -0.013653 -0.047727
v 0.055446 -0.013653 -0.047558
v 0.019835 -0.026724 -0.045761
v 0.055444 -0.026724 -0.045591
v 0.019792 -0.036582 -0.040308
v 0.055411 -0.036582 -0.040138
v -0.016024 0.029806 0.063400
v 0.036320 0.029806 0.063649
v 0.031295 0.019050 0.072382
v -0.015912 0.019530 0.072054
v -0.042943 0.019530 0.071926
v -0.048073 0.029806 0.063247
v -0.015913 -0.015169 0.072456
v 0.031294 -0.015169 0.072680
v -0.042945 -0.015169 0.072327
v -0.015912 -0.053336 0.072092
v 0.036140 -0.053336 0.072340
v -0.042943 -0.053336 0.071963
v -0.042943 -0.053336 0.071963
v -0.048554 -0.056673 0.066621
v -0.048555 -0.015169 0.066985
v -0.042945 -0.015169 0.072327
v -0.048345 0.018237 0.065797
v -0.042943 0.019530 0.071926
v -0.048073 0.029806 0.063247
v -0.016040 -0.056673 0.066776
v -0.048554 -0.056673 0.066621
v -0.042943 -0.053336 0.071963
v -0.015912 -0.053336 0.072092
v 0.036140 -0.053336 0.072340
v 0.039656 -0.056673 0.067041
v 0.039656 -0.056673 0.067041
v 0.041620 -0.049805 0.037626
v 0.039796 -0.056673 0.037617
v 0.041471 -0.049805 0.069071
v 0.036302 -0.015169 0.067389
v 0.036140 -0.053336 0.072340
v 0.036430 -0.015169 0.040435
v 0.031294 -0.015169 0.072680
v 0.033973 0.008972 0.040155
v 0.031295 0.019050 0.072382
v 0.036303 0.008728 0.067079
v 0.036309 0.012317 0.065935
v 0.036444 0.017804 0.037637
v 0.036320 0.029806 0.063649
v 0.036444 0.034080 0.037673
v 0.017186 -0.039169 0.012391
v 0.009106 -0.042238 0.015300
v 0.009085 -0.028402 0.019796
v 0.017180 -0.027698 0.018239
v 0.009071 -0.012252 0.022639
v 0.017143 -0.012252 0.021045
v 0.017173 0.011666 0.019951
v 0.009076 0.012449 0.021567
v 0.017182 0.035054 0.012918
v 0.009112 0.037150 0.014265
v 0.055406 0.014403 -0.039090
v 0.058274 0.012251 -0.037288
v 0.058205 0.018554 -0.027117
v 0.055065 0.021042 -0.028106
v 0.058130 0.020047 -0.015563
v 0.054736 0.022571 -0.015627
v 0.058091 0.018592 -0.003448
v 0.054943 0.021084 -0.002539
v 0.055441 0.002388 -0.045036
v 0.058274 0.012251 -0.037288
v 0.055406 0.014403 -0.039090
v 0.058301 0.001284 -0.042792
v 0.055446 -0.013653 -0.047558
v 0.058311 -0.013567 -0.045127
v 0.055444 -0.026724 -0.045591
v 0.058303 -0.025668 -0.043307
v 0.055411 -0.036582 -0.040138
v 0.058278 -0.034661 -0.038259
v 0.055363 -0.044149 -0.028661
v 0.058228 -0.041801 -0.027632
v 0.055176 0.014481 0.009131
v 0.058061 0.012323 0.007356
v 0.058036 0.001322 0.012861
v 0.055155 0.002429 0.015077
v 0.058024 -0.013567 0.015196
v 0.055136 -0.013653 0.017599
v 0.058034 -0.025668 0.013376
v 0.055152 -0.026724 0.015633
v 0.058057 -0.034661 0.008327
v 0.055172 -0.036582 0.010180
v 0.054943 0.021084 -0.002539
v 0.058091 0.018592 -0.003448
v 0.058061 0.012323 0.007356
v 0.055176 0.014481 0.009131
v 0.017496 -0.026477 -0.048362
v 0.009439 -0.012252 -0.054646
v 0.009423 -0.028977 -0.051268
v 0.017490 -0.012252 -0.051886
v 0.017507 0.011616 -0.050271
v 0.009431 0.012609 -0.052811
v 0.017448 0.034960 -0.043238
v 0.009396 0.037470 -0.045519
v 0.020801 0.048923 -0.037696
v 0.026788 0.043171 -0.037667
v -0.029710 -0.053985 -0.068285
v 0.006015 -0.053985 -0.064100
v 0.006030 -0.012812 -0.067374
v -0.029694 -0.010953 -0.071559
v -0.041853 -0.053985 -0.067747
v 0.006036 0.009868 -0.068487
v -0.041837 -0.009961 -0.071021
v -0.053997 -0.053985 -0.067209
v -0.053981 -0.008969 -0.070483
v -0.029688 0.012363 -0.072673
v -0.043221 0.013224 -0.072467
v -0.050293 0.013332 -0.071705
v -0.044043 0.029596 -0.067872
v -0.025365 0.029596 -0.068975
v 0.006018 0.029596 -0.064809
v -0.041853 -0.053985 -0.067747
v -0.053997 -0.053985 -0.067209
v -0.057820 -0.056673 -0.058317
v -0.029625 -0.056673 -0.056006
v -0.029710 -0.053985 -0.068285
v 0.006015 -0.053985 -0.064100
v 0.009445 -0.056673 -0.055820
v 0.009257 -0.056673 -0.016373
v -0.058019 -0.056673 -0.016685
v -0.029812 -0.056673 -0.016519
v -0.030021 -0.056673 0.027373
v 0.009051 -0.056673 0.027020
v -0.058233 -0.056673 0.028412
v 0.013602 -0.056673 0.029882
v -0.048404 -0.056673 0.035103
v 0.034683 -0.056673 0.033404
v -0.017600 -0.056673 0.035250
v -0.048554 -0.056673 0.066621
v 0.039796 -0.056673 0.037617
v -0.016040 -0.056673 0.066776
v 0.039656 -0.056673 0.067041
v -0.024577 0.053364 -0.038048
v 0.020801 0.048923 -0.037696
v 0.020697 0.052232 -0.015926
v -0.024682 0.056673 -0.016164
v -0.047695 0.052807 -0.016295
v -0.047590 0.048923 -0.038303
v -0.024786 0.053364 0.005722
v 0.020593 0.048923 0.005843
v -0.047800 0.048923 0.005712
v 0.009396 0.037470 -0.045519
v 0.020801 0.048923 -0.037696
v -0.024577 0.053364 -0.038048
v -0.025472 0.037702 -0.046214
v -0.047590 0.048923 -0.038303
v -0.047554 0.038390 -0.046044
v 0.009431 0.012609 -0.052811
v 0.009396 0.037470 -0.045519
v 0.007714 0.033259 -0.056446
v 0.008588 0.011927 -0.057983
v 0.006018 0.029596 -0.064809
v 0.009439 -0.012252 -0.054646
v 0.006036 0.009868 -0.068487
v 0.009462 -0.012357 -0.059519
v 0.009423 -0.028977 -0.051268
v 0.006030 -0.012812 -0.067374
v 0.009454 -0.034515 -0.057670
v 0.006015 -0.053985 -0.064100
v 0.009396 -0.042238 -0.045696
v 0.009445 -0.056673 -0.055820
v 0.009331 -0.049104 -0.032000
v 0.009257 -0.056673 -0.016373
v 0.009257 -0.052092 -0.016373
v 0.009173 -0.048353 0.001341
v 0.009051 -0.056673 0.027020
v 0.009106 -0.042238 0.015300
v 0.009057 -0.034507 0.025584
v 0.009085 -0.028402 0.019796
v 0.009048 -0.012342 0.027558
v 0.013588 -0.012342 0.032716
v 0.015127 0.011355 0.032198
v 0.009071 -0.012252 0.022639
v 0.009293 0.012597 0.027659
v 0.009076 0.012449 0.021567
v 0.009539 0.018712 0.027262
v 0.009112 0.037150 0.014265
v 0.010041 0.036206 0.024472
v 0.013601 0.035129 0.030028
v -0.025383 0.041578 -0.050032
v -0.013699 0.037996 -0.058550
v -0.017367 0.040389 -0.052545
v -0.025349 0.038047 -0.058717
v -0.033194 0.040457 -0.052777
v -0.017311 0.035861 -0.065259
v -0.036627 0.038096 -0.058886
v -0.025298 0.034965 -0.068602
v -0.033135 0.035930 -0.065491
v -0.025472 0.037702 -0.046214
v -0.025425 0.037009 -0.048159
v -0.017431 0.035819 -0.050672
v -0.015830 0.036267 -0.049246
v -0.013760 0.033374 -0.056828
v 0.009396 0.037470 -0.045519
v 0.007714 0.033259 -0.056446
v -0.011401 0.033317 -0.056669
v -0.017370 0.031184 -0.063685
v 0.006018 0.029596 -0.064809
v -0.015755 0.030676 -0.064942
v -0.025337 0.030288 -0.067028
v -0.025365 0.029596 -0.068975
v -0.033154 0.031253 -0.063917
v -0.034794 0.030759 -0.065220
v -0.044043 0.029596 -0.067872
v -0.036648 0.033473 -0.057163
v -0.039008 0.033437 -0.057074
v -0.047475 0.033498 -0.062590
v -0.033215 0.035887 -0.050904
v -0.047554 0.038390 -0.046044
v -0.034868 0.036349 -0.049525
v -0.025425 0.037009 -0.048159
v -0.036648 0.033473 -0.057163
v -0.036627 0.038096 -0.058886
v -0.033194 0.040457 -0.052777
v -0.033215 0.035887 -0.050904
v -0.033215 0.035887 -0.050904
v -0.033194 0.040457 -0.052777
v -0.025383 0.041578 -0.050032
v -0.025425 0.037009 -0.048159
v -0.017367 0.040389 -0.052545
v -0.017431 0.035819 -0.050672
v -0.013760 0.033374 -0.056828
v -0.013699 0.037996 -0.058550
v -0.017311 0.035861 -0.065259
v -0.017370 0.031184 -0.063685
v -0.025298 0.034965 -0.068602
v -0.025337 0.030288 -0.067028
v -0.017431 0.035819 -0.050672
v -0.017367 0.040389 -0.052545
v -0.013699 0.037996 -0.058550
v -0.013760 0.033374 -0.056828
v -0.025337 0.030288 -0.067028
v -0.025298 0.034965 -0.068602
v -0.033135 0.035930 -0.065491
v -0.033154 0.031253 -0.063917
v -0.036627 0.038096 -0.058886
v -0.036648 0.033473 -0.057163
v 0.009173 -0.048353 0.001341
v 0.009106 -0.042238 0.015300
v 0.017186 -0.039169 0.012391
v 0.017267 -0.045328 -0.000039
v 0.009257 -0.052092 -0.016373
v 0.019553 -0.036582 0.010010
v 0.019628 -0.044149 -0.002152
v 0.017180 -0.027698 0.018239
v 0.019544 -0.026724 0.015464
v 0.017323 -0.048258 -0.016329
v 0.017143 -0.012252 0.021045
v 0.019518 -0.013653 0.017430
v 0.019547 0.002429 0.014907
v 0.017173 0.011666 0.019951
v 0.019558 0.014481 0.008962
v 0.017182 0.035054 0.012918
v 0.019168 0.038236 0.001462
v 0.018900 0.021084 -0.002711
v 0.018297 0.022571 -0.015801
v 0.018415 0.041103 -0.015937
v 0.019332 0.038189 -0.033071
v 0.019022 0.021042 -0.028278
v 0.019787 0.014403 -0.039259
v 0.017448 0.034960 -0.043238
v 0.017507 0.011616 -0.050271
v 0.019833 0.002388 -0.045205
v 0.017490 -0.012252 -0.051886
v 0.019828 -0.013653 -0.047727
v 0.017496 -0.026477 -0.048362
v 0.019835 -0.026724 -0.045761
v 0.017447 -0.038839 -0.042629
v 0.009423 -0.028977 -0.051268
v 0.009396 -0.042238 -0.045696
v 0.019792 -0.036582 -0.040308
v 0.009331 -0.049104 -0.032000
v 0.017745 -0.045831 -0.031374
v 0.019755 -0.044149 -0.028830
v 0.019755 -0.044149 -0.028830
v 0.055411 -0.036582 -0.040138
v 0.019792 -0.036582 -0.040308
v 0.055363 -0.044149 -0.028661
v 0.055296 -0.046519 -0.016147
v 0.019678 -0.046519 -0.016317
v 0.019628 -0.044149 -0.002152
v 0.055236 -0.044149 -0.001982
v 0.019628 -0.044149 -0.002152
v 0.017323 -0.048258 -0.016329
v 0.017267 -0.045328 -0.000039
v 0.019678 -0.046519 -0.016317
v 0.019755 -0.044149 -0.028830
v 0.055172 -0.036582 0.010180
v 0.055236 -0.044149 -0.001982
v 0.019628 -0.044149 -0.002152
v 0.019553 -0.036582 0.010010
v 0.055296 -0.046519 -0.016147
v 0.058228 -0.041801 -0.027632
v 0.055363 -0.044149 -0.028661
v 0.058173 -0.043995 -0.016132
v 0.058110 -0.041801 -0.002933
v 0.055236 -0.044149 -0.001982
v 0.058057 -0.034661 0.008327
v 0.055172 -0.036582 0.010180
v 0.017182 0.035054 0.012918
v 0.009112 0.037150 0.014265
v 0.020593 0.048923 0.005843
v 0.026581 0.043171 0.005871
v 0.034683 -0.056673 0.033404
v 0.039796 -0.056673 0.037617
v 0.041620 -0.049805 0.037626
v 0.032262 -0.038691 0.033133
v 0.013602 -0.056673 0.029882
v 0.036430 -0.015169 0.040435
v 0.013603 -0.037201 0.029622
v 0.009051 -0.056673 0.027020
v 0.009057 -0.034507 0.025584
v 0.013588 -0.012342 0.032716
v 0.029825 -0.015169 0.036215
v 0.033973 0.008972 0.040155
v 0.027368 0.009114 0.035945
v 0.015127 0.011355 0.032198
v 0.029838 0.018088 0.033437
v 0.036444 0.017804 0.037637
v 0.036444 0.034080 0.037673
v 0.029837 0.034648 0.033492
v 0.013602 0.019742 0.029955
v 0.009293 0.012597 0.027659
v 0.013601 0.035129 0.030028
v 0.009539 0.018712 0.027262
v 0.009112 0.037150 0.014265
v -0.024786 0.053364 0.005722
v 0.020593 0.048923 0.005843
v -0.026198 0.037917 0.014443
v -0.047800 0.048923 0.005712
v -0.047838 0.038375 0.013661
v 0.010041 0.036206 0.024472
v -0.023557 0.034364 0.035313
v -0.047907 0.034364 0.028329
v 0.013601 0.035129 0.030028
v -0.048073 0.029806 0.063247
v 0.029837 0.034648 0.033492
v -0.016024 0.029806 0.063400
v 0.036444 0.034080 0.037673
v 0.036320 0.029806 0.063649
v -0.048554 -0.056673 0.066621
v -0.048404 -0.056673 0.035103
v -0.048288 0.013158 0.035127
v -0.048555 -0.015169 0.066985
v -0.048345 0.018237 0.065797
v -0.048288 0.013158 0.035127
v -0.047907 0.034364 0.028329
v -0.048073 0.029806 0.063247
v -0.050069 0.042998 -0.004336
v -0.050093 0.041185 0.000587
v -0.057992 0.042257 -0.002488
v -0.057924 0.042867 -0.016682
v -0.050010 0.043970 -0.016627
v -0.049954 0.042998 -0.028569
v -0.057861 0.042257 -0.030052
v -0.049932 0.041185 -0.033151
v -0.050093 0.041185 0.000587
v -0.047695 0.052807 -0.016295
v -0.047800 0.048923 0.005712
v -0.047838 0.038375 0.013661
v -0.058019 -0.056673 -0.016685
v -0.058233 -0.008969 0.028412
v -0.058233 -0.056673 0.028412
v -0.058018 -0.008969 -0.016768
v -0.058223 0.013440 0.028077
v -0.057820 -0.056673 -0.058317
v -0.058100 0.013440 0.002325
v -0.057803 -0.008969 -0.062060
v -0.053997 -0.053985 -0.067209
v -0.053981 -0.008969 -0.070483
v -0.050293 0.013332 -0.071705
v -0.058009 0.013439 -0.016742
v -0.057992 0.042257 -0.002488
v -0.057924 0.042867 -0.016682
v -0.057861 0.042257 -0.030052
v -0.057914 0.013439 -0.036774
v -0.057400 0.013440 -0.063585
v -0.057400 0.013440 -0.063585
v -0.047475 0.033498 -0.062590
v -0.047554 0.038390 -0.046044
v -0.057914 0.013439 -0.036774
v -0.049932 0.041185 -0.033151
v -0.047590 0.048923 -0.038303
v -0.047695 0.052807 -0.016295
v -0.049954 0.042998 -0.028569
v -0.050010 0.043970 -0.016627
v -0.050069 0.042998 -0.004336
v -0.050093 0.041185 0.000587
v -0.058100 0.013440 0.002325
v -0.047838 0.038375 0.013661
v -0.058223 0.013440 0.028077
v -0.047907 0.034364 0.028329
v -0.058233 -0.056673 0.028412
v -0.048288 0.013158 0.035127
v -0.048404 -0.056673 0.035103
v -0.058233 -0.008969 0.028412
v -0.058223 0.013440 0.028077
vn -0.9241 0.3238 0.2031
vn -0.9652 0.1920 0.1778
vn -0.9285 0.3491 0.1268
vn -0.9876 0.0653 0.1426
vn -0.4153 0.8906 0.1852
vn -0.5533 0.2633 0.7902
vn -0.9650 0.1920 -0.1788
vn -0.9182 0.3303 -0.2189
vn -0.9245 0.3547 -0.1398
vn -0.6292 0.6319 -0.4526
vn -0.1142 0.4469 -0.8872
vn -0.1602 0.0621 -0.9851
vn 0.9569 0.0377 0.2879
vn 0.7054 0.2084 0.6775
vn 0.9459 -0.3209 -0.0471
vn 0.9992 -0.0396 0.0052
vn 0.9166 -0.3998 0.0047
vn 0.9421 -0.3301 0.0590
vn 0.9583 0.0276 -0.2843
vn 0.7232 0.1754 -0.6680
vn 0.9584 0.0276 -0.2842
vn 0.1981 0.8993 -0.3898
vn 0.9992 -0.0397 0.0052
vn 0.1897 0.9818 0.0009
vn 0.1898 0.9015 0.3890
vn 0.9569 0.0376 0.2880
vn 0.9916 -0.0378 0.1235
vn 0.9939 -0.0758 0.0802
vn 0.9896 -0.1330 0.0549
vn 1.0000 0.0003 0.0048
vn 0.9816 -0.1908 0.0046
vn 0.9821 0.0038 0.1883
vn 0.9896 -0.1344 -0.0513
vn 0.9916 0.0357 0.1244
vn 0.9918 -0.0401 -0.1212
vn 0.9942 -0.0768 -0.0749
vn 0.9816 0.0041 -0.1909
vn 0.9918 0.0379 -0.1220
vn 0.9906 0.1293 0.0438
vn 0.9940 0.0732 0.0809
vn 0.9817 0.1905 0.0044
vn 0.9903 0.1336 -0.0383
vn 0.9944 0.0740 -0.0756
vn -0.0047 0.0191 0.9998
vn -0.0045 0.2882 0.9576
vn -0.0046 0.2882 0.9576
vn -0.0048 0.0191 0.9998
vn -0.0045 -0.3079 0.9514
vn -0.0034 -0.7109 0.7033
vn -0.0046 0.2883 0.9575
vn -0.0046 0.2882 0.9575
vn -0.0034 0.6928 0.7211
vn -0.0035 0.6849 0.7286
vn -0.0015 0.9496 0.3133
vn -0.0014 0.9539 0.3000
vn -0.0000 1.0000 -0.0015
vn -0.0000 1.0000 -0.0017
vn 0.0015 0.9484 -0.3172
vn 0.0016 0.9434 -0.3317
vn 0.0035 0.6784 -0.7347
vn 0.0035 0.6704 -0.7420
vn 0.0035 0.6783 -0.7348
vn 0.0036 0.6703 -0.7421
vn 0.0046 0.2890 -0.9573
vn 0.0045 0.2889 -0.9573
vn 0.0048 0.0191 -0.9998
vn 0.0045 -0.3079 -0.9514
vn 0.0045 -0.3078 -0.9514
vn 0.0034 -0.6968 -0.7172
vn 0.0478 0.2359 0.9706
vn 0.2817 0.9063 0.3151
vn -0.0049 0.9345 0.3558
vn -0.0047 0.2078 0.9782
vn -0.1309 0.2267 0.9651
vn -0.5267 0.8088 0.2617
vn -0.0051 0.0001 1.0000
vn 0.0673 0.0050 0.9977
vn -0.1722 0.0016 0.9851
vn -0.0047 -0.1466 0.9892
vn 0.0617 -0.1912 0.9796
vn -0.1741 -0.1752 0.9690
vn -0.9926 0.0022 0.1210
vn -0.9939 -0.0331 0.1055
vn -0.9833 0.0204 0.1810
vn -0.5266 0.8089 0.2617
vn -0.1742 -0.1751 0.9690
vn -0.9939 -0.0330 0.1055
vn -0.0025 -0.8469 0.5317
vn 0.7033 -0.6382 0.3132
vn 0.9168 -0.1847 -0.3540
vn 0.9852 0.0814 -0.1510
vn 0.7033 -0.6381 0.3133
vn 0.9805 0.0904 0.1742
vn 0.9804 0.1059 0.1664
vn 0.0617 -0.1913 0.9796
vn 0.9727 0.1208 -0.1980
vn 0.0673 0.0049 0.9977
vn 0.9604 -0.0303 -0.2771
vn 0.9829 0.0079 0.1837
vn 0.9970 -0.0627 0.0448
vn 0.9737 -0.0658 -0.2181
vn 0.2896 0.9531 0.0884
vn 0.8162 -0.1563 0.5562
vn 0.9263 -0.2628 0.2701
vn 0.5054 -0.6045 0.6157
vn 0.4282 -0.2499 0.8684
vn 0.7155 -0.0317 0.6978
vn 0.4584 -0.0300 0.8882
vn 0.6201 0.1461 0.7708
vn 0.6752 0.1211 0.7276
vn 0.1707 0.5754 0.7999
vn 0.6818 0.5093 -0.5251
vn 0.6510 0.7217 -0.2354
vn 0.9817 0.1905 0.0045
vn 0.6165 0.7873 0.0013
vn 0.9906 0.1293 0.0437
vn 0.6467 0.7276 0.2290
vn 0.6818 0.5093 -0.5252
vn 0.6560 0.2252 -0.7204
vn 0.6470 0.0131 -0.7623
vn 0.6605 -0.2375 -0.7123
vn 0.9918 -0.0400 -0.1212
vn 0.6775 -0.5166 -0.5236
vn 0.6702 -0.6854 -0.2846
vn 0.9940 0.0731 0.0809
vn 0.6778 0.5188 0.5210
vn 0.6492 0.2246 0.7267
vn 0.6398 0.0131 0.7685
vn 0.6537 -0.2375 0.7186
vn 0.6725 -0.5264 0.5202
vn 0.6467 0.7275 0.2290
vn 0.6778 0.5188 0.5209
vn 0.8663 -0.1580 -0.4739
vn 0.7016 -0.0243 -0.7122
vn 0.5101 -0.2582 -0.8204
vn 0.5472 -0.0291 -0.8365
vn 0.6712 0.1470 -0.7265
vn 0.6642 0.1385 -0.7346
vn 0.7231 0.1754 -0.6681
vn 0.1400 0.5240 -0.8402
vn 0.2782 -0.0620 -0.9585
vn 0.2050 -0.0761 -0.9758
vn 0.0725 -0.0767 -0.9944
vn 0.0727 -0.0672 -0.9951
vn -0.0472 -0.0741 -0.9961
vn 0.3329 0.0503 -0.9416
vn -0.0472 -0.0679 -0.9966
vn -0.5532 -0.0614 -0.8308
vn -0.5216 -0.0428 -0.8521
vn 0.0699 0.0606 -0.9957
vn -0.0828 0.0909 -0.9924
vn -0.1142 0.4469 -0.8873
vn 0.0917 0.2268 -0.9696
vn 0.3828 0.3670 -0.8478
vn 0.0003 -0.9998 -0.0185
vn -0.0130 -0.9556 -0.2944
vn 0.0096 -0.9719 -0.2351
vn 0.0025 -0.9989 -0.0461
vn 0.0131 -0.9689 -0.2469
vn 0.0149 -0.9667 -0.2553
vn 0.0022 -0.9993 -0.0370
vn -0.0000 -1.0000 -0.0000
vn 0.1981 0.8994 -0.3898
vn 0.0089 0.8825 -0.4702
vn 0.0044 1.0000 0.0001
vn -0.3002 0.9539 -0.0015
vn -0.3656 0.8083 -0.4615
vn 0.0040 0.8845 0.4664
vn 0.1898 0.9015 0.3889
vn -0.3749 0.8115 0.4481
vn 0.1399 0.5240 -0.8401
vn 0.0101 0.5287 -0.8487
vn -0.3657 0.8082 -0.4615
vn -0.7475 0.5366 -0.3917
vn 0.5529 0.7377 -0.3873
vn 0.1400 0.5241 -0.8401
vn 0.9723 0.0346 -0.2313
vn 0.9623 -0.0032 -0.2721
vn 0.9702 -0.0200 -0.2416
vn 0.9273 -0.2574 -0.2717
vn 0.9929 -0.0103 -0.1185
vn 0.8988 -0.4161 -0.1380
vn 1.0000 -0.0000 0.0048
vn 0.9134 -0.4070 0.0122
vn 0.9076 -0.3989 0.1306
vn 0.9259 -0.0155 -0.3775
vn 0.9337 0.0193 -0.3575
vn 0.8162 -0.1562 0.5563
vn 0.8932 0.0111 -0.4496
vn 0.3813 0.0531 -0.9229
vn 0.3689 -0.0821 -0.9258
vn 0.7155 -0.0317 0.6979
vn 0.8763 -0.0333 -0.4806
vn 0.9492 -0.0498 -0.3108
vn 0.1707 0.5755 0.7998
vn 0.2895 0.9537 0.0816
vn 0.2356 0.8599 -0.4529
vn 0.0143 0.9286 -0.3708
vn 0.0137 0.9422 -0.3349
vn 0.0095 0.9287 -0.3708
vn 0.0090 0.9420 -0.3354
vn 0.0045 0.9287 -0.3708
vn 0.0131 0.9531 -0.3025
vn 0.0042 0.9423 -0.3347
vn 0.0086 0.9531 -0.3025
vn 0.0043 0.9530 -0.3030
vn 0.0390 0.9401 -0.3386
vn 0.0350 0.9417 -0.3346
vn 0.0102 0.5287 -0.8487
vn 0.0140 0.9282 -0.3718
vn 0.0451 0.9412 -0.3350
vn 0.5530 0.7377 -0.3874
vn 0.0185 0.9320 -0.3619
vn 0.0387 0.9426 -0.3315
vn 0.0381 0.9324 -0.3593
vn 0.0092 0.9420 -0.3355
vn -0.0209 0.9434 -0.3311
vn 0.0378 0.9334 -0.3568
vn -0.1143 0.4469 -0.8873
vn -0.0270 0.9416 -0.3356
vn 0.1134 0.9330 -0.3416
vn -0.0212 0.9402 -0.3400
vn -0.7474 0.5366 -0.3916
vn 0.0670 0.9268 -0.3695
vn -0.0172 0.9418 -0.3358
vn 0.0078 0.5287 -0.8488
vn -0.6502 0.2876 0.7033
vn -0.9999 0.0087 -0.0116
vn -0.9999 0.0113 -0.0047
vn -0.6485 0.2882 0.7045
vn -0.0108 0.3785 0.9255
vn -0.6501 0.2876 0.7033
vn -0.6485 0.2881 0.7046
vn -0.0131 0.3786 0.9255
vn 0.6260 0.2849 0.7259
vn 0.6213 0.2865 0.7293
vn 0.6734 -0.2466 -0.6970
vn 1.0000 -0.0035 0.0018
vn 1.0000 -0.0008 0.0089
vn 0.6741 -0.2464 -0.6963
vn 0.0137 -0.3198 -0.9474
vn 0.0113 -0.3198 -0.9474
vn 0.6214 0.2864 0.7292
vn -0.6707 -0.2371 -0.7028
vn 0.0137 -0.3199 -0.9474
vn -0.6741 -0.2362 -0.6998
vn -0.9999 0.0112 -0.0048
vn 0.5054 -0.6046 0.6157
vn 0.9263 -0.2627 0.2702
vn 0.9077 -0.3989 0.1306
vn 0.4845 -0.8306 0.2746
vn 0.9134 -0.4070 0.0123
vn 0.7894 -0.4340 0.4341
vn 0.6573 -0.7202 0.2221
vn 0.4283 -0.2499 0.8684
vn 0.7999 -0.1827 0.5717
vn 0.4488 -0.8935 0.0189
vn 0.4585 -0.0300 0.8882
vn 0.8592 -0.0190 0.5113
vn 0.9316 0.0579 0.3589
vn 0.9832 0.0670 0.1699
vn 0.9998 0.0164 0.0125
vn 1.0000 -0.0049 0.0047
vn 0.9421 -0.3302 0.0590
vn 0.9999 0.0152 -0.0029
vn 0.9838 0.0671 -0.1661
vn 0.9392 0.0593 -0.3381
vn 0.8751 -0.0207 -0.4835
vn 0.7786 -0.2133 -0.5901
vn 0.5375 -0.5682 -0.6231
vn 0.9273 -0.2574 -0.2716
vn 0.7909 -0.4067 -0.4572
vn 0.5100 -0.8071 -0.2974
vn 0.7317 -0.6485 -0.2097
vn 0.0034 -0.6969 -0.7172
vn 0.0018 -0.9239 -0.3826
vn -0.0017 -0.9356 0.3531
vn 0.4488 -0.8934 0.0189
vn 0.6572 -0.7202 0.2220
vn 0.6147 -0.7886 0.0177
vn 0.7317 -0.6486 -0.2097
vn -0.0033 -0.7109 0.7032
vn -0.0033 -0.7110 0.7032
vn 0.6702 -0.6855 -0.2845
vn 0.6600 -0.7513 0.0036
vn 0.9816 -0.1908 0.0045
vn 0.6657 -0.6961 0.2689
vn 0.1897 0.9015 0.3889
vn 0.1707 0.5754 0.7998
vn 0.9852 0.0815 -0.1509
vn 0.9168 -0.1847 -0.3541
vn 0.2664 -0.0012 -0.9639
vn 0.3210 0.0895 -0.9428
vn 0.2805 -0.0101 -0.9598
vn 0.9727 0.1207 -0.1980
vn 0.3200 0.0606 -0.9455
vn 0.9337 0.0193 -0.3576
vn 0.3812 0.0531 -0.9230
vn 0.3464 0.0909 -0.9337
vn 0.9604 -0.0303 -0.2770
vn 0.3265 -0.0771 -0.9420
vn 0.3689 -0.0822 -0.9258
vn 0.3318 -0.1043 -0.9376
vn 0.2895 0.9531 0.0883
vn 0.2924 0.5148 -0.8059
vn 0.3569 -0.0743 -0.9312
vn 0.8762 -0.0333 -0.4807
vn 0.2355 0.8599 -0.4529
vn 0.0040 0.8845 0.4665
vn -0.0076 0.8071 0.5904
vn -0.3750 0.8115 0.4481
vn -0.6460 0.6809 0.3450
vn -0.0097 0.9868 0.1618
vn -0.4152 0.8907 0.1852
vn -0.5267 0.8088 0.2616
vn 0.2923 0.5148 -0.8059
vn -0.0050 0.9345 0.3558
vn -0.9800 0.0027 0.1990
vn -0.9669 0.0016 0.2552
vn -0.9926 0.0022 0.1211
vn -0.5266 0.8088 0.2617
vn -0.9651 0.1921 0.1777
vn -0.3626 0.9258 0.1067
vn -0.9774 0.2111 -0.0046
vn -0.4995 0.8663 -0.0025
vn -0.3541 0.9278 -0.1177
vn -0.9650 0.1921 -0.1787
vn -0.9181 0.3304 -0.2188
vn -0.3749 0.8115 0.4482
vn -0.3003 0.9539 -0.0014
vn -0.9241 0.3238 0.2030
vn -0.6460 0.6810 0.3450
vn -0.9759 0.0001 0.2184
vn -0.9664 0.0004 0.2571
vn -1.0000 -0.0000 -0.0048
vn -1.0000 0.0005 -0.0051
vn -1.0000 0.0004 -0.0048
vn -0.9981 -0.0042 -0.0608
vn -1.0000 0.0028 -0.0047
vn -0.9956 0.0002 -0.0934
vn -0.8576 0.2775 -0.4330
vn -1.0000 0.0029 -0.0048
vn -0.9652 0.1921 0.1777
vn -0.9775 0.2110 -0.0047
vn -0.9999 0.0064 -0.0101
vn -0.9032 0.3067 -0.3001
vn -0.6292 0.6319 -0.4525
vn -0.7475 0.5365 -0.3917
vn -0.9245 0.3546 -0.1398
vn -0.9182 0.3303 -0.2188
vn -0.3540 0.9278 -0.1178
vn -0.9284 0.3491 0.1268
vn -0.9292 0.3604 0.0813
vn -0.4152 0.8907 0.1853
vn -0.9669 0.0010 0.2552
vn -0.9759 0.0005 0.2184
vn -0.5785 0.0125 0.8156
vt 0.262576 0.489909
vt 0.251935 0.493666
vt 0.268801 0.392697
vt 0.383565 0.391712
vt 0.359739 0.466011
vt 0.359030 0.392698
vt 0.155357 0.493666
vt 0.144366 0.489909
vt 0.131806 0.392696
vt 0.972561 0.293835
vt 0.961495 0.281155
vt 0.981858 0.228317
vt 0.741951 0.695500
vt 0.717524 0.667536
vt 0.757022 0.678497
vt 0.816948 0.706899
vt 0.816948 0.688375
vt 0.875988 0.678334
vt 0.891944 0.695500
vt 0.910983 0.667211
vt 0.891944 0.715314
vt 0.816948 0.726714
vt 0.741951 0.715314
vt 0.716617 0.458348
vt 0.734009 0.427367
vt 0.772799 0.402771
vt 0.818277 0.499740
vt 0.818269 0.395212
vt 0.710346 0.500037
vt 0.857889 0.402771
vt 0.718389 0.551328
vt 0.911890 0.458348
vt 0.894497 0.427367
vt 0.918161 0.500037
vt 0.910117 0.551196
vt 0.774572 0.610825
vt 0.737353 0.589228
vt 0.816311 0.615835
vt 0.856117 0.610693
vt 0.891153 0.588979
vt 0.097358 0.867423
vt 0.135713 0.867423
vt 0.135710 0.993485
vt 0.097358 0.993485
vt 0.066764 0.867423
vt 0.066767 0.993485
vt 0.041725 0.867423
vt 0.041731 0.993485
vt 0.165327 0.993485
vt 0.165333 0.867423
vt 0.194510 0.867423
vt 0.194503 0.993487
vt 0.223642 0.993488
vt 0.223650 0.867423
vt 0.251327 0.993487
vt 0.251334 0.867423
vt 0.279198 0.993485
vt 0.279204 0.867423
vt 0.308791 0.993485
vt 0.308795 0.867423
vt 0.347060 0.993485
vt 0.347060 0.867423
vt 0.377654 0.993485
vt 0.377650 0.867423
vt 0.402692 0.993485
vt 0.402687 0.867423
vt 0.520080 0.250430
vt 0.503891 0.285376
vt 0.673950 0.285376
vt 0.673451 0.251991
vt 0.761274 0.251991
vt 0.778075 0.285376
vt 0.673451 0.139258
vt 0.520080 0.139258
vt 0.761274 0.139258
vt 0.673451 0.015260
vt 0.504340 0.015260
vt 0.761274 0.015260
vt 0.779584 0.139258
vt 0.779584 0.004418
vt 0.778917 0.247789
vt 0.495193 0.759539
vt 0.476786 0.779057
vt 0.476786 0.666458
vt 0.495193 0.665927
vt 0.495193 0.485666
vt 0.476786 0.473578
vt 0.632807 0.351537
vt 0.632807 0.375198
vt 0.531440 0.351537
vt 0.524476 0.375198
vt 0.530187 0.494518
vt 0.513129 0.363033
vt 0.623044 0.494518
vt 0.511875 0.494518
vt 0.623969 0.577684
vt 0.512904 0.612401
vt 0.531255 0.576842
vt 0.535194 0.589207
vt 0.632683 0.608109
vt 0.543072 0.649457
vt 0.632559 0.664182
vt 0.693695 0.448929
vt 0.709187 0.401264
vt 0.719338 0.411838
vt 0.699194 0.451354
vt 0.683901 0.504568
vt 0.689525 0.504568
vt 0.693293 0.586964
vt 0.687595 0.589661
vt 0.712750 0.674755
vt 0.897315 0.596393
vt 0.859471 0.619264
vt 0.816476 0.624531
vt 0.771393 0.619407
vt 0.917798 0.554999
vt 0.926487 0.499740
vt 0.919713 0.454712
vt 0.900927 0.420749
vt 0.861386 0.394681
vt 0.731191 0.596662
vt 0.710708 0.555142
vt 0.702019 0.499740
vt 0.708793 0.454712
vt 0.727579 0.420749
vt 0.938516 0.446950
vt 0.950152 0.504567
vt 0.928635 0.455562
vt 0.940774 0.504567
vt 0.935213 0.586792
vt 0.943829 0.590213
vt 0.918709 0.675859
vt 0.798806 0.143379
vt 0.798806 0.009614
vt 0.914933 0.009614
vt 0.914933 0.149419
vt 0.954377 0.009614
vt 0.798806 0.217062
vt 0.954377 0.152642
vt 0.993821 0.009614
vt 0.993821 0.155865
vt 0.914933 0.225170
vt 0.958894 0.227967
vt 0.900829 0.281155
vt 0.798806 0.281155
vt 0.044275 0.813206
vt 0.013418 0.800110
vt 0.011354 0.758066
vt 0.051814 0.715524
vt 0.009290 0.716021
vt 0.023197 0.592238
vt 0.051814 0.580224
vt 0.188424 0.580224
vt 0.188450 0.813206
vt 0.188562 0.715524
vt 0.340561 0.715524
vt 0.338695 0.580224
vt 0.344626 0.813206
vt 0.348535 0.564417
vt 0.367636 0.779057
vt 0.360384 0.491355
vt 0.367636 0.672382
vt 0.374888 0.473578
vt 0.801470 0.737734
vt 0.881633 0.737734
vt 0.882135 0.904834
vt 0.801549 0.904834
vt 0.801632 0.989577
vt 0.882672 0.989577
vt 0.720962 0.904834
vt 0.721308 0.737734
vt 0.720593 0.989577
vt 0.910241 0.779866
vt 0.912190 0.908271
vt 0.911177 0.989577
vt 0.956326 0.661352
vt 0.961633 0.587862
vt 0.985108 0.648731
vt 0.997778 0.580769
vt 0.966941 0.504203
vt 0.993942 0.502638
vt 0.960568 0.427870
vt 0.982663 0.360796
vt 0.919319 0.401264
vt 0.954196 0.351537
vt 0.872136 0.377610
vt 0.818298 0.351537
vt 0.818298 0.367317
vt 0.757276 0.380198
vt 0.668811 0.351537
vt 0.673756 0.427897
vt 0.666955 0.504256
vt 0.649260 0.504256
vt 0.651070 0.585891
vt 0.666611 0.590172
vt 0.667983 0.611239
vt 0.677602 0.671504
vt 0.658525 0.667795
vt 0.935489 0.884635
vt 0.960989 0.873779
vt 0.926409 0.908282
vt 0.961178 0.908271
vt 0.936046 0.931845
vt 0.980739 0.884650
vt 0.961007 0.942173
vt 0.992504 0.908282
vt 0.981296 0.931849
vt 0.874772 0.301374
vt 0.900705 0.305239
vt 0.900825 0.307491
vt 0.869545 0.302828
vt 0.862940 0.293429
vt 0.787535 0.306738
vt 0.793170 0.293057
vt 0.855273 0.293245
vt 0.874774 0.286317
vt 0.869547 0.284666
vt 0.900708 0.283406
vt 0.926056 0.286539
vt 0.931404 0.284934
vt 0.937302 0.293752
vt 0.944969 0.293634
vt 0.926053 0.301596
vt 0.972561 0.309726
vt 0.931401 0.303096
vt 0.961017 0.949613
vt 0.930750 0.936864
vt 0.918853 0.908274
vt 0.930063 0.878741
vt 0.960995 0.865331
vt 0.987240 0.878744
vt 1.001763 0.908274
vt 0.987927 0.936867
vt 0.762159 0.390619
vt 0.769477 0.394681
vt 0.818281 0.380526
vt 0.908885 0.412975
vt 0.870116 0.388886
vt 0.433047 0.993485
vt 0.433040 0.867423
vt 0.461381 0.867423
vt 0.461389 0.993485
vt 0.493536 0.993485
vt 0.493528 0.867423
vt 0.818277 0.386516
vt 0.009981 0.993485
vt 0.009974 0.867423
vt 0.647235 0.351537
vt 0.648132 0.413486
vt 0.659023 0.351537
vt 0.659920 0.418617
vt 0.637472 0.494518
vt 0.638364 0.578173
vt 0.647045 0.609087
vt 0.646854 0.666136
vt 0.658774 0.614785
vt 0.690095 0.779866
vt 0.688823 0.909882
vt 0.691322 0.989577
vt 0.652526 0.776262
vt 0.612021 0.899792
vt 0.637313 0.989577
vt 0.632135 0.763058
vt 0.508730 0.989577
vt 0.619661 0.703211
vt 0.508730 0.871560
vt 0.604381 0.678813
vt 0.508730 0.678813
vt 0.383485 0.147041
vt 0.493917 0.147041
vt 0.495193 0.292460
vt 0.491024 0.409506
vt 0.482087 0.450042
vt 0.245328 0.496261
vt 0.202202 0.495802
vt 0.202265 0.499667
vt 0.160419 0.496261
vt 0.739427 0.998109
vt 0.360205 0.147041
vt 0.360205 0.314184
vt 0.202194 0.147041
vt 0.201902 0.314184
vt 0.056325 0.147041
vt 0.043209 0.314184
vt 0.025104 0.156458
vt 0.013633 0.314184
vt 0.009290 0.392320
vt 0.201992 0.392696
vt 0.037859 0.392697
vt 0.041180 0.462978
vt 0.099154 0.480116
vt 0.126277 0.517022
vt 0.203387 0.530629
vt 0.308348 0.480063
s 1
usemtl Material.024
f 3/1/1 2/2/2 1/3/3
f 6/4/4 5/5/5 4/6/6
f 9/7/7 8/8/8 7/9/9
f 12/10/10 11/11/11 10/12/12
f 15/13/13 14/14/14 13/15/15
f 15/13/13 13/15/15 16/16/16
f 13/15/15 17/17/17 16/16/16
f 16/16/16 17/17/17 18/18/18
f 19/19/19 16/16/16 18/18/18
f 18/18/18 20/20/20 19/19/19
f 23/19/21 22/21/22 21/16/23
f 22/21/22 24/22/24 21/16/23
f 21/16/23 24/22/24 25/23/25
f 26/13/26 21/16/23 25/23/25
f 29/24/27 28/25/28 27/26/29
f 30/27/30 29/24/27 27/26/29
f 27/26/29 31/28/31 30/27/30
f 30/27/30 32/29/32 29/24/27
f 30/27/30 31/28/31 33/30/33
f 34/31/34 32/29/32 30/27/30
f 30/27/30 33/30/33 35/32/35
f 33/30/33 36/33/36 35/32/35
f 35/32/35 37/34/37 30/27/30
f 30/27/30 37/34/37 38/35/38
f 30/27/30 39/36/39 34/31/34
f 39/36/39 40/37/40 34/31/34
f 30/27/30 41/38/41 39/36/39
f 42/39/42 41/38/41 30/27/30
f 42/39/42 30/27/30 38/35/38
f 43/40/43 42/39/42 38/35/38
f 46/41/44 45/42/45 44/43/46
f 47/44/47 46/41/44 44/43/46
f 48/45/48 46/41/44 47/44/47
f 49/46/48 48/45/48 47/44/47
f 50/47/49 48/45/48 49/46/48
f 51/48/49 50/47/49 49/46/48
f 54/43/50 53/42/51 52/49/52
f 53/42/51 55/50/53 52/49/52
f 52/49/52 55/50/53 56/51/54
f 57/52/55 52/49/52 56/51/54
f 57/52/55 56/51/54 58/53/56
f 56/51/54 59/54/57 58/53/56
f 58/53/56 59/54/57 60/55/58
f 59/54/57 61/56/59 60/55/58
f 60/55/58 61/56/59 62/57/60
f 61/56/59 63/58/61 62/57/60
f 66/57/62 65/58/63 64/59/64
f 65/58/63 67/60/65 64/59/64
f 64/59/64 67/60/65 68/61/66
f 67/60/65 69/62/66 68/61/66
f 68/61/66 69/62/66 70/63/67
f 69/62/66 71/64/68 70/63/67
f 70/63/67 71/64/68 72/65/69
f 71/64/68 73/66/69 72/65/69
f 76/67/70 75/68/71 74/69/72
f 77/70/73 76/67/70 74/69/72
f 77/70/73 74/69/72 78/71/74
f 74/69/72 79/72/75 78/71/74
f 77/70/73 80/73/76 76/67/70
f 80/73/76 77/70/73 78/71/74
f 80/73/76 81/74/77 76/67/70
f 82/75/78 80/73/76 78/71/74
f 81/74/77 80/73/76 83/76/79
f 83/76/79 80/73/76 82/75/78
f 84/77/80 81/74/77 83/76/79
f 85/78/81 83/76/79 82/75/78
f 88/79/82 87/80/83 86/78/81
f 89/75/78 88/79/82 86/78/81
f 90/81/84 88/79/82 89/75/78
f 91/71/74 90/81/84 89/75/78
f 91/71/74 92/72/85 90/81/84
f 95/82/86 94/83/87 93/84/88
f 96/85/79 95/82/86 93/84/88
f 96/85/79 93/84/88 97/86/80
f 93/84/88 98/87/89 97/86/80
f 101/88/90 100/89/91 99/90/92
f 100/89/91 102/91/93 99/90/92
f 102/91/93 100/89/91 103/92/94
f 104/93/95 99/90/92 102/91/93
f 104/93/95 102/91/93 103/92/94
f 100/89/91 105/94/96 103/92/94
f 106/95/97 104/93/95 103/92/94
f 105/94/96 107/96/98 103/92/94
f 108/97/70 106/95/97 103/92/94
f 107/96/98 109/98/99 103/92/94
f 109/98/99 108/97/70 103/92/94
f 109/98/99 107/96/98 110/99/100
f 109/98/99 110/99/100 108/97/70
f 107/96/98 111/100/101 110/99/100
f 110/99/100 112/101/71 108/97/70
f 110/99/100 111/100/101 113/102/102
f 112/101/71 110/99/100 113/102/102
f 116/103/103 115/104/104 114/105/105
f 117/106/106 116/103/103 114/105/105
f 116/103/103 117/106/106 118/107/107
f 117/106/106 119/108/108 118/107/107
f 119/108/108 120/109/109 118/107/107
f 120/109/109 121/110/110 118/107/107
f 120/109/109 122/14/14 121/110/110
f 122/14/14 123/111/111 121/110/110
f 126/39/42 125/40/43 124/112/112
f 127/113/113 126/39/42 124/112/112
f 128/38/114 126/39/42 127/113/113
f 129/114/115 128/38/114 127/113/113
f 130/36/116 128/38/114 129/114/115
f 131/115/117 130/36/116 129/114/115
f 134/112/118 133/40/43 132/116/119
f 133/40/43 135/35/38 132/116/119
f 132/116/119 135/35/38 136/117/120
f 135/35/38 137/34/37 136/117/120
f 136/117/120 137/34/37 138/118/121
f 137/34/37 139/32/122 138/118/121
f 138/118/121 139/32/122 140/119/123
f 139/32/122 141/33/36 140/119/123
f 140/119/123 141/33/36 142/120/124
f 141/33/36 143/30/33 142/120/124
f 146/31/34 145/37/125 144/121/126
f 147/122/127 146/31/34 144/121/126
f 148/29/32 146/31/34 147/122/127
f 149/123/128 148/29/32 147/122/127
f 150/24/27 148/29/32 149/123/128
f 151/124/129 150/24/27 149/123/128
f 152/25/28 150/24/27 151/124/129
f 153/125/130 152/25/28 151/124/129
f 156/37/125 155/36/116 154/115/131
f 157/121/132 156/37/125 154/115/131
f 160/126/133 159/127/134 158/128/135
f 159/127/134 161/129/136 158/128/135
f 162/130/137 161/129/136 159/127/134
f 163/131/138 162/130/137 159/127/134
f 162/130/137 163/131/138 164/20/139
f 163/131/138 165/132/140 164/20/139
f 165/132/140 166/21/22 164/20/139
f 166/21/22 167/19/19 164/20/139
f 170/133/141 169/134/142 168/135/143
f 171/136/144 170/133/141 168/135/143
f 171/136/144 168/135/143 172/137/145
f 173/138/146 170/133/141 171/136/144
f 174/139/147 171/136/144 172/137/145
f 172/137/145 175/140/148 174/139/147
f 175/140/148 176/141/149 174/139/147
f 177/142/150 173/138/146 171/136/144
f 171/136/144 174/139/147 177/142/150
f 174/139/147 176/141/149 178/143/151
f 174/139/147 178/143/151 177/142/150
f 176/141/149 179/12/12 178/143/151
f 180/11/152 178/143/151 179/12/12
f 177/142/150 178/143/151 180/11/152
f 181/144/153 177/142/150 180/11/152
f 173/138/146 177/142/150 181/144/153
f 182/145/154 173/138/146 181/144/153
f 185/146/155 184/147/156 183/148/157
f 185/146/155 183/148/157 186/149/158
f 183/148/157 187/150/159 186/149/158
f 186/149/158 187/150/159 188/151/160
f 189/152/161 186/149/158 188/151/160
f 189/152/161 190/153/162 186/149/158
f 185/146/155 186/149/158 191/154/162
f 190/153/162 192/155/162 186/149/158
f 186/149/158 192/155/162 191/154/162
f 192/155/162 193/156/162 191/154/162
f 190/153/162 194/157/162 192/155/162
f 194/157/162 193/156/162 192/155/162
f 193/156/162 195/158/162 191/154/162
f 193/156/162 194/157/162 196/159/162
f 197/160/162 195/158/162 193/156/162
f 196/159/162 198/161/162 193/156/162
f 199/162/162 197/160/162 193/156/162
f 198/161/162 199/162/162 193/156/162
f 200/83/162 197/160/162 199/162/162
f 201/163/162 199/162/162 198/161/162
f 202/84/162 200/83/162 199/162/162
f 199/162/162 201/163/162 202/84/162
f 201/163/162 203/87/162 202/84/162
f 206/164/24 205/165/163 204/166/164
f 207/167/165 206/164/24 204/166/164
f 207/167/165 204/166/164 208/168/166
f 204/166/164 209/169/167 208/168/166
f 206/164/24 207/167/165 210/170/168
f 210/170/168 207/167/165 208/168/166
f 211/171/169 206/164/24 210/170/168
f 212/172/170 210/170/168 208/168/166
f 215/166/164 214/165/163 213/173/171
f 216/174/172 215/166/164 213/173/171
f 215/166/164 216/174/172 217/169/173
f 216/174/172 218/175/174 217/169/173
f 221/176/175 220/132/176 219/131/138
f 222/177/177 221/176/175 219/131/138
f 223/178/154 221/176/175 222/177/177
f 224/127/134 222/177/177 219/131/138
f 225/179/146 223/178/154 222/177/177
f 224/127/134 226/180/178 222/177/177
f 222/177/177 226/180/178 225/179/146
f 226/180/178 224/127/134 227/126/133
f 226/180/178 228/181/141 225/179/146
f 229/182/179 226/180/178 227/126/133
f 228/181/141 226/180/178 229/182/179
f 230/183/142 228/181/141 229/182/179
f 227/126/133 231/184/180 229/182/179
f 229/182/179 232/185/181 230/183/142
f 231/184/180 232/185/181 229/182/179
f 232/185/181 231/184/180 233/186/182
f 232/185/181 233/186/182 234/187/183
f 233/186/182 235/188/184 234/187/183
f 234/187/183 235/188/184 236/189/185
f 237/190/186 234/187/183 236/189/185
f 236/189/185 238/104/104 237/190/186
f 239/191/187 237/190/186 238/104/104
f 240/103/188 239/191/187 238/104/104
f 239/191/187 240/103/188 241/192/189
f 239/191/187 241/192/189 242/193/190
f 243/194/191 242/193/190 241/192/189
f 240/103/188 244/107/192 241/192/189
f 245/195/193 243/194/191 241/192/189
f 245/195/193 241/192/189 244/107/192
f 246/110/110 245/195/193 244/107/192
f 247/196/194 245/195/193 246/110/110
f 246/110/110 248/111/195 247/196/194
f 248/111/195 249/197/196 247/196/194
f 247/196/194 249/197/196 250/198/197
f 253/199/198 252/200/199 251/201/200
f 252/200/199 254/202/201 251/201/200
f 255/203/202 251/201/200 254/202/201
f 252/200/199 256/204/203 254/202/201
f 257/205/204 255/203/202 254/202/201
f 256/204/203 258/206/205 254/202/201
f 259/207/206 257/205/204 254/202/201
f 258/206/205 259/207/206 254/202/201
f 262/208/207 261/209/208 260/210/209
f 263/211/210 262/208/207 260/210/209
f 264/212/211 262/208/207 263/211/210
f 263/211/210 260/210/209 265/213/140
f 265/213/140 266/214/212 263/211/210
f 267/215/213 264/212/211 263/211/210
f 266/214/212 267/215/213 263/211/210
f 268/216/214 264/212/211 267/215/213
f 267/215/213 266/214/212 269/145/154
f 270/217/215 268/216/214 267/215/213
f 270/217/215 267/215/213 269/145/154
f 271/218/216 268/216/214 270/217/215
f 269/145/154 272/144/153 270/217/215
f 272/144/153 271/218/216 270/217/215
f 273/219/217 271/218/216 272/144/153
f 274/220/218 273/219/217 272/144/153
f 274/220/218 272/144/153 275/11/219
f 276/221/220 273/219/217 274/220/218
f 274/220/218 275/11/219 277/222/221
f 277/222/221 276/221/220 274/220/218
f 275/11/219 278/10/10 277/222/221
f 279/223/222 276/221/220 277/222/221
f 277/222/221 278/10/10 280/224/223
f 281/225/224 279/223/222 277/222/221
f 281/225/224 277/222/221 280/224/223
f 282/209/225 279/223/222 281/225/224
f 280/224/223 260/210/226 281/225/224
f 260/210/226 282/209/225 281/225/224
f 285/203/227 284/205/228 283/226/229
f 286/227/230 285/203/227 283/226/229
f 289/201/231 288/203/232 287/227/233
f 290/228/234 289/201/231 287/227/233
f 291/199/235 289/201/231 290/228/234
f 292/229/236 291/199/235 290/228/234
f 295/204/237 294/200/238 293/230/239
f 296/231/240 295/204/237 293/230/239
f 297/206/241 295/204/237 296/231/240
f 298/232/242 297/206/241 296/231/240
f 301/200/238 300/199/235 299/229/243
f 302/230/239 301/200/238 299/229/243
f 305/207/244 304/206/245 303/232/242
f 306/233/246 305/207/244 303/232/242
f 307/205/228 305/207/244 306/233/246
f 308/226/247 307/205/228 306/233/246
f 311/105/248 310/104/249 309/189/250
f 312/234/251 311/105/248 309/189/250
f 312/234/251 309/189/250 313/188/252
f 314/125/253 311/105/248 312/234/251
f 315/235/254 314/125/253 312/234/251
f 316/106/255 311/105/248 314/125/253
f 317/124/256 316/106/255 314/125/253
f 318/236/257 312/234/251 313/188/252
f 316/106/255 317/124/256 319/108/258
f 317/124/256 320/123/259 319/108/258
f 319/108/258 320/123/259 321/122/260
f 322/109/109 319/108/258 321/122/260
f 321/122/260 323/121/261 322/109/109
f 323/121/261 324/14/14 322/109/109
f 325/15/15 324/14/14 323/121/261
f 326/115/262 325/15/15 323/121/261
f 326/115/262 327/114/263 325/15/15
f 327/114/263 328/17/17 325/15/15
f 329/18/264 328/17/17 327/114/263
f 330/113/265 329/18/264 327/114/263
f 330/113/265 331/112/266 329/18/264
f 331/112/266 332/20/139 329/18/264
f 333/130/137 332/20/139 331/112/266
f 334/116/267 333/130/137 331/112/266
f 333/130/137 334/116/267 335/129/136
f 334/116/267 336/117/268 335/129/136
f 337/128/135 335/129/136 336/117/268
f 338/118/269 337/128/135 336/117/268
f 337/128/135 338/118/269 339/237/270
f 337/128/135 339/237/270 340/126/133
f 339/237/270 341/184/271 340/126/133
f 338/118/269 342/119/272 339/237/270
f 343/186/182 341/184/271 339/237/270
f 344/238/273 339/237/270 342/119/272
f 344/238/273 343/186/182 339/237/270
f 345/120/274 344/238/273 342/119/272
f 344/238/273 345/120/274 318/236/257
f 344/238/273 318/236/257 343/186/182
f 318/236/257 313/188/252 343/186/182
f 348/65/275 347/66/275 346/239/276
f 347/66/275 349/240/276 346/239/276
f 346/239/276 349/240/276 350/241/162
f 351/242/162 346/239/276 350/241/162
f 352/243/277 351/242/162 350/241/162
f 353/244/277 352/243/277 350/241/162
f 356/234/251 355/236/278 354/235/279
f 355/236/278 357/245/280 354/235/279
f 358/120/281 357/245/280 355/236/278
f 361/246/277 360/247/277 359/47/282
f 362/48/283 361/246/277 359/47/282
f 365/120/284 364/30/33 363/245/285
f 364/30/33 366/28/286 363/245/285
f 363/245/285 366/28/286 367/26/29
f 368/235/287 363/245/285 367/26/29
f 368/235/287 367/26/29 369/25/28
f 370/125/130 368/235/287 369/25/28
f 373/23/288 372/111/289 371/14/14
f 374/13/13 373/23/288 371/14/14
f 377/89/290 376/88/291 375/248/292
f 378/249/293 377/89/290 375/248/292
f 378/249/293 375/248/292 379/250/294
f 377/89/290 378/249/293 380/94/295
f 381/251/296 378/249/293 379/250/294
f 379/250/294 382/190/186 381/251/296
f 382/190/186 383/191/297 381/251/296
f 381/251/296 383/191/297 384/193/298
f 378/249/293 385/252/299 380/94/295
f 378/249/293 381/251/296 385/252/299
f 381/251/296 384/193/298 385/252/299
f 386/96/300 380/94/295 385/252/299
f 387/253/301 385/252/299 384/193/298
f 387/253/301 386/96/300 385/252/299
f 388/194/302 387/253/301 384/193/298
f 387/253/301 389/254/303 386/96/300
f 387/253/301 388/194/302 389/254/303
f 389/254/303 390/100/101 386/96/300
f 390/100/101 389/254/303 391/102/304
f 389/254/303 392/255/305 391/102/304
f 388/194/302 393/256/306 389/254/303
f 389/254/303 393/256/306 392/255/305
f 388/194/302 394/195/307 393/256/306
f 393/256/306 395/198/308 392/255/305
f 394/195/307 396/196/194 393/256/306
f 393/256/306 396/196/194 395/198/308
f 399/171/169 398/170/309 397/257/195
f 398/170/309 400/258/310 397/257/195
f 400/258/310 398/170/309 401/172/311
f 402/259/312 400/258/310 401/172/311
f 403/260/196 397/257/195 400/258/310
f 400/258/310 404/261/313 403/260/196
f 402/259/312 405/262/314 400/258/310
f 405/262/314 404/261/313 400/258/310
f 404/261/313 406/263/197 403/260/196
f 405/262/314 407/264/315 404/261/313
f 404/261/313 408/265/316 406/263/197
f 407/264/315 409/266/317 404/261/313
f 410/267/304 408/265/316 404/261/313
f 404/261/313 409/266/317 410/267/304
f 409/266/317 411/268/71 410/267/304
f 414/4/318 413/269/319 412/270/87
f 415/271/320 414/4/318 412/270/87
f 414/4/318 415/271/320 416/272/84
f 418/5/5 417/4/4 416/272/84
f 419/273/321 418/5/5 416/272/84
f 422/2/322 421/1/1 420/274/323
f 422/2/322 420/274/323 423/275/324
f 420/274/323 424/276/325 423/275/324
f 423/275/324 424/276/325 425/277/326
f 426/7/327 423/275/324 425/277/326
f 426/7/327 425/277/326 427/8/328
f 430/172/329 429/168/330 428/278/331
f 431/259/332 430/172/329 428/278/331
f 434/279/333 433/280/334 432/281/335
f 433/280/334 435/282/336 432/281/335
f 435/282/336 433/280/334 436/6/337
f 432/281/335 435/282/336 437/283/338
f 438/3/339 435/282/336 436/6/337
f 435/282/336 439/284/340 437/283/338
f 440/285/148 437/283/338 439/284/340
f 441/286/149 440/285/148 439/284/340
f 441/286/149 439/284/340 442/287/341
f 435/282/336 438/3/339 443/288/342
f 438/3/339 444/2/343 443/288/342
f 444/2/343 445/275/344 443/288/342
f 445/275/344 446/7/7 443/288/342
f 446/7/7 447/9/342 443/288/342
f 447/9/342 435/282/336 443/288/342
f 439/284/340 435/282/336 447/9/342
f 448/289/345 439/284/340 447/9/342
f 439/284/340 449/289/346 442/287/341
f 450/290/347 442/287/341 449/289/346
f 451/291/348 450/290/347 449/289/346
f 449/289/346 452/9/349 451/291/348
f 452/9/349 453/8/350 451/291/348
f 454/292/167 451/291/348 453/8/350
f 455/293/166 454/292/167 453/8/350
f 455/293/166 453/8/350 456/277/351
f 456/277/351 457/276/325 455/293/166
f 455/293/166 457/276/325 458/274/323
f 458/274/323 459/1/1 455/293/166
f 461/294/312 459/1/1 460/3/352
f 462/6/353 461/294/312 460/3/352
f 463/5/354 461/294/312 462/6/353
f 466/269/355 465/4/318 464/279/356
f 465/4/318 467/280/334 464/279/356
f 468/6/357 467/280/334 465/4/318
