mtllib Beer.mtl
o Yeti_Engine_NinjaRip_Yeti_Engine_NinjaRipMesh
v 90.903610 -163.832504 0.000039
v 73.543877 -163.832520 -53.434147
v 81.564606 -148.652740 -59.257816
v 100.818192 -148.652725 0.000035
v 28.089571 -163.832520 -86.453644
v 31.153244 -148.652740 -95.882263
v -28.089571 -163.832520 -86.453644
v -31.153244 -148.652740 -95.882263
v -73.543877 -163.832520 -53.434147
v -81.564606 -148.652740 -59.257816
v -73.543877 -163.832520 -53.434147
v -90.903610 -163.832504 0.000039
v -100.818192 -148.652725 0.000035
v -81.564606 -148.652740 -59.257816
v -73.543877 -163.832489 53.434223
v -81.564606 -148.652710 59.257885
v -28.089571 -163.832489 86.453720
v -31.153244 -148.652710 95.882339
v 28.089571 -163.832489 86.453720
v 31.153244 -148.652710 95.882339
v 73.543877 -163.832489 53.434223
v 81.564606 -148.652710 59.257885
v 100.818192 -148.652725 0.000035
v 81.564606 -148.652740 -59.257816
v 81.564606 148.652710 -59.257885
v 100.818192 148.652725 -0.000035
v 31.153244 -148.652740 -95.882263
v 31.153244 148.652710 -95.882339
v -31.153244 -148.652740 -95.882263
v -31.153244 148.652710 -95.882339
v -81.564606 -148.652740 -59.257816
v -81.564606 148.652710 -59.257885
v -81.564606 -148.652740 -59.257816
v -100.818192 -148.652725 0.000035
v -100.818192 148.652725 -0.000035
v -81.564606 148.652710 -59.257885
v -81.564606 -148.652710 59.257885
v -81.564606 148.652740 59.257816
v -31.153244 -148.652710 95.882339
v -31.153244 148.652740 95.882263
v 31.153244 -148.652710 95.882339
v 31.153244 148.652740 95.882263
v 81.564606 -148.652710 59.257885
v 81.564606 148.652740 59.257816
v 100.818192 148.652725 -0.000035
v 81.564606 148.652710 -59.257885
v 73.543877 163.832489 -53.434223
v 90.903610 163.832504 -0.000039
v 31.153244 148.652710 -95.882339
v 28.089571 163.832489 -86.453720
v -31.153244 148.652710 -95.882339
v -28.089571 163.832489 -86.453720
v -81.564606 148.652710 -59.257885
v -73.543877 163.832489 -53.434223
v -81.564606 148.652710 -59.257885
v -100.818192 148.652725 -0.000035
v -90.903610 163.832504 -0.000039
v -73.543877 163.832489 -53.434223
v -81.564606 148.652740 59.257816
v -73.543877 163.832520 53.434147
v -31.153244 148.652740 95.882263
v -28.089571 163.832520 86.453644
v 31.153244 148.652740 95.882263
v 28.089571 163.832520 86.453644
v 81.564606 148.652740 59.257816
v 73.543877 163.832520 53.434147
v 28.089571 -163.832489 86.453720
v -28.089571 -163.832489 86.453720
v -73.543877 -163.832489 53.434223
v -90.903610 -163.832504 0.000039
v -73.543877 -163.832520 -53.434147
v -28.089571 -163.832520 -86.453644
v 28.089571 -163.832520 -86.453644
v 73.543877 -163.832520 -53.434147
v 90.903610 -163.832504 0.000039
v 73.543877 -163.832489 53.434223
v 73.543877 163.832489 -53.434223
v 28.089571 163.832489 -86.453720
v -28.089571 163.832489 -86.453720
v -73.543877 163.832489 -53.434223
v -90.903610 163.832504 -0.000039
v -73.543877 163.832520 53.434147
v -28.089571 163.832520 86.453644
v 28.089571 163.832520 86.453644
v 73.543877 163.832520 53.434147
v 90.903610 163.832504 -0.000039
vt 0.788086 -0.985352
vt 0.694336 -0.985352
vt 0.694336 -0.958008
vt 0.977539 -0.986328
vt 0.882813 -0.987305
vt 0.881836 -0.959961
vt 0.407227 -0.984375
vt 0.312500 -0.985352
vt 0.312500 -0.958008
vt 0.116211 -0.992188
vt 0.021484 -0.993164
vt 0.022461 -0.484375
vt 0.210938 -0.992188
vt 0.117188 -0.486328
vt 0.176758 -1.023438
vt 0.330078 -1.023438
vt 0.453125 -1.104492
vt 0.500000 -1.236328
vt 0.453125 -1.368164
vt 0.330078 -1.449219
vt 0.176758 -1.449219
vt 0.053711 -1.368164
vt 0.006836 -1.236328
vt 0.053711 -1.104492
vt 0.565430 -1.097656
vt 0.685547 -1.012695
vt 0.833008 -1.012695
vt 0.952148 -1.097656
vt 0.998047 -1.234375
vt 0.952148 -1.371094
vt 0.833008 -1.455078
vt 0.685547 -1.455078
vt 0.565430 -1.371094
vt 0.519531 -1.234375
vt 0.598633 -0.957031
vt 0.598633 -0.984375
vt 0.789063 -0.958984
vt 0.971680 -0.958984
vt 0.035156 -0.958008
vt 0.124023 -0.959961
vt 0.124023 -0.986328
vt 0.028320 -0.985352
vt 0.217773 -0.958984
vt 0.217773 -0.985352
vt 0.407227 -0.958008
vt 0.502930 -0.957031
vt 0.502930 -0.984375
vt 0.592773 -0.483398
vt 0.687500 -0.484375
vt 0.685547 -0.991211
vt 0.590820 -0.991211
vt 0.782227 -0.485352
vt 0.780273 -0.992188
vt 0.876953 -0.486328
vt 0.874023 -0.993164
vt 0.971680 -0.486328
vt 0.969727 -0.995117
vt 0.211914 -0.485352
vt 0.306641 -0.484375
vt 0.305664 -0.991211
vt 0.401367 -0.483398
vt 0.400391 -0.991211
vt 0.497070 -0.483398
vt 0.496094 -0.990234
vt 0.584961 -0.492188
vt 0.679688 -0.493164
vt 0.679688 -0.519531
vt 0.584961 -0.519531
vt 0.774414 -0.493164
vt 0.773438 -0.520508
vt 0.868164 -0.494141
vt 0.867188 -0.520508
vt 0.962891 -0.496094
vt 0.957031 -0.523438
vt 0.015625 -0.495117
vt 0.110352 -0.493164
vt 0.111328 -0.520508
vt 0.021484 -0.522461
vt 0.205078 -0.493164
vt 0.205078 -0.520508
vt 0.298828 -0.493164
vt 0.298828 -0.519531
vt 0.394531 -0.492188
vt 0.394531 -0.519531
vt 0.489258 -0.492188
vt 0.489258 -0.519531
vn 0.4993 -0.5275 -0.6873
vn -0.4993 -0.5276 -0.6872
vn 0.0000 -0.5276 0.8495
vn -0.9511 -0.0000 -0.3090
vn -0.9511 0.0000 0.3090
vn 0.0000 -1.0000 0.0000
vn 0.0000 1.0000 0.0000
vn 0.8372 -0.5468 0.0000
vn 0.6774 -0.5467 -0.4922
vn 0.6774 -0.5467 -0.4921
vn 0.2587 -0.5468 -0.7963
vn -0.2587 -0.5468 -0.7963
vn -0.4993 -0.5275 -0.6873
vn -0.8079 -0.5276 -0.2625
vn -0.8372 -0.5468 0.0000
vn -0.6774 -0.5467 0.4922
vn -0.6774 -0.5467 0.4921
vn -0.2587 -0.5468 0.7963
vn 0.2587 -0.5468 0.7963
vn 0.6773 -0.5467 0.4922
vn 0.6774 -0.5467 0.4921
vn 1.0000 0.0000 0.0000
vn 0.8090 0.0000 -0.5878
vn 0.3090 0.0000 -0.9510
vn -0.3090 0.0000 -0.9510
vn -0.5878 0.0000 -0.8090
vn -0.9510 0.0000 -0.3090
vn -1.0000 0.0000 0.0000
vn -0.8090 0.0000 0.5878
vn -0.3090 0.0000 0.9510
vn 0.3090 0.0000 0.9510
vn 0.8090 0.0000 0.5878
vn 0.8372 0.5468 0.0000
vn 0.6774 0.5467 -0.4921
vn 0.6773 0.5467 -0.4922
vn 0.2587 0.5468 -0.7963
vn -0.2587 0.5468 -0.7963
vn -0.4993 0.5275 -0.6873
vn -0.8079 0.5276 -0.2625
vn -0.8372 0.5468 0.0000
vn -0.6774 0.5467 0.4921
vn -0.6773 0.5467 0.4922
vn -0.2587 0.5468 0.7963
vn 0.2587 0.5468 0.7963
vn 0.6774 0.5467 0.4921
vn 0.6774 0.5467 0.4922
usemtl None
s off
f 6/1/1 3/2/1 2/3/1
f 10/4/2 8/5/2 7/6/2
f 20/7/3 18/8/3 17/9/3
f 35/10/4 36/11/4 33/12/4
f 38/13/5 35/10/5 34/14/5
f 67/15/6 68/16/6 69/17/6
f 69/17/6 70/18/6 71/19/6
f 71/19/6 72/20/6 73/21/6
f 73/21/6 74/22/6 75/23/6
f 71/19/6 73/21/6 75/23/6
f 69/17/6 71/19/6 75/23/6
f 67/15/6 69/17/6 75/23/6
f 76/24/6 67/15/6 75/23/6
f 77/25/7 78/26/7 79/27/7
f 79/27/7 80/28/7 81/29/7
f 81/29/7 82/30/7 83/31/7
f 83/31/7 84/32/7 85/33/7
f 81/29/7 83/31/7 85/33/7
f 79/27/7 81/29/7 85/33/7
f 77/25/7 79/27/7 85/33/7
f 86/34/7 77/25/7 85/33/7
s 1
f 1/35/8 2/3/9 3/2/10
f 3/2/10 4/36/8 1/35/8
f 2/3/9 5/37/11 6/1/11
f 5/37/11 7/6/12 8/5/12
f 8/5/12 6/1/11 5/37/11
f 7/6/12 9/38/13 10/4/13
f 11/39/14 12/40/15 13/41/15
f 13/41/15 14/42/14 11/39/14
f 12/40/15 15/43/16 16/44/17
f 16/44/17 13/41/15 12/40/15
f 15/43/16 17/9/18 18/8/18
f 18/8/18 16/44/17 15/43/16
f 17/9/18 19/45/19 20/7/19
f 19/45/19 21/46/20 22/47/21
f 22/47/21 20/7/19 19/45/19
f 21/46/20 1/35/8 4/36/8
f 4/36/8 22/47/21 21/46/20
f 23/48/22 24/49/23 25/50/23
f 25/50/23 26/51/22 23/48/22
f 24/49/23 27/52/24 28/53/24
f 28/53/24 25/50/23 24/49/23
f 27/52/24 29/54/25 30/55/25
f 30/55/25 28/53/24 27/52/24
f 29/54/25 31/56/26 32/57/26
f 32/57/26 30/55/25 29/54/25
f 33/12/27 34/14/28 35/10/28
f 34/14/28 37/58/29 38/13/29
f 37/58/29 39/59/30 40/60/30
f 40/60/30 38/13/29 37/58/29
f 39/59/30 41/61/31 42/62/31
f 42/62/31 40/60/30 39/59/30
f 41/61/31 43/63/32 44/64/32
f 44/64/32 42/62/31 41/61/31
f 43/63/32 23/48/22 26/51/22
f 26/51/22 44/64/32 43/63/32
f 45/65/33 46/66/34 47/67/35
f 47/67/35 48/68/33 45/65/33
f 46/66/34 49/69/36 50/70/36
f 50/70/36 47/67/35 46/66/34
f 49/69/36 51/71/37 52/72/37
f 52/72/37 50/70/36 49/69/36
f 51/71/37 53/73/38 54/74/38
f 54/74/38 52/72/37 51/71/37
f 55/75/39 56/76/40 57/77/40
f 57/77/40 58/78/39 55/75/39
f 56/76/40 59/79/41 60/80/42
f 60/80/42 57/77/40 56/76/40
f 59/79/41 61/81/43 62/82/43
f 62/82/43 60/80/42 59/79/41
f 61/81/43 63/83/44 64/84/44
f 64/84/44 62/82/43 61/81/43
f 63/83/44 65/85/45 66/86/46
f 66/86/46 64/84/44 63/83/44
f 65/85/45 45/65/33 48/68/33
f 48/68/33 66/86/46 65/85/45
