# 3ds Max Wavefront OBJ Exporter v0.97b - (c)2007 guruware
# File Created: 24.01.2016 17:23:56

mtllib Hotel Chair.mtl

#
# object Hotel_Chair
#

v  -19.3022 2.4451 -16.3740
v  17.8797 2.4451 -11.8544
v  17.8797 2.4451 -16.3740
v  17.7962 2.4130 13.0122
v  13.6091 2.4130 17.3147
v  13.6091 2.4130 13.0122
v  17.7963 2.4130 -16.0186
v  13.6091 2.4130 -11.7160
v  13.6091 2.4130 -16.0186
v  14.9420 2.2148 -15.9097
v  14.9420 2.5587 -12.8808
v  -14.9420 2.2148 -15.9097
v  -14.9420 2.5587 -12.8808
v  -17.9474 -35.6162 -14.8259
v  -15.3840 -35.6162 -14.8259
v  -17.9474 -35.6162 -12.5701
v  -15.3840 -35.6162 -12.5701
v  15.3840 -35.6162 -12.5701
v  15.3840 -35.6162 -14.8259
v  17.9474 -35.6162 -12.5700
v  17.9474 -35.6162 -14.8259
v  -18.0849 -15.3639 17.0080
v  -18.0849 -15.3639 13.7074
v  -14.8821 -15.3639 17.0080
v  -14.8821 -15.3639 13.7074
v  -14.8821 -10.1635 13.7074
v  -18.0849 -10.1635 13.7074
v  -14.8821 -10.1635 17.0080
v  -18.0849 -10.1635 17.0080
v  14.8821 -15.3639 13.7074
v  18.0849 -15.3639 13.7074
v  14.8821 -15.3639 17.0080
v  18.0849 -15.3639 17.0080
v  18.0849 -10.1635 17.0080
v  18.0849 -10.1635 13.7074
v  14.8821 -10.1635 17.0080
v  14.8821 -10.1635 13.7074
v  -18.0388 3.0778 16.9543
v  -18.3894 3.9228 14.2526
v  -17.3171 2.8284 17.7806
v  -16.0291 2.8284 17.7806
v  -14.9491 20.4362 -14.6744
v  -14.9491 17.6317 -13.7812
v  -18.3894 20.5127 -14.6692
v  -18.3894 17.6317 -13.7812
v  -18.3894 13.6599 -11.5772
v  -14.9491 13.6598 -11.5772
v  -18.3894 9.7160 -8.6622
v  -14.9491 9.7160 -8.6622
v  -18.3894 7.0756 -5.2574
v  -14.9491 7.0756 -5.2573
v  -18.3894 5.2169 -0.6178
v  -14.9491 5.2169 -0.6178
v  -18.3894 4.3179 11.0559
v  -14.9491 4.3179 11.0559
v  -14.9491 3.9228 14.2526
v  -15.3075 3.0778 16.9543
v  17.3171 2.8284 17.7806
v  16.0291 2.8284 17.7806
v  14.9491 3.9228 14.2526
v  15.3075 3.0778 16.9544
v  18.0387 3.0778 16.9544
v  18.3894 3.9228 14.2526
v  14.9491 4.3179 11.0559
v  18.3894 4.3179 11.0559
v  14.9491 5.2169 -0.6178
v  18.3894 5.2169 -0.6178
v  14.9491 7.0756 -5.2573
v  18.3894 7.0756 -5.2573
v  14.9491 9.7160 -8.6622
v  18.3894 9.7160 -8.6622
v  14.9491 13.6598 -11.5772
v  18.3894 13.6598 -11.5772
v  14.9491 17.6317 -13.7812
v  18.3894 17.6317 -13.7812
v  18.3894 20.5127 -14.6691
v  14.9491 20.4362 -14.6744
v  -0.0000 -3.9044 2.3821
v  12.2899 -4.7681 -8.8022
v  0.0000 -4.7681 -10.3823
v  15.9479 -4.7681 3.5200
v  18.2059 -5.9442 3.5200
v  15.6279 -4.7681 -3.3478
v  17.9949 -5.9442 -3.6260
v  14.9035 -5.9442 -11.8251
v  0.0000 -5.9442 -12.9913
v  -12.2898 -4.7681 -8.8023
v  -15.6279 -4.7681 -3.3478
v  -15.9479 -4.7681 3.5199
v  -14.1865 -4.7528 11.3962
v  -7.3285 -4.7681 15.1428
v  -0.0000 -4.7681 16.0488
v  7.3285 -4.7681 15.1428
v  14.1865 -4.7528 11.3962
v  17.9089 -5.9442 11.5512
v  15.3134 -6.8841 13.9089
v  13.0017 -5.9442 15.4088
v  8.1394 -5.9442 17.4463
v  -0.0000 -5.9442 18.0086
v  -8.1395 -5.9442 17.4463
v  -13.0017 -5.9442 15.4088
v  -15.3135 -6.8841 13.9089
v  -17.9089 -5.9442 11.5511
v  -18.2059 -5.9442 3.5199
v  -17.9949 -5.9442 -3.6260
v  8.4349 -7.6013 18.6700
v  -0.0000 -7.6013 19.3372
v  -8.4349 -7.6013 18.6700
v  -13.7064 -7.6013 16.8654
v  -16.2861 -7.6013 15.3303
v  -18.7921 -7.6013 11.9401
v  -19.3004 -7.6013 3.5199
v  -19.1115 -7.6013 -3.6260
v  -14.9035 -5.9442 -11.8251
v  -18.2125 -7.6014 -11.9604
v  -14.7123 -7.6014 -15.2576
v  6.6955 -10.8339 18.7810
v  -0.0000 -10.8339 18.8354
v  -6.6956 -10.8339 18.7809
v  -10.3966 -10.8339 18.2251
v  -13.9130 -10.8339 16.8673
v  -16.8239 -10.8339 15.2023
v  -18.1508 -10.8339 12.4138
v  -18.6602 -10.8339 -0.0530
v  -18.1508 -10.8339 -12.1670
v  -14.7673 -10.8339 -15.2584
v  -0.0000 -11.8551 18.3199
v  -6.6956 -11.8551 18.2493
v  -10.5462 -11.8551 17.5373
v  -13.7737 -11.8551 16.2532
v  -15.8496 -11.8551 14.6384
v  -17.6944 -11.8551 12.4154
v  -17.6944 -11.8551 -12.7156
v  -15.2123 -11.8551 -14.7892
v  0.0000 -10.8339 -15.5176
v  6.6955 -11.8551 18.2493
v  10.5461 -11.8551 17.5373
v  10.3966 -10.8339 18.2251
v  13.7737 -11.8551 16.2532
v  13.9130 -10.8339 16.8673
v  15.8495 -11.8551 14.6384
v  16.8238 -10.8339 15.2024
v  18.1508 -10.8339 12.4138
v  17.6944 -11.8551 12.4155
v  18.6602 -10.8339 -0.0530
v  17.6944 -11.8551 -12.7155
v  18.1508 -10.8339 -12.1670
v  14.7673 -10.8339 -15.2584
v  15.2123 -11.8551 -14.7892
v  15.2875 -14.0620 -14.7892
v  -15.2875 -14.0620 -14.7892
v  13.7063 -7.6013 16.8654
v  16.2861 -7.6013 15.3303
v  18.7920 -7.6013 11.9401
v  19.3003 -7.6013 3.5200
v  19.1115 -7.6014 -3.6260
v  18.2125 -7.6014 -11.9604
v  14.7123 -7.6014 -15.2576
v  0.0000 -7.6014 -15.5168
v  -18.1766 25.1408 -13.9179
v  -15.1574 18.9490 -11.8768
v  -15.1574 25.2525 -13.9654
v  -18.1766 11.9394 -7.1399
v  -18.1766 15.1784 -9.7576
v  -18.1766 18.9490 -11.8768
v  -18.3202 35.5703 -16.3759
v  -15.3657 35.6162 -16.1866
v  -14.9435 30.6728 -15.6839
v  -15.1574 15.1784 -9.7576
v  -15.1574 11.9394 -7.1399
v  -15.1574 9.4891 -4.1266
v  -15.1207 7.9108 -0.0259
v  -15.1223 7.0680 11.0718
v  -18.2702 7.9108 -0.0259
v  -18.2335 9.4891 -4.1266
v  -18.2289 7.0680 11.0718
v  -18.1223 6.3777 14.6224
v  -17.7748 4.9690 17.2987
v  -15.2201 6.3777 14.6224
v  -15.5714 4.9690 17.2987
v  -16.0291 3.9716 18.1275
v  -17.3171 3.9716 18.1275
v  15.1574 25.2525 -13.9654
v  18.1766 18.9490 -11.8768
v  18.1766 25.1408 -13.9179
v  18.1766 11.9394 -7.1399
v  18.1766 15.1784 -9.7576
v  18.4154 35.5703 -16.3759
v  15.3657 35.6162 -16.1866
v  14.9435 30.6728 -15.6839
v  15.1574 18.9490 -11.8768
v  15.1574 15.1784 -9.7576
v  15.1574 11.9394 -7.1399
v  15.1574 9.4891 -4.1266
v  15.1373 7.9108 -0.0259
v  15.0502 7.0680 11.0718
v  18.2536 7.9108 -0.0259
v  18.2335 9.4891 -4.1266
v  18.2153 7.0680 11.0718
v  18.1469 6.3777 14.6225
v  17.7517 4.9690 17.2987
v  15.1954 6.3777 14.6225
v  15.5945 4.9690 17.2987
v  16.0291 3.9716 18.1275
v  17.3171 3.9716 18.1275
v  -18.3894 2.2148 -15.9097
v  -18.3894 35.0437 -19.3372
v  18.3894 35.0437 -19.3372
v  18.3894 2.2148 -15.9097
v  -13.4665 32.0642 -15.8197
v  13.4666 32.0642 -15.8197
v  12.7244 31.4833 -14.7005
v  -12.7244 31.4833 -14.7005
v  0.0000 20.5410 -12.0520
v  12.9603 6.3283 -12.1949
v  -12.9603 6.3283 -12.1949
v  -14.1998 30.0921 -14.5619
v  -14.1998 7.4971 -12.3113
v  14.9425 6.6773 -13.2921
v  14.1998 7.4971 -12.3113
v  13.7025 5.5092 -13.1747
v  -13.7025 5.5092 -13.1747
v  -14.9425 6.6774 -13.2921
v  -18.3894 2.5587 -12.8808
v  18.3894 2.5587 -12.8808
v  14.1998 30.0921 -14.5619
v  -18.9893 -6.4600 15.3222
v  -18.3110 -6.4597 16.9601
v  -17.9897 -5.1853 16.6388
v  -16.6731 -5.1957 17.2033
v  -16.6731 -6.4593 17.6385
v  -16.3771 -3.4842 14.6076
v  -16.3717 -4.4893 14.5946
v  -17.4008 -4.4893 15.0208
v  -17.9897 -5.1853 14.0057
v  -18.5146 -5.1742 15.3222
v  -18.3110 -6.4597 13.6844
v  -17.9578 -9.8435 14.7901
v  -17.2053 -9.8435 16.6069
v  -15.3884 -9.8435 15.8544
v  -15.0353 -6.4597 16.9601
v  -15.3566 -5.1853 16.6388
v  -16.9745 -4.4893 16.0498
v  -16.6731 -6.4593 13.0059
v  -16.6731 -5.1957 13.4411
v  -15.3565 -5.1853 14.0057
v  -15.0353 -6.4597 13.6844
v  -16.1410 -9.8435 14.0375
v  -14.3569 -6.4600 15.3222
v  -14.8317 -5.1742 15.3222
v  -15.9455 -4.4893 15.6236
v  -16.9691 -3.4842 16.0368
v  -15.9585 -3.4842 15.6182
v  -16.6731 -2.7804 16.8465
v  -15.5953 -2.7804 16.4001
v  -15.1488 -2.7804 15.3222
v  -15.3479 0.0930 16.6474
v  -14.7990 0.0929 15.3222
v  -15.5953 -2.7804 14.2443
v  -15.3479 0.0930 13.9970
v  -15.6042 0.7234 14.2533
v  -15.1747 0.7302 15.3222
v  -16.6731 -2.7804 13.7979
v  -16.6731 0.0931 13.4481
v  -16.6731 0.7170 13.7981
v  -15.9790 0.9957 14.6281
v  -16.6731 0.9957 14.3406
v  -15.9823 4.2366 14.6314
v  -16.6731 4.2366 14.3452
v  -15.6915 0.9957 15.3222
v  -15.9790 0.9957 16.0163
v  -15.6042 0.7234 16.3911
v  -16.6731 0.9957 16.3038
v  -16.6731 0.7170 16.8463
v  -16.6731 0.0931 17.1963
v  -17.9983 0.0930 16.6474
v  -17.7420 0.7234 16.3911
v  -17.3672 0.9957 16.0163
v  -15.6961 4.2366 15.3222
v  -15.9823 4.2366 16.0131
v  -16.6731 4.2366 16.2993
v  -17.3640 4.2366 16.0131
v  -17.6502 4.2366 15.3222
v  -17.6547 0.9957 15.3222
v  -17.3640 4.2366 14.6314
v  -17.3672 0.9957 14.6281
v  -17.7420 0.7234 14.2533
v  -18.1715 0.7302 15.3222
v  -17.9983 0.0930 13.9970
v  -18.5473 0.0929 15.3222
v  -17.7510 -2.7804 16.4001
v  -18.1975 -2.7804 15.3222
v  -17.7510 -2.7804 14.2443
v  -17.3877 -3.4842 15.0262
v  18.5146 -5.1742 15.3222
v  18.3110 -6.4597 13.6844
v  17.9897 -5.1853 14.0057
v  16.6731 -6.4593 13.0059
v  16.6731 -5.1957 13.4411
v  16.6731 0.7170 13.7981
v  17.7420 0.7234 14.2533
v  16.6731 0.0931 13.4481
v  17.9983 0.0930 13.9971
v  17.7510 -2.7804 14.2444
v  16.6731 -2.7804 13.7979
v  17.3877 -3.4842 15.0262
v  16.3771 -3.4842 14.6076
v  17.4007 -4.4893 15.0208
v  16.3717 -4.4893 14.5946
v  15.3565 -5.1853 14.0057
v  15.0353 -6.4597 13.6844
v  16.1410 -9.8435 14.0375
v  17.9578 -9.8435 14.7901
v  18.9893 -6.4600 15.3222
v  17.2053 -9.8435 16.6070
v  15.9585 -3.4842 15.6182
v  15.9455 -4.4893 15.6236
v  16.9691 -3.4842 16.0368
v  16.9745 -4.4893 16.0499
v  17.9897 -5.1853 16.6388
v  16.6731 -5.1957 17.2034
v  15.3565 -5.1853 16.6388
v  14.8316 -5.1742 15.3222
v  18.3110 -6.4597 16.9601
v  16.6731 -6.4593 17.6386
v  15.3884 -9.8435 15.8544
v  15.0353 -6.4597 16.9601
v  14.3569 -6.4600 15.3222
v  15.3479 0.0930 13.9971
v  15.5952 -2.7804 14.2444
v  14.7990 0.0929 15.3222
v  15.1488 -2.7804 15.3222
v  15.6042 0.7234 14.2533
v  15.1747 0.7302 15.3222
v  15.3479 0.0930 16.6474
v  15.6042 0.7234 16.3911
v  16.6731 0.0931 17.1963
v  16.6731 0.7170 16.8463
v  17.9983 0.0930 16.6474
v  17.7420 0.7234 16.3911
v  16.6731 0.9957 14.3406
v  15.9790 0.9957 14.6281
v  15.6915 0.9957 15.3222
v  15.9790 0.9957 16.0163
v  16.6731 0.9957 16.3039
v  17.3672 0.9957 16.0163
v  17.6547 0.9957 15.3222
v  18.1715 0.7302 15.3222
v  17.3672 0.9957 14.6281
v  18.5473 0.0929 15.3222
v  16.6731 4.2366 14.3452
v  15.9822 4.2366 14.6314
v  15.6961 4.2366 15.3222
v  15.9822 4.2366 16.0131
v  16.6731 4.2366 16.2993
v  17.3640 4.2366 16.0131
v  17.6502 4.2366 15.3222
v  17.3640 4.2366 14.6314
v  -17.7558 -35.6162 15.3222
v  -17.4387 -35.6162 14.5567
v  -17.4387 -35.6162 16.0878
v  -16.6731 -35.6162 16.4049
v  -16.6731 -35.6162 14.2396
v  -15.9076 -35.6162 16.0878
v  -15.9076 -35.6162 14.5567
v  -15.5905 -35.6162 15.3222
v  -15.8937 -14.0620 14.6273
v  -17.6944 -14.0620 12.5233
v  -17.6944 -14.0620 -12.7156
v  17.7558 -35.6162 15.3222
v  17.4387 -35.6162 16.0878
v  17.4387 -35.6162 14.5567
v  16.6731 -35.6162 16.4049
v  16.6731 -35.6162 14.2396
v  15.9076 -35.6162 16.0878
v  15.9076 -35.6162 14.5567
v  15.5905 -35.6162 15.3222
v  15.8937 -14.0620 14.6273
v  17.6944 -14.0620 12.5234
v  17.6944 -14.0620 -12.7155
v  -16.3167 -15.6517 14.4617
v  -17.5336 -15.6517 14.9658
v  -17.0296 -15.6517 16.1827
v  -15.8126 -15.6517 15.6787
v  16.3167 -15.6517 14.4617
v  17.5336 -15.6517 14.9658
v  17.0295 -15.6517 16.1828
v  15.8126 -15.6517 15.6787
v  -17.5479 -18.3107 16.1969
v  -17.9102 -18.3107 15.3222
v  -17.9625 -19.3701 16.6117
v  -18.4966 -19.3701 15.3222
v  -17.5479 -18.3107 14.4475
v  -17.9625 -19.3701 14.0328
v  -16.6731 -18.3107 14.0852
v  -16.6731 -19.3701 13.4987
v  -14.8496 -19.3701 15.3222
v  -15.3837 -19.3701 16.6117
v  -16.6731 -19.3701 17.1457
v  -15.3837 -19.3701 14.0328
v  -15.7984 -18.3107 14.4475
v  -15.4128 -16.8212 14.0619
v  -16.6731 -16.8212 13.5399
v  -16.6731 -18.3107 16.5593
v  -15.7984 -18.3107 16.1969
v  -15.4361 -18.3107 15.3222
v  -15.4128 -16.8212 16.5825
v  -14.8908 -16.8212 15.3222
v  -16.6731 -16.8212 17.1045
v  -17.9334 -16.8212 16.5825
v  -18.4555 -16.8212 15.3222
v  -17.9334 -16.8212 14.0619
v  -15.0501 -8.1460 -15.3189
v  -18.2812 -8.1460 -15.3189
v  -18.2812 -7.9409 -12.4755
v  -15.0501 -7.9409 -12.4755
v  15.0502 -8.1460 -15.3189
v  18.2812 -8.1460 -15.3189
v  18.2812 -7.9409 -12.4755
v  15.0502 -7.9409 -12.4755
v  13.8128 -14.0620 16.2460
v  10.4943 -14.0620 17.5373
v  6.6955 -14.0620 18.2493
v  -0.0000 -14.0620 18.4606
v  -6.6956 -14.0620 18.2493
v  -10.4944 -14.0620 17.5373
v  -13.8129 -14.0620 16.2460
v  15.7984 -18.3107 14.4475
v  15.4128 -16.8212 14.0620
v  16.6731 -18.3107 14.0852
v  16.6731 -16.8212 13.5399
v  17.9334 -16.8212 14.0620
v  18.4554 -16.8212 15.3222
v  17.9334 -16.8212 16.5825
v  16.6731 -16.8212 17.1046
v  15.4128 -16.8212 16.5825
v  14.8908 -16.8212 15.3222
v  16.6731 -19.3701 13.4987
v  17.9625 -19.3701 14.0328
v  17.5478 -18.3107 14.4475
v  17.9102 -18.3107 15.3222
v  17.5478 -18.3107 16.1970
v  16.6731 -18.3107 16.5593
v  15.7984 -18.3107 16.1970
v  15.4361 -18.3107 15.3222
v  18.4966 -19.3701 15.3222
v  17.9625 -19.3701 16.6117
v  16.6731 -19.3701 17.1457
v  15.3837 -19.3701 16.6117
v  14.8496 -19.3701 15.3222
v  15.3837 -19.3701 14.0328
v  15.5952 -2.7804 16.4001
v  16.6731 -2.7804 16.8466
v  17.7510 -2.7804 16.4001
v  18.1975 -2.7804 15.3222
# 455 vertices

vn -0.0000 1.0000 -0.0000
vn -0.0000 -1.0000 -0.0000
vn 0.0000 -1.0000 0.0000
vn -0.3137 -0.3842 -0.8683
vn -0.2861 -0.2302 0.9301
vn 0.3137 -0.3842 -0.8683
vn 0.2861 -0.2302 0.9301
vn -0.5744 -0.5852 -0.5723
vn 0.5744 -0.5852 -0.5723
vn -0.5737 -0.5814 0.5769
vn 0.5737 -0.5814 0.5769
vn -0.0000 -1.0000 0.0000
vn 0.0000 1.0000 -0.0000
vn -0.0000 0.0000 1.0000
vn -1.0000 0.0000 -0.0000
vn 0.0000 -0.0000 -1.0000
vn 1.0000 0.0000 0.0000
vn 1.0000 -0.0000 0.0000
vn -1.0000 -0.0000 -0.0000
vn -0.7380 -0.6599 0.1408
vn -0.7780 -0.6237 -0.0753
vn -0.3746 -0.7816 0.4987
vn 0.3309 -0.8035 0.4949
vn 0.1562 -0.0285 0.9873
vn 0.7153 -0.2747 -0.6425
vn -0.9976 -0.0362 0.0584
vn -0.7157 -0.2730 -0.6428
vn -0.7229 -0.3726 -0.5818
vn 0.7223 -0.3730 -0.5824
vn -0.7041 -0.4956 -0.5085
vn 0.7036 -0.4960 -0.5088
vn -0.6967 -0.6202 -0.3605
vn 0.7019 -0.6170 -0.3558
vn -0.6893 -0.7058 -0.1635
vn 0.6951 -0.7001 -0.1632
vn -0.7366 -0.6738 -0.0591
vn 0.7345 -0.6753 -0.0676
vn 0.7753 -0.6280 -0.0672
vn 0.7391 -0.6662 0.0990
vn 0.3769 -0.7804 0.4989
vn -0.3309 -0.8035 0.4949
vn -0.7719 -0.6328 -0.0615
vn -0.7423 -0.6628 0.0986
vn 0.7411 -0.6561 0.1425
vn 0.7759 -0.6267 -0.0721
vn -0.7261 -0.6840 -0.0708
vn 0.7371 -0.6729 -0.0616
vn -0.6971 -0.6983 -0.1628
vn 0.6913 -0.7039 -0.1632
vn -0.7023 -0.6170 -0.3549
vn 0.6972 -0.6202 -0.3596
vn -0.7036 -0.4960 -0.5088
vn 0.7041 -0.4956 -0.5085
vn -0.7223 -0.3730 -0.5824
vn 0.7229 -0.3726 -0.5818
vn -0.7153 -0.2747 -0.6425
vn 0.7157 -0.2730 -0.6428
vn 0.9976 -0.0367 0.0585
vn -0.1562 -0.0285 0.9873
vn 0.0000 1.0000 -0.0015
vn 0.1181 0.9768 -0.1784
vn 0.0000 0.9665 -0.2565
vn 0.2802 0.9596 0.0253
vn 0.6625 0.7489 0.0158
vn 0.2731 0.9577 -0.0911
vn 0.6537 0.7427 -0.1448
vn 0.2634 0.9164 -0.3015
vn 0.0000 0.8779 -0.4788
vn -0.1181 0.9768 -0.1784
vn -0.2731 0.9577 -0.0911
vn -0.2802 0.9596 0.0253
vn -0.2243 0.9525 0.2061
vn -0.0668 0.9625 0.2631
vn -0.0000 0.9494 0.3139
vn 0.0668 0.9625 0.2631
vn 0.2243 0.9525 0.2061
vn 0.5833 0.7348 0.3461
vn 0.3944 0.8135 0.4275
vn 0.3551 0.7979 0.4870
vn 0.1528 0.7629 0.6282
vn -0.0000 0.7550 0.6558
vn -0.1528 0.7629 0.6282
vn -0.3551 0.7979 0.4870
vn -0.3944 0.8135 0.4275
vn -0.5833 0.7348 0.3461
vn -0.6625 0.7489 0.0158
vn -0.6537 0.7427 -0.1448
vn 0.1829 0.3168 0.9307
vn -0.0000 0.2508 0.9681
vn -0.1829 0.3168 0.9307
vn -0.4227 0.4180 0.8041
vn -0.5451 0.5547 0.6286
vn -0.9088 0.2393 0.3419
vn -0.9838 0.1784 0.0169
vn -0.9660 0.2405 -0.0953
vn -0.2634 0.9164 -0.3015
vn -0.7992 0.4744 -0.3691
vn -0.3104 0.4776 -0.8219
vn 0.0704 -0.2366 0.9690
vn -0.0000 -0.2852 0.9585
vn -0.0704 -0.2366 0.9690
vn -0.2523 -0.2598 0.9321
vn -0.4331 -0.2626 0.8622
vn -0.6771 -0.3594 0.6422
vn -0.9133 -0.3023 0.2729
vn -0.8960 -0.4439 -0.0074
vn -0.9162 -0.1330 -0.3779
vn -0.3168 -0.1451 -0.9373
vn -0.0000 -0.2079 0.9782
vn -0.0949 -0.2398 0.9662
vn -0.2706 -0.2716 0.9236
vn -0.4815 -0.2656 0.8352
vn -0.6490 -0.3610 0.6697
vn -0.9128 -0.2031 0.3544
vn -0.8692 -0.0531 -0.4916
vn -0.3955 -0.1064 -0.9123
vn 0.0000 -0.2994 -0.9541
vn 0.0949 -0.2398 0.9662
vn 0.2706 -0.2716 0.9236
vn 0.2523 -0.2598 0.9321
vn 0.4815 -0.2656 0.8352
vn 0.4331 -0.2626 0.8622
vn 0.6490 -0.3610 0.6697
vn 0.6771 -0.3594 0.6422
vn 0.9133 -0.3023 0.2729
vn 0.9128 -0.2030 0.3544
vn 0.8960 -0.4439 -0.0074
vn 0.8692 -0.0531 -0.4916
vn 0.9162 -0.1330 -0.3779
vn 0.3168 -0.1451 -0.9373
vn 0.3955 -0.1064 -0.9123
vn 0.2749 -0.6320 -0.7246
vn -0.2749 -0.6320 -0.7246
vn 0.4227 0.4180 0.8041
vn 0.5451 0.5547 0.6286
vn 0.9088 0.2393 0.3419
vn 0.9838 0.1784 0.0169
vn 0.9660 0.2405 -0.0953
vn 0.7992 0.4744 -0.3691
vn 0.3104 0.4776 -0.8219
vn 0.0000 0.4820 -0.8762
vn -0.6633 0.1885 0.7242
vn 0.6952 0.2890 0.6581
vn 0.6578 0.1815 0.7310
vn -0.7005 0.5039 0.5053
vn -0.6930 0.4043 0.5969
vn -0.6944 0.2890 0.6591
vn -0.5902 0.6811 0.4334
vn 0.0047 0.8134 0.5817
vn 0.2427 0.3263 0.9136
vn 0.6937 0.4039 0.5963
vn 0.7013 0.5023 0.5059
vn 0.7137 0.6073 0.3489
vn 0.7179 0.6793 0.1524
vn 0.6720 0.7335 0.1015
vn -0.7255 0.6712 0.1520
vn -0.7231 0.6021 0.3385
vn -0.6763 0.7288 0.1071
vn -0.6474 0.7077 0.2829
vn -0.6035 0.5450 0.5821
vn 0.6426 0.7094 0.2894
vn 0.5998 0.5593 0.5723
vn 0.3895 0.1455 0.9095
vn -0.4567 0.1231 0.8811
vn -0.6577 0.1812 0.7312
vn 0.6942 0.2894 0.6591
vn 0.6552 0.1848 0.7325
vn 0.7005 0.5039 0.5053
vn 0.6930 0.4043 0.5969
vn 0.6004 0.6767 0.4260
vn -0.0054 0.8135 0.5816
vn -0.2427 0.3263 0.9136
vn -0.6951 0.2894 0.6581
vn -0.6937 0.4039 0.5963
vn -0.7013 0.5023 0.5059
vn -0.7141 0.6063 0.3499
vn -0.7156 0.6816 0.1530
vn -0.6829 0.7237 0.0994
vn 0.7232 0.6735 0.1528
vn 0.7235 0.6010 0.3395
vn 0.6736 0.7317 0.1043
vn 0.6523 0.7026 0.2842
vn 0.5985 0.5486 0.5838
vn -0.6449 0.7043 0.2967
vn -0.5945 0.5637 0.5734
vn -0.3929 0.1474 0.9077
vn 0.4643 0.1240 0.8769
vn -0.7136 -0.0601 -0.6979
vn -0.5876 0.4894 -0.6444
vn 0.5793 0.4884 -0.6526
vn 0.7136 -0.0601 -0.6979
vn -0.1373 0.3852 0.9126
vn 0.1373 0.3852 0.9126
vn 0.1607 0.5780 0.8000
vn -0.1607 0.5780 0.8000
vn -0.0000 0.1112 0.9938
vn 0.1569 -0.3991 0.9034
vn -0.1569 -0.3991 0.9034
vn -0.4676 0.2446 0.8494
vn -0.4667 -0.0688 0.8817
vn 0.2747 -0.0398 0.9607
vn 0.4667 -0.0688 0.8817
vn 0.1336 -0.1914 0.9724
vn -0.1336 -0.1914 0.9724
vn -0.2747 -0.0398 0.9607
vn -0.7014 0.0457 0.7113
vn 0.7014 0.0457 0.7113
vn 0.4676 0.2446 0.8494
vn -0.9996 0.0234 0.0155
vn -0.7195 0.0184 0.6943
vn -0.5784 0.5952 0.5578
vn 0.0115 0.5890 0.8081
vn 0.0178 0.0157 0.9997
vn 0.3119 -0.5794 -0.7530
vn 0.2801 0.6814 -0.6761
vn -0.6767 0.6809 -0.2802
vn -0.5656 0.5933 -0.5728
vn -0.8001 0.5998 0.0084
vn -0.6960 0.0207 -0.7178
vn -0.8915 -0.2623 -0.3693
vn -0.3693 -0.2623 0.8915
vn 0.8915 -0.2623 0.3693
vn 0.6959 0.0207 0.7178
vn 0.5656 0.5933 0.5728
vn -0.2801 0.6814 0.6761
vn -0.0178 0.0157 -0.9997
vn -0.0115 0.5890 -0.8081
vn 0.5784 0.5952 -0.5578
vn 0.7195 0.0184 -0.6943
vn 0.3693 -0.2623 -0.8915
vn 0.9996 0.0235 -0.0155
vn 0.8001 0.5998 -0.0083
vn 0.6767 0.6809 0.2802
vn -0.3119 -0.5794 0.7530
vn 0.7530 -0.5794 0.3119
vn 0.0163 -0.4395 0.8981
vn 0.6235 -0.4395 0.6466
vn 0.8981 -0.4395 -0.0163
vn 0.6954 0.1863 0.6941
vn 0.9819 0.1894 0.0009
vn 0.6466 -0.4395 -0.6235
vn 0.6956 0.1847 -0.6943
vn 0.5131 0.6910 -0.5093
vn 0.7188 0.6952 0.0016
vn -0.0163 -0.4395 -0.8981
vn -0.0008 0.1816 -0.9834
vn -0.0016 0.6855 -0.7281
vn 0.5722 0.5875 -0.5722
vn 0.0000 0.5875 -0.8092
vn 0.7071 0.0014 -0.7071
vn 0.0000 0.0014 -1.0000
vn 0.8092 0.5875 0.0000
vn 0.5722 0.5875 0.5722
vn 0.5141 0.6895 0.5101
vn 0.0000 0.5875 0.8092
vn 0.0016 0.6855 0.7281
vn 0.0008 0.1816 0.9834
vn -0.6955 0.1846 0.6944
vn -0.5130 0.6910 0.5093
vn -0.5722 0.5875 0.5722
vn 1.0000 0.0014 -0.0000
vn 0.7071 0.0014 0.7071
vn 0.0000 0.0014 1.0000
vn -0.7071 0.0014 0.7071
vn -1.0000 0.0014 -0.0000
vn -0.8092 0.5875 -0.0000
vn -0.7071 0.0014 -0.7071
vn -0.5722 0.5875 -0.5722
vn -0.5141 0.6895 -0.5101
vn -0.7188 0.6952 -0.0016
vn -0.6954 0.1863 -0.6941
vn -0.9819 0.1894 -0.0009
vn -0.6466 -0.4395 0.6235
vn -0.8981 -0.4395 0.0163
vn -0.6235 -0.4395 -0.6466
vn -0.7530 -0.5794 -0.3119
vn 0.8001 0.5998 0.0084
vn 0.6960 0.0207 -0.7178
vn 0.5656 0.5933 -0.5728
vn 0.0178 0.0157 -0.9997
vn 0.0115 0.5890 -0.8081
vn 0.0016 0.6855 -0.7281
vn 0.5141 0.6895 -0.5101
vn 0.0008 0.1816 -0.9834
vn 0.6954 0.1863 -0.6941
vn 0.6235 -0.4395 -0.6466
vn 0.0163 -0.4395 -0.8981
vn 0.7530 -0.5794 -0.3119
vn -0.3119 -0.5794 -0.7530
vn 0.6767 0.6809 -0.2802
vn -0.2801 0.6814 -0.6761
vn -0.5784 0.5952 -0.5578
vn -0.7195 0.0184 -0.6943
vn -0.3693 -0.2623 -0.8915
vn 0.8915 -0.2623 -0.3693
vn 0.9996 0.0234 0.0155
vn 0.3693 -0.2623 0.8915
vn -0.7530 -0.5794 0.3119
vn -0.6767 0.6809 0.2802
vn 0.3119 -0.5794 0.7530
vn 0.2801 0.6814 0.6761
vn 0.5784 0.5952 0.5578
vn -0.0115 0.5890 0.8081
vn -0.5656 0.5933 0.5728
vn -0.8001 0.5998 -0.0083
vn 0.7195 0.0184 0.6943
vn -0.0178 0.0157 0.9997
vn -0.8915 -0.2623 0.3693
vn -0.6959 0.0207 0.7178
vn -0.9996 0.0235 -0.0155
vn -0.6955 0.1847 -0.6943
vn -0.6466 -0.4395 -0.6235
vn -0.9819 0.1894 0.0009
vn -0.8981 -0.4395 -0.0163
vn -0.5131 0.6910 -0.5093
vn -0.7188 0.6952 0.0016
vn -0.6954 0.1863 0.6941
vn -0.5141 0.6895 0.5101
vn -0.0008 0.1816 0.9834
vn -0.0016 0.6855 0.7281
vn 0.6955 0.1846 0.6944
vn 0.5130 0.6910 0.5093
vn -0.0000 0.5875 -0.8092
vn -0.0000 0.5875 0.8092
vn 0.7188 0.6952 -0.0016
vn 0.9819 0.1894 -0.0009
vn -0.0000 0.0014 -1.0000
vn -0.0000 0.0014 1.0000
vn -0.7622 -0.6473 -0.0000
vn -0.5390 -0.6473 -0.5390
vn -0.5390 -0.6473 0.5390
vn 0.0000 -0.6473 0.7622
vn 0.0000 -0.6473 -0.7622
vn 0.5390 -0.6473 0.5390
vn 0.5390 -0.6473 -0.5390
vn 0.7622 -0.6473 -0.0000
vn -0.5092 -0.6799 0.5276
vn -0.7255 -0.6302 0.2764
vn -0.7096 -0.6228 -0.3293
vn -0.0000 -0.6473 0.7622
vn -0.0000 -0.6473 -0.7622
vn 0.5092 -0.6799 0.5276
vn 0.7255 -0.6302 0.2764
vn 0.7096 -0.6228 -0.3293
vn 0.3437 0.4395 -0.8299
vn -0.8299 0.4395 -0.3437
vn -0.3437 0.4395 0.8299
vn 0.8299 0.4395 0.3437
vn -0.3437 0.4395 -0.8299
vn 0.8299 0.4395 -0.3437
vn 0.3437 0.4395 0.8299
vn -0.8299 0.4395 0.3437
vn -0.7045 0.0864 0.7045
vn -0.9963 0.0864 -0.0000
vn -0.6906 0.2145 0.6906
vn -0.9767 0.2145 -0.0000
vn -0.7045 0.0864 -0.7045
vn -0.6906 0.2145 -0.6906
vn 0.0000 0.0864 -0.9963
vn 0.0000 0.2145 -0.9767
vn 0.9767 0.2145 -0.0000
vn 0.6906 0.2145 0.6906
vn -0.0000 0.2145 0.9767
vn 0.6906 0.2145 -0.6906
vn 0.7045 0.0864 -0.7045
vn 0.7139 0.1455 -0.6850
vn -0.0204 0.1455 -0.9891
vn 0.0000 0.0864 0.9963
vn 0.7045 0.0864 0.7045
vn 0.9963 0.0864 -0.0000
vn 0.6850 0.1455 0.7139
vn 0.9891 0.1455 -0.0204
vn 0.0204 0.1455 0.9891
vn -0.7139 0.1455 0.6850
vn -0.9891 0.1455 0.0204
vn -0.6850 0.1455 -0.7139
vn 0.7118 -0.0344 -0.7015
vn -0.7118 -0.0344 -0.7015
vn -0.7023 0.0048 0.7118
vn 0.7023 0.0048 0.7118
vn 0.3657 -0.6738 0.6421
vn 0.1999 -0.6884 0.6972
vn 0.0719 -0.6883 0.7219
vn -0.0000 -0.6770 0.7360
vn -0.0719 -0.6883 0.7219
vn -0.1999 -0.6884 0.6972
vn -0.3657 -0.6738 0.6421
vn -0.7139 0.1455 -0.6850
vn -0.0000 0.0864 -0.9963
vn 0.0204 0.1455 -0.9891
vn 0.6850 0.1455 -0.7139
vn 0.9891 0.1455 0.0204
vn 0.7139 0.1455 0.6850
vn -0.0204 0.1455 0.9891
vn -0.6850 0.1455 0.7139
vn -0.9891 0.1455 -0.0204
vn -0.0000 0.2145 -0.9767
vn -0.0000 0.0864 0.9963
vn 0.6906 0.2145 0.6907
vn -0.6235 -0.4395 0.6466
vn -0.0163 -0.4395 0.8981
vn 0.6466 -0.4395 0.6235
vn 0.8981 -0.4395 0.0163
# 403 vertex normals

vt 0.7693 0.0510 0.0000
vt 0.7693 0.0737 0.0000
vt 0.9924 0.0510 0.0000
vt 0.9924 0.0737 0.0000
vt 0.4497 0.7468 0.0000
vt 0.4095 0.7468 0.0000
vt 0.4497 0.7821 0.0000
vt 0.4095 0.7821 0.0000
vt 0.5024 0.7856 0.0000
vt 0.5024 0.7427 0.0000
vt 0.4603 0.7856 0.0000
vt 0.4603 0.7427 0.0000
vt 0.7144 0.0958 0.0000
vt 0.7144 0.0592 0.0000
vt 0.6771 0.0958 0.0000
vt 0.6771 0.0592 0.0000
vt 0.6404 0.0592 0.0000
vt 0.6404 0.0079 0.0000
vt 0.6771 0.0079 0.0000
vt 0.7144 0.0079 0.0000
vt 0.7510 0.0592 0.0000
vt 0.7510 0.0079 0.0000
vt 0.6032 0.0592 0.0000
vt 0.6032 0.0079 0.0000
vt 0.0581 0.0161 0.0000
vt 0.0160 0.0161 0.0000
vt 0.0581 0.0589 0.0000
vt 0.0160 0.0589 0.0000
vt 0.5129 0.0592 0.0000
vt 0.4756 0.0592 0.0000
vt 0.5129 0.0958 0.0000
vt 0.4756 0.0958 0.0000
vt 0.5129 0.0079 0.0000
vt 0.5495 0.0079 0.0000
vt 0.5495 0.0592 0.0000
vt 0.4756 0.0079 0.0000
vt 0.4390 0.0079 0.0000
vt 0.4390 0.0592 0.0000
vt 0.5868 0.0079 0.0000
vt 0.5868 0.0592 0.0000
vt 0.7744 0.0137 0.0000
vt 0.7902 0.0117 0.0000
vt 0.7695 0.0177 0.0000
vt 0.7695 0.0250 0.0000
vt 0.9928 0.0310 0.0000
vt 0.9769 0.0310 0.0000
vt 0.9928 0.0117 0.0000
vt 0.9769 0.0117 0.0000
vt 0.9526 0.0117 0.0000
vt 0.9526 0.0310 0.0000
vt 0.9260 0.0117 0.0000
vt 0.9260 0.0310 0.0000
vt 0.9023 0.0117 0.0000
vt 0.9023 0.0310 0.0000
vt 0.8744 0.0117 0.0000
vt 0.8744 0.0310 0.0000
vt 0.8084 0.0117 0.0000
vt 0.8084 0.0310 0.0000
vt 0.7902 0.0311 0.0000
vt 0.7744 0.0290 0.0000
vt 0.7744 0.0136 0.0000
vt 0.7902 0.0310 0.0000
vt 0.2577 0.2349 0.0000
vt 0.1379 0.3556 0.0000
vt 0.2577 0.3623 0.0000
vt 0.1008 0.2376 0.0000
vt 0.0809 0.2404 0.0000
vt 0.1073 0.3044 0.0000
vt 0.0868 0.3085 0.0000
vt 0.1143 0.3869 0.0000
vt 0.2577 0.3861 0.0000
vt 0.3779 0.3566 0.0000
vt 0.4078 0.3053 0.0000
vt 0.4145 0.2382 0.0000
vt 0.4032 0.1571 0.0000
vt 0.3359 0.1080 0.0000
vt 0.2577 0.0946 0.0000
vt 0.1784 0.1082 0.0000
vt 0.1115 0.1569 0.0000
vt 0.0746 0.1626 0.0000
vt 0.0913 0.1320 0.0000
vt 0.1171 0.1147 0.0000
vt 0.1674 0.0842 0.0000
vt 0.2577 0.0716 0.0000
vt 0.3469 0.0841 0.0000
vt 0.3971 0.1149 0.0000
vt 0.4231 0.1328 0.0000
vt 0.4404 0.1629 0.0000
vt 0.4347 0.2413 0.0000
vt 0.4281 0.3092 0.0000
vt 0.1601 0.0660 0.0000
vt 0.2577 0.0506 0.0000
vt 0.3545 0.0659 0.0000
vt 0.4116 0.0990 0.0000
vt 0.4358 0.1232 0.0000
vt 0.4546 0.1610 0.0000
vt 0.4498 0.2437 0.0000
vt 0.4412 0.3118 0.0000
vt 0.4025 0.3886 0.0000
vt 0.4286 0.3904 0.0000
vt 0.4012 0.4207 0.0000
vt 0.1722 0.0307 0.0000
vt 0.2577 0.0196 0.0000
vt 0.3424 0.0307 0.0000
vt 0.3914 0.0499 0.0000
vt 0.4347 0.0795 0.0000
vt 0.4676 0.1192 0.0000
vt 0.4854 0.1516 0.0000
vt 0.4735 0.2818 0.0000
vt 0.4432 0.4048 0.0000
vt 0.4115 0.4423 0.0000
vt 0.2577 0.0086 0.0000
vt 0.3454 0.0201 0.0000
vt 0.4006 0.0418 0.0000
vt 0.4446 0.0734 0.0000
vt 0.4768 0.1080 0.0000
vt 0.5079 0.1504 0.0000
vt 0.4629 0.4119 0.0000
vt 0.4181 0.4564 0.0000
vt 0.2577 0.4386 0.0000
vt 0.1692 0.0200 0.0000
vt 0.1142 0.0416 0.0000
vt 0.1234 0.0497 0.0000
vt 0.0705 0.0730 0.0000
vt 0.0802 0.0791 0.0000
vt 0.0383 0.1074 0.0000
vt 0.0489 0.1150 0.0000
vt 0.0286 0.1509 0.0000
vt 0.0059 0.1504 0.0000
vt 0.0424 0.2808 0.0000
vt 0.0537 0.4127 0.0000
vt 0.0744 0.4037 0.0000
vt 0.1055 0.4418 0.0000
vt 0.0989 0.4564 0.0000
vt 0.0985 0.4781 0.0000
vt 0.4185 0.4780 0.0000
vt 0.1034 0.0989 0.0000
vt 0.0788 0.1232 0.0000
vt 0.0596 0.1597 0.0000
vt 0.0658 0.2425 0.0000
vt 0.0751 0.3106 0.0000
vt 0.0871 0.3901 0.0000
vt 0.1157 0.4194 0.0000
vt 0.2577 0.4117 0.0000
vt 0.5451 0.9668 0.0000
vt 0.6120 0.9325 0.0000
vt 0.5451 0.9325 0.0000
vt 0.7402 0.9950 0.0000
vt 0.6995 0.9668 0.0000
vt 0.6995 0.9950 0.0000
vt 0.6553 0.9950 0.0000
vt 0.6553 0.9668 0.0000
vt 0.6120 0.9668 0.0000
vt 0.6120 0.9950 0.0000
vt 0.5855 0.9870 0.0000
vt 0.4399 0.9668 0.0000
vt 0.4399 0.9356 0.0000
vt 0.4878 0.9200 0.0000
vt 0.5870 0.9070 0.0000
vt 0.6120 0.9069 0.0000
vt 0.6553 0.9069 0.0000
vt 0.6553 0.9325 0.0000
vt 0.6995 0.9325 0.0000
vt 0.7402 0.9325 0.0000
vt 0.7402 0.9069 0.0000
vt 0.7877 0.9325 0.0000
vt 0.7877 0.9069 0.0000
vt 0.6995 0.9069 0.0000
vt 0.9051 0.9325 0.0000
vt 0.7877 0.9668 0.0000
vt 0.7402 0.9668 0.0000
vt 0.7877 0.9950 0.0000
vt 0.9045 0.9668 0.0000
vt 0.9106 0.9950 0.0000
vt 0.9415 0.9662 0.0000
vt 0.9485 0.9891 0.0000
vt 0.9717 0.9621 0.0000
vt 0.9820 0.9766 0.0000
vt 0.9934 0.9621 0.0000
vt 0.9120 0.9069 0.0000
vt 0.9498 0.9131 0.0000
vt 0.9420 0.9357 0.0000
vt 0.9721 0.9409 0.0000
vt 0.9830 0.9268 0.0000
vt 0.9843 0.9452 0.0000
vt 0.9938 0.9418 0.0000
vt 0.9840 0.9584 0.0000
vt 0.5451 0.8678 0.0000
vt 0.6120 0.8330 0.0000
vt 0.5451 0.8330 0.0000
vt 0.7409 0.8064 0.0000
vt 0.7001 0.8064 0.0000
vt 0.7001 0.8330 0.0000
vt 0.6560 0.8064 0.0000
vt 0.6560 0.8330 0.0000
vt 0.6120 0.8064 0.0000
vt 0.5876 0.8126 0.0000
vt 0.4399 0.8330 0.0000
vt 0.4399 0.8643 0.0000
vt 0.4878 0.8774 0.0000
vt 0.5860 0.8912 0.0000
vt 0.6120 0.8678 0.0000
vt 0.6120 0.8944 0.0000
vt 0.6560 0.8944 0.0000
vt 0.6560 0.8678 0.0000
vt 0.7001 0.8678 0.0000
vt 0.7409 0.8678 0.0000
vt 0.7409 0.8944 0.0000
vt 0.7883 0.8678 0.0000
vt 0.7883 0.8944 0.0000
vt 0.7001 0.8944 0.0000
vt 0.9055 0.8678 0.0000
vt 0.7883 0.8330 0.0000
vt 0.7409 0.8330 0.0000
vt 0.7883 0.8064 0.0000
vt 0.9054 0.8330 0.0000
vt 0.9119 0.8064 0.0000
vt 0.9424 0.8350 0.0000
vt 0.9498 0.8122 0.0000
vt 0.9725 0.8395 0.0000
vt 0.9832 0.8253 0.0000
vt 0.9943 0.8400 0.0000
vt 0.9119 0.8944 0.0000
vt 0.9498 0.8882 0.0000
vt 0.9425 0.8655 0.0000
vt 0.9726 0.8607 0.0000
vt 0.9832 0.8751 0.0000
vt 0.9848 0.8567 0.0000
vt 0.9943 0.8603 0.0000
vt 0.9848 0.8436 0.0000
vt 0.7221 0.0916 0.0000
vt 0.7219 0.3210 0.0000
vt 0.7476 0.0916 0.0000
vt 0.9946 0.3211 0.0000
vt 0.9691 0.0918 0.0000
vt 0.9946 0.0918 0.0000
vt 0.9502 0.6944 0.0000
vt 0.9186 0.6922 0.0000
vt 0.9528 0.7282 0.0000
vt 0.5735 0.6922 0.0000
vt 0.5363 0.7280 0.0000
vt 0.5388 0.6943 0.0000
vt 0.8989 0.6541 0.0000
vt 0.5932 0.6541 0.0000
vt 0.6020 0.6423 0.0000
vt 0.5735 0.6376 0.0000
vt 0.9186 0.6399 0.0000
vt 0.8897 0.6423 0.0000
vt 0.7466 0.5247 0.0000
vt 0.6020 0.3749 0.0000
vt 0.8914 0.3749 0.0000
vt 0.9045 0.6285 0.0000
vt 0.9186 0.5266 0.0000
vt 0.9059 0.3876 0.0000
vt 0.5359 0.5228 0.0000
vt 0.5735 0.5250 0.0000
vt 0.5735 0.3769 0.0000
vt 0.5913 0.3865 0.0000
vt 0.5932 0.3635 0.0000
vt 0.9000 0.3635 0.0000
vt 0.9186 0.3784 0.0000
vt 0.9627 0.5260 0.0000
vt 0.9627 0.6834 0.0000
vt 0.9946 0.6834 0.0000
vt 0.9946 0.3319 0.0000
vt 0.9627 0.3319 0.0000
vt 0.9147 0.3319 0.0000
vt 0.5791 0.3319 0.0000
vt 0.5359 0.3319 0.0000
vt 0.5056 0.3319 0.0000
vt 0.5056 0.6834 0.0000
vt 0.5359 0.6834 0.0000
vt 0.5849 0.6274 0.0000
vt 0.0571 0.5296 0.0000
vt 0.0571 0.5455 0.0000
vt 0.0754 0.5445 0.0000
vt 0.0754 0.5599 0.0000
vt 0.0571 0.5612 0.0000
vt 0.1056 0.5127 0.0000
vt 0.0924 0.5104 0.0000
vt 0.0924 0.5283 0.0000
vt 0.0754 0.5133 0.0000
vt 0.0754 0.5292 0.0000
vt 0.0571 0.5130 0.0000
vt 0.0089 0.5320 0.0000
vt 0.0089 0.5541 0.0000
vt 0.0089 0.5753 0.0000
vt 0.0571 0.5776 0.0000
vt 0.0754 0.5758 0.0000
vt 0.0924 0.5492 0.0000
vt 0.0571 0.4950 0.0000
vt 0.0754 0.4962 0.0000
vt 0.0754 0.4798 0.0000
vt 0.0571 0.4743 0.0000
vt 0.0089 0.5115 0.0000
vt 0.0089 0.5934 0.0000
vt 0.0571 0.5952 0.0000
vt 0.0754 0.5920 0.0000
vt 0.0924 0.5699 0.0000
vt 0.1056 0.5472 0.0000
vt 0.1056 0.5665 0.0000
vt 0.1204 0.5517 0.0000
vt 0.1204 0.5643 0.0000
vt 0.1204 0.5773 0.0000
vt 0.1571 0.5653 0.0000
vt 0.1571 0.5811 0.0000
vt 0.1204 0.5914 0.0000
vt 0.1571 0.5980 0.0000
vt 0.1703 0.5960 0.0000
vt 0.1703 0.5802 0.0000
vt 0.0571 0.6153 0.0000
vt 0.0754 0.6077 0.0000
vt 0.0924 0.5840 0.0000
vt 0.1056 0.5831 0.0000
vt 0.1204 0.6063 0.0000
vt 0.1571 0.6171 0.0000
vt 0.1703 0.6119 0.0000
vt 0.1830 0.5806 0.0000
vt 0.1830 0.5886 0.0000
vt 0.2266 0.5794 0.0000
vt 0.2266 0.5878 0.0000
vt 0.1830 0.5712 0.0000
vt 0.1830 0.5611 0.0000
vt 0.1703 0.5648 0.0000
vt 0.1830 0.5510 0.0000
vt 0.1703 0.5495 0.0000
vt 0.1571 0.5500 0.0000
vt 0.1571 0.5347 0.0000
vt 0.1703 0.5343 0.0000
vt 0.1830 0.5408 0.0000
vt 0.2266 0.5705 0.0000
vt 0.2266 0.5610 0.0000
vt 0.2266 0.5511 0.0000
vt 0.2266 0.5413 0.0000
vt 0.2266 0.5318 0.0000
vt 0.1830 0.5309 0.0000
vt 0.2266 0.5229 0.0000
vt 0.1830 0.5214 0.0000
vt 0.2266 0.5144 0.0000
vt 0.1830 0.5132 0.0000
vt 0.1703 0.5033 0.0000
vt 0.1703 0.4872 0.0000
vt 0.1703 0.5190 0.0000
vt 0.1571 0.5023 0.0000
vt 0.1571 0.5190 0.0000
vt 0.1204 0.5392 0.0000
vt 0.1204 0.5261 0.0000
vt 0.1204 0.5124 0.0000
vt 0.1056 0.5278 0.0000
vt 0.1571 0.4834 0.0000
vt 0.1204 0.4979 0.0000
vt 0.3621 0.8297 0.0000
vt 0.3788 0.8106 0.0000
vt 0.3786 0.8297 0.0000
vt 0.3977 0.8106 0.0000
vt 0.3964 0.8297 0.0000
vt 0.4058 0.9284 0.0000
vt 0.3889 0.9284 0.0000
vt 0.4097 0.9147 0.0000
vt 0.3900 0.9147 0.0000
vt 0.3795 0.8765 0.0000
vt 0.3946 0.8765 0.0000
vt 0.3635 0.8611 0.0000
vt 0.3792 0.8611 0.0000
vt 0.3630 0.8473 0.0000
vt 0.3816 0.8473 0.0000
vt 0.4134 0.8297 0.0000
vt 0.4192 0.8106 0.0000
vt 0.3804 0.7605 0.0000
vt 0.3591 0.7605 0.0000
vt 0.3616 0.8106 0.0000
vt 0.3361 0.7605 0.0000
vt 0.3233 0.8611 0.0000
vt 0.3197 0.8473 0.0000
vt 0.3433 0.8611 0.0000
vt 0.3412 0.8473 0.0000
vt 0.3461 0.8297 0.0000
vt 0.3301 0.8297 0.0000
vt 0.3136 0.8297 0.0000
vt 0.2967 0.8297 0.0000
vt 0.2804 0.8297 0.0000
vt 0.3050 0.8473 0.0000
vt 0.3060 0.8611 0.0000
vt 0.3451 0.8106 0.0000
vt 0.3288 0.8106 0.0000
vt 0.3141 0.7605 0.0000
vt 0.3117 0.8106 0.0000
vt 0.2934 0.8106 0.0000
vt 0.2953 0.7605 0.0000
vt 0.2725 0.8106 0.0000
vt 0.2904 0.9147 0.0000
vt 0.2973 0.8765 0.0000
vt 0.3081 0.9147 0.0000
vt 0.3120 0.8765 0.0000
vt 0.2819 0.8765 0.0000
vt 0.2706 0.9147 0.0000
vt 0.2760 0.9284 0.0000
vt 0.2926 0.9284 0.0000
vt 0.3090 0.9284 0.0000
vt 0.3245 0.9147 0.0000
vt 0.3250 0.9284 0.0000
vt 0.3404 0.9147 0.0000
vt 0.3409 0.9284 0.0000
vt 0.3563 0.9147 0.0000
vt 0.3567 0.9284 0.0000
vt 0.3002 0.9416 0.0000
vt 0.3085 0.9416 0.0000
vt 0.3184 0.9416 0.0000
vt 0.3288 0.9416 0.0000
vt 0.3394 0.9416 0.0000
vt 0.3499 0.9416 0.0000
vt 0.3603 0.9416 0.0000
vt 0.3727 0.9284 0.0000
vt 0.3702 0.9416 0.0000
vt 0.3726 0.9147 0.0000
vt 0.3011 0.9869 0.0000
vt 0.3099 0.9869 0.0000
vt 0.3191 0.9869 0.0000
vt 0.3290 0.9869 0.0000
vt 0.3392 0.9869 0.0000
vt 0.3495 0.9869 0.0000
vt 0.3593 0.9869 0.0000
vt 0.3685 0.9869 0.0000
vt 0.3775 0.9869 0.0000
vt 0.3786 0.9416 0.0000
vt 0.5597 0.7709 0.0000
vt 0.5711 0.7822 0.0000
vt 0.5597 0.7548 0.0000
vt 0.5711 0.7435 0.0000
vt 0.5871 0.7822 0.0000
vt 0.5871 0.7435 0.0000
vt 0.5985 0.7709 0.0000
vt 0.5985 0.7548 0.0000
vt 0.6614 0.7601 0.0000
vt 0.6915 0.7601 0.0000
vt 0.6614 0.7381 0.0000
vt 0.6915 0.7381 0.0000
vt 0.9593 0.7381 0.0000
vt 0.9593 0.7601 0.0000
vt 0.9934 0.7601 0.0000
vt 0.9934 0.7381 0.0000
vt 0.5110 0.7710 0.0000
vt 0.5110 0.7550 0.0000
vt 0.5224 0.7824 0.0000
vt 0.5224 0.7436 0.0000
vt 0.5384 0.7824 0.0000
vt 0.5384 0.7436 0.0000
vt 0.5497 0.7710 0.0000
vt 0.5497 0.7550 0.0000
vt 0.6661 0.0836 0.0000
vt 0.6514 0.0836 0.0000
vt 0.6661 0.1330 0.0000
vt 0.6514 0.1330 0.0000
vt 0.6364 0.0836 0.0000
vt 0.6364 0.1330 0.0000
vt 0.6213 0.0836 0.0000
vt 0.6213 0.1330 0.0000
vt 0.6063 0.0836 0.0000
vt 0.6063 0.1330 0.0000
vt 0.5960 0.0836 0.0000
vt 0.5960 0.1330 0.0000
vt 0.5812 0.0836 0.0000
vt 0.5812 0.1330 0.0000
vt 0.5662 0.0836 0.0000
vt 0.5662 0.1330 0.0000
vt 0.5511 0.0836 0.0000
vt 0.5511 0.1330 0.0000
vt 0.5362 0.0836 0.0000
vt 0.5362 0.1330 0.0000
vt 0.4411 0.6908 0.0000
vt 0.4527 0.6908 0.0000
vt 0.4410 0.6767 0.0000
vt 0.4540 0.6767 0.0000
vt 0.4643 0.6908 0.0000
vt 0.4672 0.6767 0.0000
vt 0.4758 0.6908 0.0000
vt 0.4807 0.6767 0.0000
vt 0.4134 0.4881 0.0000
vt 0.4014 0.6767 0.0000
vt 0.4225 0.4881 0.0000
vt 0.4149 0.6767 0.0000
vt 0.4318 0.4881 0.0000
vt 0.4280 0.6767 0.0000
vt 0.4411 0.4881 0.0000
vt 0.4506 0.4881 0.0000
vt 0.4598 0.4881 0.0000
vt 0.4688 0.4881 0.0000
vt 0.4777 0.4881 0.0000
vt 0.4952 0.6767 0.0000
vt 0.4862 0.6908 0.0000
vt 0.4957 0.7116 0.0000
vt 0.4809 0.7116 0.0000
vt 0.4296 0.6908 0.0000
vt 0.4181 0.6908 0.0000
vt 0.4067 0.6908 0.0000
vt 0.4156 0.7116 0.0000
vt 0.4022 0.7116 0.0000
vt 0.4196 0.7328 0.0000
vt 0.4363 0.7328 0.0000
vt 0.4286 0.7116 0.0000
vt 0.4414 0.7116 0.0000
vt 0.4534 0.7328 0.0000
vt 0.4543 0.7116 0.0000
vt 0.4674 0.7116 0.0000
vt 0.4687 0.7328 0.0000
vt 0.4074 0.7328 0.0000
vt 0.3878 0.7116 0.0000
vt 0.3963 0.6908 0.0000
vt 0.3871 0.6767 0.0000
vt 0.4044 0.4881 0.0000
vt 0.2609 0.9959 0.0000
vt 0.2609 0.8936 0.0000
vt 0.2294 0.9959 0.0000
vt 0.2294 0.8936 0.0000
vt 0.2001 0.8936 0.0000
vt 0.2001 0.9959 0.0000
vt 0.1684 0.9959 0.0000
vt 0.1684 0.8936 0.0000
vt 0.1403 0.9936 0.0000
vt 0.1403 0.8936 0.0000
vt 0.2609 0.6251 0.0000
vt 0.2294 0.6251 0.0000
vt 0.2001 0.6251 0.0000
vt 0.1684 0.6251 0.0000
vt 0.1403 0.6251 0.0000
vt 0.0089 0.9959 0.0000
vt 0.0359 0.9959 0.0000
vt 0.0089 0.8936 0.0000
vt 0.0359 0.8936 0.0000
vt 0.0637 0.8936 0.0000
vt 0.0637 0.9959 0.0000
vt 0.1018 0.9959 0.0000
vt 0.1018 0.8936 0.0000
vt 0.1303 0.9923 0.0000
vt 0.1303 0.8936 0.0000
vt 0.0089 0.6251 0.0000
vt 0.0359 0.6251 0.0000
vt 0.0637 0.6251 0.0000
vt 0.1018 0.6251 0.0000
vt 0.1303 0.6251 0.0000
vt 0.5192 0.1575 0.0000
vt 0.5192 0.2925 0.0000
vt 0.5321 0.1464 0.0000
vt 0.5289 0.3038 0.0000
vt 0.5400 0.3124 0.0000
vt 0.5578 0.3193 0.0000
vt 0.5781 0.3231 0.0000
vt 0.6139 0.3243 0.0000
vt 0.6957 0.1464 0.0000
vt 0.6497 0.3231 0.0000
vt 0.6700 0.3193 0.0000
vt 0.6878 0.3124 0.0000
vt 0.7086 0.1575 0.0000
vt 0.6989 0.3038 0.0000
vt 0.7086 0.2925 0.0000
vt 0.6077 0.7698 0.0000
vt 0.6077 0.7928 0.0000
vt 0.6382 0.7698 0.0000
vt 0.6382 0.7928 0.0000
vt 0.6788 0.7698 0.0000
vt 0.6788 0.7928 0.0000
vt 0.7238 0.7698 0.0000
vt 0.7238 0.7928 0.0000
vt 0.8013 0.7928 0.0000
vt 0.8013 0.7698 0.0000
vt 0.8788 0.7698 0.0000
vt 0.8788 0.7928 0.0000
vt 0.9238 0.7928 0.0000
vt 0.9238 0.7698 0.0000
vt 0.9644 0.7928 0.0000
vt 0.9644 0.7698 0.0000
vt 0.9948 0.7928 0.0000
vt 0.9948 0.7698 0.0000
vt 0.3692 0.6931 0.0000
vt 0.3787 0.7139 0.0000
vt 0.3588 0.6931 0.0000
vt 0.3639 0.7139 0.0000
vt 0.3517 0.7352 0.0000
vt 0.3504 0.7139 0.0000
vt 0.3365 0.7352 0.0000
vt 0.3374 0.7139 0.0000
vt 0.3245 0.7139 0.0000
vt 0.3193 0.7352 0.0000
vt 0.3116 0.7139 0.0000
vt 0.2986 0.7139 0.0000
vt 0.3027 0.7352 0.0000
vt 0.2852 0.7139 0.0000
vt 0.2708 0.7139 0.0000
vt 0.2904 0.7352 0.0000
vt 0.3638 0.6790 0.0000
vt 0.3502 0.6790 0.0000
vt 0.3473 0.6931 0.0000
vt 0.3357 0.6931 0.0000
vt 0.3242 0.6931 0.0000
vt 0.3127 0.6931 0.0000
vt 0.3011 0.6931 0.0000
vt 0.2897 0.6931 0.0000
vt 0.2794 0.6931 0.0000
vt 0.3370 0.6790 0.0000
vt 0.3240 0.6790 0.0000
vt 0.3110 0.6790 0.0000
vt 0.2979 0.6790 0.0000
vt 0.2845 0.6790 0.0000
vt 0.2701 0.6790 0.0000
vt 0.3782 0.6790 0.0000
vt 0.3604 0.4907 0.0000
vt 0.3515 0.4907 0.0000
vt 0.3425 0.4907 0.0000
vt 0.3332 0.4907 0.0000
vt 0.3237 0.4907 0.0000
vt 0.3144 0.4907 0.0000
vt 0.3052 0.4907 0.0000
vt 0.2960 0.4907 0.0000
vt 0.2870 0.4907 0.0000
vt 0.3255 0.8765 0.0000
vt 0.3386 0.8765 0.0000
vt 0.3517 0.8765 0.0000
vt 0.3653 0.8765 0.0000
# 618 texture coords

g Hotel_Chair
usemtl wire_028089177
s 1
f 1/1/1 2/1/1 3/1/1 
f 4/1/2 5/1/2 6/1/2 
f 7/1/3 8/1/3 9/1/3 
usemtl Material_0000c1
f 10/1/4 11/2/5 12/3/6 
f 11/2/5 13/4/7 12/3/6 
f 14/5/8 15/6/9 16/7/10 
f 15/6/9 17/8/11 16/7/10 
f 18/7/10 19/5/8 20/8/11 
f 19/5/8 21/6/9 20/8/11 
f 22/9/12 23/10/12 24/11/12 
f 23/10/12 25/12/12 24/11/12 
f 26/13/13 27/14/13 28/15/13 
f 27/14/13 29/16/13 28/15/13 
f 28/17/14 29/16/14 24/18/14 
f 29/16/14 22/19/14 24/18/14 
f 29/16/15 27/14/15 22/19/15 
f 27/14/15 23/20/15 22/19/15 
f 27/14/16 26/21/16 23/20/16 
f 26/21/16 25/22/16 23/20/16 
f 26/23/17 28/17/17 25/24/17 
f 28/17/17 24/18/17 25/24/17 
f 30/25/12 31/26/12 32/27/12 
f 31/26/12 33/28/12 32/27/12 
f 34/29/13 35/30/13 36/31/13 
f 35/30/13 37/32/13 36/31/13 
f 33/33/14 34/29/14 32/34/14 
f 34/29/14 36/35/14 32/34/14 
f 31/36/17 35/30/18 33/33/18 
f 35/30/18 34/29/18 33/33/18 
f 30/37/16 37/38/16 31/36/16 
f 37/38/16 35/30/16 31/36/16 
f 32/34/19 36/35/15 30/39/15 
f 36/35/15 37/40/15 30/39/15 
f 38/41/20 39/42/21 40/43/22 
f 39/42/21 41/44/23 40/43/22 
f 42/45/24 43/46/25 44/47/26 
f 44/47/26 43/46/25 45/48/27 
f 45/48/27 43/46/25 46/49/28 
f 43/46/25 47/50/29 46/49/28 
f 46/49/28 47/50/29 48/51/30 
f 47/50/29 49/52/31 48/51/30 
f 48/51/30 49/52/31 50/53/32 
f 49/52/31 51/54/33 50/53/32 
f 50/53/32 51/54/33 52/55/34 
f 51/54/33 53/56/35 52/55/34 
f 52/55/34 53/56/35 54/57/36 
f 53/56/35 55/58/37 54/57/36 
f 54/57/36 55/58/37 39/42/21 
f 55/58/37 56/59/38 39/42/21 
f 39/42/21 56/59/38 41/44/23 
f 56/59/38 57/60/39 41/44/23 
f 58/44/40 59/43/41 60/42/42 
f 59/43/41 61/61/43 60/42/42 
f 62/60/44 58/44/40 63/62/45 
f 58/44/40 60/42/42 63/62/45 
f 60/42/42 64/57/46 63/62/45 
f 63/62/45 64/57/46 65/58/47 
f 64/57/46 66/55/48 65/58/47 
f 65/58/47 66/55/48 67/56/49 
f 66/55/48 68/53/50 67/56/49 
f 67/56/49 68/53/50 69/54/51 
f 68/53/50 70/51/52 69/54/51 
f 69/54/51 70/51/52 71/52/53 
f 70/51/52 72/49/54 71/52/53 
f 71/52/53 72/49/54 73/50/55 
f 72/49/54 74/48/56 73/50/55 
f 73/50/55 74/48/56 75/46/57 
f 75/46/57 74/48/56 76/45/58 
f 74/48/56 77/47/59 76/45/58 
f 78/63/60 79/64/61 80/65/62 
f 81/66/63 82/67/64 83/68/65 
f 82/67/64 84/69/66 83/68/65 
f 83/68/65 84/69/66 79/64/61 
f 84/69/66 85/70/67 79/64/61 
f 85/70/67 86/71/68 79/64/61 
f 79/64/61 86/71/68 80/65/62 
f 86/71/68 87/72/69 80/65/62 
f 80/65/62 87/72/69 78/63/60 
f 87/72/69 88/73/70 78/63/60 
f 88/73/70 89/74/71 78/63/60 
f 89/74/71 90/75/72 78/63/60 
f 90/75/72 91/76/73 78/63/60 
f 91/76/73 92/77/74 78/63/60 
f 92/77/74 93/78/75 78/63/60 
f 93/78/75 94/79/76 78/63/60 
f 94/79/76 81/66/63 78/63/60 
f 81/66/63 83/68/65 78/63/60 
f 78/63/60 83/68/65 79/64/61 
f 81/66/63 94/79/76 82/67/64 
f 82/67/64 94/79/76 95/80/77 
f 95/80/77 94/79/76 96/81/78 
f 96/81/78 94/79/76 97/82/79 
f 94/79/76 93/78/75 97/82/79 
f 97/82/79 93/78/75 98/83/80 
f 98/83/80 93/78/75 99/84/81 
f 93/78/75 92/77/74 99/84/81 
f 92/77/74 91/76/73 99/84/81 
f 99/84/81 91/76/73 100/85/82 
f 100/85/82 91/76/73 101/86/83 
f 91/76/73 90/75/72 101/86/83 
f 101/86/83 90/75/72 102/87/84 
f 102/87/84 90/75/72 103/88/85 
f 103/88/85 90/75/72 104/89/86 
f 90/75/72 89/74/71 104/89/86 
f 89/74/71 88/73/70 104/89/86 
f 88/73/70 105/90/87 104/89/86 
f 97/82/79 98/83/80 106/91/88 
f 106/91/88 98/83/80 107/92/89 
f 98/83/80 99/84/81 107/92/89 
f 99/84/81 100/85/82 107/92/89 
f 107/92/89 100/85/82 108/93/90 
f 100/85/82 101/86/83 108/93/90 
f 108/93/90 101/86/83 109/94/91 
f 101/86/83 102/87/84 109/94/91 
f 109/94/91 102/87/84 110/95/92 
f 110/95/92 102/87/84 111/96/93 
f 102/87/84 103/88/85 111/96/93 
f 111/96/93 103/88/85 112/97/94 
f 103/88/85 104/89/86 112/97/94 
f 104/89/86 105/90/87 112/97/94 
f 112/97/94 105/90/87 113/98/95 
f 105/90/87 114/99/96 113/98/95 
f 113/98/95 114/99/96 115/100/97 
f 114/99/96 116/101/98 115/100/97 
f 117/102/99 106/91/88 118/103/100 
f 106/91/88 107/92/89 118/103/100 
f 107/92/89 108/93/90 118/103/100 
f 118/103/100 108/93/90 119/104/101 
f 119/104/101 108/93/90 120/105/102 
f 108/93/90 109/94/91 120/105/102 
f 120/105/102 109/94/91 121/106/103 
f 109/94/91 110/95/92 121/106/103 
f 121/106/103 110/95/92 122/107/104 
f 110/95/92 111/96/93 122/107/104 
f 122/107/104 111/96/93 123/108/105 
f 111/96/93 112/97/94 123/108/105 
f 123/108/105 112/97/94 124/109/106 
f 112/97/94 113/98/95 124/109/106 
f 124/109/106 113/98/95 125/110/107 
f 113/98/95 115/100/97 125/110/107 
f 115/100/97 116/101/98 125/110/107 
f 116/101/98 126/111/108 125/110/107 
f 117/102/99 118/103/100 127/112/109 
f 118/103/100 119/104/101 127/112/109 
f 127/112/109 119/104/101 128/113/110 
f 128/113/110 119/104/101 129/114/111 
f 119/104/101 120/105/102 129/114/111 
f 129/114/111 120/105/102 130/115/112 
f 120/105/102 121/106/103 130/115/112 
f 130/115/112 121/106/103 131/116/113 
f 121/106/103 122/107/104 131/116/113 
f 122/107/104 123/108/105 131/116/113 
f 131/116/113 123/108/105 132/117/114 
f 123/108/105 124/109/106 132/117/114 
f 132/117/114 124/109/106 133/118/115 
f 124/109/106 125/110/107 133/118/115 
f 125/110/107 126/111/108 133/118/115 
f 133/118/115 126/111/108 134/119/116 
f 134/119/116 126/111/108 135/120/117 
f 126/111/108 116/101/98 135/120/117 
f 127/112/109 136/121/118 117/102/99 
f 136/121/118 137/122/119 117/102/99 
f 117/102/99 137/122/119 138/123/120 
f 137/122/119 139/124/121 138/123/120 
f 138/123/120 139/124/121 140/125/122 
f 139/124/121 141/126/123 140/125/122 
f 140/125/122 141/126/123 142/127/124 
f 142/127/124 141/126/123 143/128/125 
f 141/126/123 144/129/126 143/128/125 
f 143/128/125 144/129/126 145/130/127 
f 144/129/126 146/131/128 145/130/127 
f 145/130/127 146/131/128 147/132/129 
f 147/132/129 146/131/128 148/133/130 
f 146/131/128 149/134/131 148/133/130 
f 148/133/130 149/134/131 135/120/117 
f 135/120/117 149/134/131 134/119/116 
f 149/134/131 150/135/132 134/119/116 
f 150/135/132 151/136/133 134/119/116 
f 117/102/99 138/123/120 106/91/88 
f 106/91/88 138/123/120 152/137/134 
f 138/123/120 140/125/122 152/137/134 
f 152/137/134 140/125/122 153/138/135 
f 140/125/122 142/127/124 153/138/135 
f 153/138/135 142/127/124 154/139/136 
f 142/127/124 143/128/125 154/139/136 
f 154/139/136 143/128/125 155/140/137 
f 143/128/125 145/130/127 155/140/137 
f 155/140/137 145/130/127 156/141/138 
f 145/130/127 147/132/129 156/141/138 
f 156/141/138 147/132/129 157/142/139 
f 157/142/139 147/132/129 158/143/140 
f 147/132/129 148/133/130 158/143/140 
f 148/133/130 135/120/117 158/143/140 
f 158/143/140 135/120/117 159/144/141 
f 135/120/117 116/101/98 159/144/141 
f 159/144/141 116/101/98 114/99/96 
f 106/91/88 152/137/134 97/82/79 
f 97/82/79 152/137/134 96/81/78 
f 152/137/134 153/138/135 96/81/78 
f 153/138/135 154/139/136 96/81/78 
f 96/81/78 154/139/136 95/80/77 
f 154/139/136 155/140/137 95/80/77 
f 95/80/77 155/140/137 82/67/64 
f 82/67/64 155/140/137 84/69/66 
f 155/140/137 156/141/138 84/69/66 
f 84/69/66 156/141/138 85/70/67 
f 156/141/138 157/142/139 85/70/67 
f 157/142/139 158/143/140 85/70/67 
f 158/143/140 159/144/141 85/70/67 
f 85/70/67 159/144/141 86/71/68 
f 159/144/141 114/99/96 86/71/68 
f 86/71/68 114/99/96 87/72/69 
f 114/99/96 105/90/87 87/72/69 
f 87/72/69 105/90/87 88/73/70 
f 160/145/142 161/146/143 162/147/144 
f 50/148/32 163/149/145 48/150/30 
f 48/150/30 163/149/145 46/151/28 
f 163/149/145 164/152/146 46/151/28 
f 164/152/146 165/153/147 46/151/28 
f 46/151/28 165/153/147 45/154/27 
f 45/154/27 165/153/147 44/155/26 
f 165/153/147 160/145/142 44/155/26 
f 44/155/26 160/145/142 166/156/148 
f 166/156/148 160/145/142 167/157/149 
f 160/145/142 162/147/144 167/157/149 
f 167/157/149 162/147/144 168/158/150 
f 168/158/150 162/147/144 42/159/24 
f 162/147/144 161/146/143 42/159/24 
f 42/159/24 161/146/143 43/160/25 
f 43/160/25 161/146/143 47/161/29 
f 47/161/29 161/146/143 169/162/151 
f 169/162/151 161/146/143 165/153/147 
f 161/146/143 160/145/142 165/153/147 
f 165/153/147 164/152/146 169/162/151 
f 169/162/151 164/152/146 170/163/152 
f 164/152/146 163/149/145 170/163/152 
f 163/149/145 171/164/153 170/163/152 
f 170/163/152 171/164/153 51/165/33 
f 171/164/153 172/166/154 51/165/33 
f 172/166/154 53/167/35 51/165/33 
f 51/165/33 49/168/31 170/163/152 
f 49/168/31 47/161/29 170/163/152 
f 170/163/152 47/161/29 169/162/151 
f 173/169/155 172/166/154 174/170/156 
f 174/170/156 172/166/154 175/171/157 
f 172/166/154 171/164/153 175/171/157 
f 171/164/153 163/149/145 175/171/157 
f 163/149/145 50/148/32 175/171/157 
f 175/171/157 50/148/32 174/170/156 
f 50/148/32 52/172/34 174/170/156 
f 174/170/156 52/172/34 176/173/158 
f 52/172/34 54/174/36 176/173/158 
f 176/173/158 54/174/36 177/175/159 
f 54/174/36 39/176/21 177/175/159 
f 177/175/159 39/176/21 178/177/160 
f 39/176/21 38/178/20 178/177/160 
f 178/177/160 38/178/20 40/179/22 
f 53/167/35 172/166/154 55/180/37 
f 172/166/154 173/169/155 55/180/37 
f 55/180/37 173/169/155 56/181/38 
f 173/169/155 179/182/161 56/181/38 
f 179/182/161 180/183/162 56/181/38 
f 56/181/38 180/183/162 57/184/39 
f 180/183/162 181/185/163 57/184/39 
f 57/184/39 181/185/163 41/186/23 
f 41/186/23 181/185/163 40/179/22 
f 181/185/163 182/187/164 40/179/22 
f 40/179/22 182/187/164 178/177/160 
f 182/187/164 181/185/163 178/177/160 
f 181/185/163 180/183/162 178/177/160 
f 178/177/160 180/183/162 177/175/159 
f 180/183/162 179/182/161 177/175/159 
f 177/175/159 179/182/161 176/173/158 
f 179/182/161 173/169/155 176/173/158 
f 176/173/158 173/169/155 174/170/156 
f 183/188/165 184/189/166 185/190/167 
f 69/191/51 71/192/53 186/193/168 
f 71/192/53 73/194/55 186/193/168 
f 186/193/168 73/194/55 187/195/169 
f 187/195/169 73/194/55 184/189/166 
f 73/194/55 75/196/57 184/189/166 
f 75/196/57 76/197/58 184/189/166 
f 184/189/166 76/197/58 185/190/167 
f 76/197/58 188/198/170 185/190/167 
f 188/198/170 189/199/171 185/190/167 
f 185/190/167 189/199/171 183/188/165 
f 189/199/171 190/200/172 183/188/165 
f 190/200/172 77/201/59 183/188/165 
f 183/188/165 77/201/59 191/202/173 
f 77/201/59 74/203/56 191/202/173 
f 74/203/56 72/204/54 191/202/173 
f 72/204/54 192/205/174 191/202/173 
f 192/205/174 184/189/166 191/202/173 
f 191/202/173 184/189/166 183/188/165 
f 184/189/166 192/205/174 187/195/169 
f 192/205/174 193/206/175 187/195/169 
f 187/195/169 193/206/175 186/193/168 
f 186/193/168 193/206/175 194/207/176 
f 193/206/175 68/208/50 194/207/176 
f 194/207/176 68/208/50 195/209/177 
f 68/208/50 66/210/48 195/209/177 
f 192/205/174 72/204/54 193/206/175 
f 72/204/54 70/211/52 193/206/175 
f 193/206/175 70/211/52 68/208/50 
f 196/212/178 197/213/179 195/209/177 
f 197/213/179 198/214/180 195/209/177 
f 195/209/177 198/214/180 194/207/176 
f 194/207/176 198/214/180 186/193/168 
f 186/193/168 198/214/180 69/191/51 
f 198/214/180 197/213/179 69/191/51 
f 69/191/51 197/213/179 67/215/49 
f 197/213/179 199/216/181 67/215/49 
f 67/215/49 199/216/181 65/217/47 
f 199/216/181 200/218/182 65/217/47 
f 65/217/47 200/218/182 63/219/45 
f 200/218/182 201/220/183 63/219/45 
f 63/219/45 201/220/183 62/221/44 
f 201/220/183 58/222/40 62/221/44 
f 66/210/48 64/223/46 195/209/177 
f 195/209/177 64/223/46 196/212/178 
f 64/223/46 60/224/42 196/212/178 
f 196/212/178 60/224/42 202/225/184 
f 202/225/184 60/224/42 203/226/185 
f 60/224/42 61/227/43 203/226/185 
f 203/226/185 61/227/43 204/228/186 
f 61/227/43 59/229/41 204/228/186 
f 59/229/41 58/222/40 204/228/186 
f 204/228/186 58/222/40 205/230/187 
f 58/222/40 201/220/183 205/230/187 
f 205/230/187 201/220/183 204/228/186 
f 204/228/186 201/220/183 203/226/185 
f 201/220/183 200/218/182 203/226/185 
f 203/226/185 200/218/182 202/225/184 
f 200/218/182 199/216/181 202/225/184 
f 202/225/184 199/216/181 196/212/178 
f 199/216/181 197/213/179 196/212/178 
f 206/231/188 207/232/189 12/233/6 
f 207/232/189 208/234/190 12/233/6 
f 12/233/6 208/234/190 10/235/4 
f 208/234/190 209/236/191 10/235/4 
f 166/237/148 167/238/149 207/239/189 
f 167/238/149 189/240/171 207/239/189 
f 207/239/189 189/240/171 208/241/190 
f 189/240/171 188/242/170 208/241/190 
f 167/238/149 210/243/192 211/244/193 
f 210/243/192 212/245/194 211/244/193 
f 212/245/194 190/246/172 211/244/193 
f 190/246/172 189/240/171 211/244/193 
f 211/244/193 189/240/171 167/238/149 
f 167/238/149 168/247/150 210/243/192 
f 168/247/150 213/248/195 210/243/192 
f 210/243/192 213/248/195 212/245/194 
f 213/248/195 214/249/196 212/245/194 
f 212/245/194 214/249/196 215/250/197 
f 215/250/197 214/249/196 216/251/198 
f 214/249/196 213/248/195 216/251/198 
f 216/251/198 213/248/195 217/252/199 
f 213/248/195 168/247/150 217/252/199 
f 168/247/150 42/253/24 217/252/199 
f 42/253/24 218/254/200 217/252/199 
f 217/252/199 218/254/200 216/251/198 
f 76/255/58 77/256/59 219/257/201 
f 77/256/59 220/258/202 219/257/201 
f 219/257/201 220/258/202 221/259/203 
f 220/258/202 215/250/197 221/259/203 
f 215/250/197 216/251/198 221/259/203 
f 221/259/203 216/251/198 222/260/204 
f 216/251/198 218/254/200 222/260/204 
f 222/260/204 218/254/200 223/261/205 
f 218/254/200 42/253/24 223/261/205 
f 223/261/205 42/253/24 44/262/26 
f 166/263/148 207/264/189 44/262/26 
f 207/264/189 206/265/188 44/262/26 
f 206/265/188 224/266/206 44/262/26 
f 44/262/26 224/266/206 223/261/205 
f 224/266/206 13/267/7 223/261/205 
f 223/261/205 13/267/7 222/260/204 
f 222/260/204 13/267/7 221/259/203 
f 13/267/7 11/268/5 221/259/203 
f 221/259/203 11/268/5 219/257/201 
f 11/268/5 225/269/207 219/257/201 
f 219/257/201 225/269/207 76/255/58 
f 225/269/207 209/270/191 76/255/58 
f 209/270/191 208/271/190 76/255/58 
f 76/255/58 208/271/190 188/272/170 
f 190/246/172 226/273/208 77/256/59 
f 77/256/59 226/273/208 220/258/202 
f 220/258/202 226/273/208 215/250/197 
f 215/250/197 226/273/208 212/245/194 
f 226/273/208 190/246/172 212/245/194 
f 227/274/209 228/275/210 229/276/211 
f 229/276/211 228/275/210 230/277/212 
f 228/275/210 231/278/213 230/277/212 
f 232/279/214 233/280/215 234/281/216 
f 233/280/215 235/282/217 234/281/216 
f 234/281/216 235/282/217 236/283/218 
f 235/282/217 237/284/219 236/283/218 
f 236/283/218 237/284/219 227/274/209 
f 237/284/219 238/285/220 227/274/209 
f 238/285/220 239/286/221 227/274/209 
f 227/274/209 239/286/221 228/275/210 
f 228/275/210 239/286/221 231/278/213 
f 239/286/221 240/287/222 231/278/213 
f 240/287/222 241/288/223 231/278/213 
f 241/288/223 242/289/224 231/278/213 
f 231/278/213 242/289/224 230/277/212 
f 242/289/224 243/290/225 230/277/212 
f 230/277/212 243/290/225 229/276/211 
f 243/290/225 234/281/216 229/276/211 
f 234/281/216 236/283/218 229/276/211 
f 229/276/211 236/283/218 227/274/209 
f 238/285/220 237/284/219 244/291/226 
f 237/284/219 235/282/217 244/291/226 
f 244/291/226 235/282/217 245/292/227 
f 235/282/217 233/280/215 245/292/227 
f 233/280/215 246/293/228 245/292/227 
f 246/293/228 247/294/229 245/292/227 
f 245/292/227 247/294/229 244/291/226 
f 247/294/229 248/295/230 244/291/226 
f 244/291/226 248/295/230 238/285/220 
f 248/296/230 249/297/231 240/287/222 
f 240/287/222 249/297/231 241/288/223 
f 249/297/231 250/298/232 241/288/223 
f 241/288/223 250/298/232 242/289/224 
f 250/298/232 251/299/233 242/289/224 
f 242/289/224 251/299/233 243/290/225 
f 243/290/225 251/299/233 252/300/234 
f 251/299/233 253/301/235 252/300/234 
f 252/300/234 253/301/235 254/302/236 
f 254/302/236 253/301/235 255/303/237 
f 253/301/235 256/304/238 255/303/237 
f 255/303/237 256/304/238 257/305/239 
f 257/305/239 256/304/238 258/306/240 
f 256/304/238 259/307/241 258/306/240 
f 259/307/241 260/308/242 258/306/240 
f 260/308/242 261/309/243 258/306/240 
f 261/309/243 262/310/244 258/306/240 
f 258/306/240 262/310/244 257/305/239 
f 248/296/230 247/311/229 249/297/231 
f 247/311/229 246/312/228 249/297/231 
f 249/297/231 246/312/228 250/298/232 
f 250/298/232 246/312/228 251/299/233 
f 246/312/228 233/313/215 251/299/233 
f 251/299/233 233/313/215 253/301/235 
f 233/313/215 232/314/214 253/301/235 
f 253/301/235 232/314/214 256/304/238 
f 256/304/238 232/314/214 259/307/241 
f 232/314/214 263/315/245 259/307/241 
f 259/307/241 263/315/245 260/308/242 
f 263/315/245 264/316/246 260/308/242 
f 264/316/246 265/317/247 260/308/242 
f 260/308/242 265/317/247 261/309/243 
f 261/309/243 265/317/247 266/318/248 
f 265/317/247 267/319/249 266/318/248 
f 266/318/248 267/319/249 268/320/250 
f 267/319/249 269/321/251 268/320/250 
f 266/318/248 270/322/252 261/309/243 
f 261/309/243 270/322/252 262/310/244 
f 270/322/252 271/323/253 262/310/244 
f 262/310/244 271/323/253 272/324/254 
f 271/323/253 273/325/255 272/324/254 
f 273/325/255 274/326/256 272/324/254 
f 272/324/254 274/326/256 275/327/257 
f 275/327/257 274/326/256 276/328/258 
f 276/328/258 274/326/256 277/329/259 
f 277/329/259 274/326/256 278/330/260 
f 274/326/256 273/325/255 278/330/260 
f 268/320/250 279/331/261 266/318/248 
f 266/318/248 279/331/261 270/322/252 
f 279/331/261 280/332/262 270/322/252 
f 270/322/252 280/332/262 271/323/253 
f 280/332/262 281/333/263 271/323/253 
f 271/323/253 281/333/263 273/325/255 
f 281/333/263 282/334/264 273/325/255 
f 273/325/255 282/334/264 278/330/260 
f 282/334/264 283/335/265 278/330/260 
f 278/330/260 283/335/265 284/336/266 
f 283/335/265 285/337/267 284/336/266 
f 284/336/266 285/337/267 286/338/268 
f 285/337/267 269/339/251 286/338/268 
f 269/339/251 267/340/249 286/338/268 
f 286/338/268 267/340/249 287/341/269 
f 267/340/249 265/342/247 287/341/269 
f 278/330/260 284/336/266 277/329/259 
f 277/329/259 284/336/266 288/343/270 
f 284/336/266 286/338/268 288/343/270 
f 286/338/268 287/341/269 288/343/270 
f 287/341/269 289/344/271 288/343/270 
f 289/344/271 290/345/272 288/343/270 
f 288/343/270 290/345/272 277/329/259 
f 277/329/259 290/345/272 276/328/258 
f 276/328/258 290/345/272 291/346/273 
f 291/346/273 290/345/272 292/347/274 
f 290/345/272 289/344/271 292/347/274 
f 289/344/271 293/348/275 292/347/274 
f 292/347/274 293/348/275 294/349/276 
f 265/342/247 264/350/246 287/341/269 
f 287/341/269 264/350/246 289/344/271 
f 289/344/271 264/350/246 293/348/275 
f 264/350/246 263/351/245 293/348/275 
f 293/348/275 263/351/245 294/349/276 
f 263/351/245 232/279/214 294/349/276 
f 232/279/214 234/281/216 294/349/276 
f 234/281/216 243/290/225 294/349/276 
f 243/290/225 252/300/234 294/349/276 
f 294/349/276 252/300/234 292/347/274 
f 292/347/274 252/300/234 291/346/273 
f 252/300/234 254/302/236 291/346/273 
f 291/346/273 254/302/236 276/328/258 
f 276/328/258 254/302/236 275/327/257 
f 254/302/236 255/303/237 275/327/257 
f 255/303/237 257/305/239 275/327/257 
f 275/327/257 257/305/239 272/324/254 
f 257/305/239 262/310/244 272/324/254 
f 295/352/277 296/353/278 297/354/279 
f 296/353/278 298/355/280 297/354/279 
f 297/354/279 298/355/280 299/356/281 
f 300/357/282 301/358/283 302/359/284 
f 301/358/283 303/360/285 302/359/284 
f 303/360/285 304/361/286 302/359/284 
f 302/359/284 304/361/286 305/362/287 
f 304/361/286 306/363/288 305/362/287 
f 305/362/287 306/363/288 307/364/289 
f 306/363/288 308/365/290 307/364/289 
f 307/364/289 308/365/290 309/366/291 
f 308/365/290 297/354/279 309/366/291 
f 297/354/279 299/356/281 309/366/291 
f 309/366/291 299/356/281 310/367/292 
f 310/367/292 299/356/281 311/368/293 
f 299/356/281 298/355/280 311/368/293 
f 311/368/293 298/355/280 312/369/294 
f 312/369/294 298/355/280 313/370/295 
f 298/355/280 296/353/278 313/370/295 
f 296/353/278 314/371/296 313/370/295 
f 313/370/295 314/371/296 315/372/297 
f 316/373/298 317/374/299 318/375/300 
f 317/374/299 319/376/301 318/375/300 
f 318/375/300 319/376/301 306/363/288 
f 319/376/301 308/365/290 306/363/288 
f 297/354/279 308/365/290 295/352/277 
f 295/352/277 308/365/290 320/377/302 
f 308/365/290 319/376/301 320/377/302 
f 320/377/302 319/376/301 321/378/303 
f 321/378/303 319/376/301 322/379/304 
f 319/376/301 317/374/299 322/379/304 
f 322/379/304 317/374/299 323/380/305 
f 323/380/305 317/374/299 310/381/292 
f 310/381/292 317/374/299 309/382/291 
f 317/374/299 316/373/298 309/382/291 
f 316/373/298 307/383/289 309/382/291 
f 314/371/296 324/384/306 315/372/297 
f 324/384/306 325/385/307 315/372/297 
f 315/372/297 325/385/307 326/386/308 
f 325/385/307 327/387/309 326/386/308 
f 327/387/309 328/388/310 326/386/308 
f 326/386/308 328/388/310 312/389/294 
f 312/389/294 328/388/310 311/390/293 
f 311/390/293 328/388/310 310/381/292 
f 310/381/292 328/388/310 323/380/305 
f 328/388/310 327/387/309 323/380/305 
f 323/380/305 327/387/309 322/379/304 
f 327/387/309 325/385/307 322/379/304 
f 322/379/304 325/385/307 321/378/303 
f 325/385/307 324/384/306 321/378/303 
f 321/378/303 324/384/306 320/377/302 
f 324/384/306 314/371/296 320/377/302 
f 320/377/302 314/371/296 295/352/277 
f 314/371/296 296/353/278 295/352/277 
f 329/391/311 330/392/312 331/393/313 
f 331/393/313 330/392/312 332/394/314 
f 332/394/314 330/392/312 307/383/289 
f 307/383/289 330/392/312 305/395/287 
f 330/392/312 329/391/311 305/395/287 
f 305/395/287 329/391/311 302/396/284 
f 302/396/284 329/391/311 300/397/282 
f 300/397/282 329/391/311 333/398/315 
f 329/391/311 331/393/313 333/398/315 
f 333/398/315 331/393/313 334/399/316 
f 331/393/313 335/400/317 334/399/316 
f 334/399/316 335/400/317 336/401/318 
f 335/400/317 337/402/319 336/401/318 
f 336/401/318 337/402/319 338/403/320 
f 337/402/319 339/404/321 338/403/320 
f 339/404/321 340/405/322 338/403/320 
f 341/406/323 300/397/282 342/407/268 
f 300/397/282 333/398/315 342/407/268 
f 342/407/268 333/398/315 343/408/266 
f 333/398/315 334/399/316 343/408/266 
f 343/408/266 334/399/316 344/409/260 
f 334/399/316 336/401/318 344/409/260 
f 344/409/260 336/401/318 345/410/324 
f 336/401/318 338/403/320 345/410/324 
f 345/410/324 338/403/320 346/411/253 
f 338/403/320 340/405/322 346/411/253 
f 346/411/253 340/405/322 347/412/252 
f 340/405/322 348/413/325 347/412/252 
f 347/412/252 348/413/325 349/414/248 
f 349/414/248 348/413/325 301/358/283 
f 301/358/283 348/413/325 303/360/285 
f 303/360/285 348/413/325 350/415/326 
f 348/413/325 340/405/322 350/415/326 
f 350/415/326 340/405/322 339/404/321 
f 351/416/327 341/406/323 352/417/267 
f 341/406/323 342/407/268 352/417/267 
f 352/417/267 342/407/268 353/418/265 
f 342/407/268 343/408/266 353/418/265 
f 353/418/265 343/408/266 354/419/264 
f 343/408/266 344/409/260 354/419/264 
f 354/419/264 344/409/260 355/420/328 
f 344/409/260 345/410/324 355/420/328 
f 355/420/328 345/410/324 356/421/262 
f 345/410/324 346/411/253 356/421/262 
f 356/421/262 346/411/253 357/422/261 
f 346/411/253 347/412/252 357/422/261 
f 357/422/261 347/412/252 358/423/250 
f 347/412/252 349/414/248 358/423/250 
f 358/423/250 349/414/248 351/424/327 
f 351/424/327 349/414/248 341/425/323 
f 349/414/248 301/358/283 341/425/323 
f 341/425/323 301/358/283 300/357/282 
f 359/426/329 360/427/330 361/428/331 
f 361/428/331 360/427/330 362/429/332 
f 360/427/330 363/430/333 362/429/332 
f 362/429/332 363/430/333 364/431/334 
f 363/430/333 365/432/335 364/431/334 
f 364/431/334 365/432/335 366/433/336 
f 131/434/113 132/435/114 367/436/337 
f 367/436/337 132/435/114 368/437/338 
f 368/437/338 132/435/114 369/438/339 
f 132/435/114 133/439/115 369/438/339 
f 133/439/115 134/440/116 369/438/339 
f 369/438/339 134/440/116 151/441/133 
f 370/442/336 371/443/334 372/444/335 
f 371/443/334 373/445/340 372/444/335 
f 372/444/335 373/445/340 374/446/341 
f 373/445/340 375/447/331 374/446/341 
f 374/446/341 375/447/331 376/448/330 
f 375/447/331 377/449/329 376/448/330 
f 141/436/123 378/434/342 144/437/126 
f 378/434/342 379/435/343 144/437/126 
f 379/435/343 380/439/344 144/437/126 
f 144/437/126 380/439/344 146/438/128 
f 146/438/128 380/439/344 149/441/131 
f 380/439/344 150/440/132 149/441/131 
f 381/450/345 382/451/346 248/452/230 
f 248/452/230 382/451/346 238/453/220 
f 382/451/346 383/454/347 238/453/220 
f 238/453/220 383/454/347 239/455/221 
f 383/454/347 384/456/348 239/455/221 
f 239/455/221 384/456/348 240/457/222 
f 384/456/348 381/458/345 240/457/222 
f 240/457/222 381/458/345 248/459/230 
f 385/460/349 312/461/294 386/462/350 
f 312/461/294 313/463/295 386/462/350 
f 386/462/350 313/463/295 387/464/351 
f 313/463/295 315/465/297 387/464/351 
f 387/464/351 315/465/297 388/466/352 
f 315/465/297 326/467/308 388/466/352 
f 388/466/352 326/467/308 385/468/349 
f 326/467/308 312/469/294 385/468/349 
f 389/470/353 390/471/354 391/472/355 
f 391/472/355 390/471/354 392/473/356 
f 390/471/354 393/474/357 392/473/356 
f 392/473/356 393/474/357 394/475/358 
f 393/474/357 395/476/359 394/475/358 
f 394/475/358 395/476/359 396/477/360 
f 366/478/336 397/479/361 364/480/334 
f 397/479/361 398/481/362 364/480/334 
f 364/480/334 398/481/362 362/482/332 
f 398/481/362 399/483/363 362/482/332 
f 362/482/332 399/483/363 361/484/331 
f 399/483/363 391/472/355 361/484/331 
f 361/484/331 391/472/355 359/485/329 
f 391/472/355 392/473/356 359/485/329 
f 359/485/329 392/473/356 360/486/330 
f 392/473/356 394/475/358 360/486/330 
f 360/486/330 394/475/358 363/487/333 
f 394/475/358 396/477/360 363/487/333 
f 363/487/333 396/477/360 365/488/335 
f 365/488/335 396/477/360 400/489/364 
f 400/489/364 396/477/360 401/490/365 
f 396/477/360 395/476/359 401/490/365 
f 401/490/365 395/476/359 402/491/366 
f 395/476/359 403/492/367 402/491/366 
f 391/472/355 399/483/363 389/470/353 
f 389/470/353 399/483/363 404/493/368 
f 399/483/363 398/481/362 404/493/368 
f 404/493/368 398/481/362 405/494/369 
f 398/481/362 397/479/361 405/494/369 
f 397/479/361 406/495/370 405/494/369 
f 405/494/369 406/495/370 407/496/371 
f 406/495/370 408/497/372 407/496/371 
f 408/497/372 384/498/348 407/496/371 
f 384/498/348 383/499/347 407/496/371 
f 407/496/371 383/499/347 409/500/373 
f 409/500/373 383/499/347 410/501/374 
f 383/499/347 382/502/346 410/501/374 
f 410/501/374 382/502/346 411/503/375 
f 411/503/375 382/502/346 412/504/376 
f 382/502/346 381/505/345 412/504/376 
f 412/504/376 381/505/345 403/492/367 
f 381/505/345 402/491/366 403/492/367 
f 395/476/359 393/474/357 403/492/367 
f 403/492/367 393/474/357 412/504/376 
f 393/474/357 390/471/354 412/504/376 
f 412/504/376 390/471/354 411/503/375 
f 390/471/354 389/470/353 411/503/375 
f 411/503/375 389/470/353 410/501/374 
f 389/470/353 404/493/368 410/501/374 
f 410/501/374 404/493/368 409/500/373 
f 404/493/368 405/494/369 409/500/373 
f 409/500/373 405/494/369 407/496/371 
f 381/506/345 384/498/348 402/507/366 
f 384/498/348 408/497/372 402/507/366 
f 402/507/366 408/497/372 401/508/365 
f 408/497/372 406/495/370 401/508/365 
f 401/508/365 406/495/370 400/509/364 
f 406/495/370 397/479/361 400/509/364 
f 397/479/361 366/478/336 400/509/364 
f 400/509/364 366/478/336 365/510/335 
f 12/511/6 413/512/377 206/513/188 
f 413/512/377 414/514/378 206/513/188 
f 414/514/378 415/515/379 206/513/188 
f 206/513/188 415/515/379 224/516/206 
f 224/516/206 415/515/379 13/517/7 
f 415/515/379 416/518/380 13/517/7 
f 13/517/7 416/518/380 12/519/6 
f 416/518/380 413/520/377 12/519/6 
f 15/521/9 14/522/8 413/512/377 
f 413/512/377 14/522/8 414/514/378 
f 14/522/8 16/523/10 414/514/378 
f 414/514/378 16/523/10 415/515/379 
f 16/523/10 17/524/11 415/515/379 
f 415/515/379 17/524/11 416/518/380 
f 416/518/380 17/524/11 413/520/377 
f 17/524/11 15/525/9 413/520/377 
f 10/526/4 209/527/191 417/528/378 
f 417/528/378 209/527/191 418/529/377 
f 418/529/377 209/527/191 419/530/380 
f 209/527/191 225/531/207 419/530/380 
f 225/531/207 11/532/5 419/530/380 
f 419/530/380 11/532/5 420/533/379 
f 11/532/5 10/534/4 420/533/379 
f 420/533/379 10/534/4 417/535/378 
f 19/536/8 417/528/378 21/537/9 
f 417/528/378 418/529/377 21/537/9 
f 21/537/9 418/529/377 20/538/11 
f 418/529/377 419/530/380 20/538/11 
f 20/538/11 419/530/380 18/539/10 
f 419/530/380 420/533/379 18/539/10 
f 420/533/379 417/535/378 18/539/10 
f 18/539/10 417/535/378 19/540/8 
f 380/541/344 379/542/343 150/543/132 
f 379/542/343 378/544/342 150/543/132 
f 378/544/342 421/545/381 150/543/132 
f 421/545/381 422/546/382 150/543/132 
f 422/546/382 423/547/383 150/543/132 
f 423/547/383 424/548/384 150/543/132 
f 150/543/132 424/548/384 151/549/133 
f 424/548/384 425/550/385 151/549/133 
f 425/550/385 426/551/386 151/549/133 
f 426/551/386 427/552/387 151/549/133 
f 151/549/133 427/552/387 369/553/339 
f 427/552/387 367/554/337 369/553/339 
f 369/553/339 367/554/337 368/555/338 
f 378/556/342 141/557/123 421/558/381 
f 141/557/123 139/559/121 421/558/381 
f 421/558/381 139/559/121 422/560/382 
f 139/559/121 137/561/119 422/560/382 
f 422/560/382 137/561/119 423/562/383 
f 137/561/119 136/563/118 423/562/383 
f 136/563/118 127/564/109 423/562/383 
f 423/562/383 127/564/109 424/565/384 
f 424/565/384 127/564/109 425/566/385 
f 127/564/109 128/567/110 425/566/385 
f 128/567/110 129/568/111 425/566/385 
f 425/566/385 129/568/111 426/569/386 
f 129/568/111 130/570/112 426/569/386 
f 426/569/386 130/570/112 427/571/387 
f 130/570/112 131/572/113 427/571/387 
f 427/571/387 131/572/113 367/573/337 
f 428/574/357 429/575/388 430/576/389 
f 430/576/389 429/575/388 431/577/390 
f 429/575/388 385/578/349 431/577/390 
f 431/577/390 385/578/349 432/579/391 
f 385/578/349 386/580/350 432/579/391 
f 432/579/391 386/580/350 433/581/392 
f 433/581/392 386/580/350 434/582/393 
f 386/580/350 387/583/351 434/582/393 
f 434/582/393 387/583/351 435/584/394 
f 435/584/394 387/583/351 436/585/395 
f 387/583/351 388/586/352 436/585/395 
f 436/585/395 388/586/352 437/587/396 
f 437/587/396 388/586/352 429/588/388 
f 388/586/352 385/589/349 429/588/388 
f 438/590/397 430/576/389 439/591/364 
f 439/591/364 430/576/389 440/592/365 
f 430/576/389 431/577/390 440/592/365 
f 431/577/390 432/579/391 440/592/365 
f 440/592/365 432/579/391 441/593/370 
f 432/579/391 433/581/392 441/593/370 
f 441/593/370 433/581/392 442/594/369 
f 433/581/392 434/582/393 442/594/369 
f 442/594/369 434/582/393 443/595/398 
f 434/582/393 435/584/394 443/595/398 
f 443/595/398 435/584/394 444/596/353 
f 435/584/394 436/585/395 444/596/353 
f 444/596/353 436/585/395 445/597/354 
f 436/585/395 437/587/396 445/597/354 
f 445/597/354 437/587/396 428/598/357 
f 437/587/396 429/588/388 428/598/357 
f 439/591/364 440/592/365 446/599/361 
f 440/592/365 441/593/370 446/599/361 
f 446/599/361 441/593/370 447/600/399 
f 441/593/370 442/594/369 447/600/399 
f 447/600/399 442/594/369 448/601/363 
f 442/594/369 443/595/398 448/601/363 
f 448/601/363 443/595/398 449/602/355 
f 443/595/398 444/596/353 449/602/355 
f 449/602/355 444/596/353 450/603/356 
f 444/596/353 445/597/354 450/603/356 
f 450/603/356 445/597/354 451/604/358 
f 445/597/354 428/598/357 451/604/358 
f 430/576/389 438/590/397 428/574/357 
f 428/574/357 438/590/397 451/605/358 
f 451/605/358 438/590/397 376/606/330 
f 376/606/330 438/590/397 374/607/341 
f 438/590/397 439/591/364 374/607/341 
f 374/607/341 439/591/364 372/608/335 
f 439/591/364 446/599/361 372/608/335 
f 372/608/335 446/599/361 370/609/336 
f 446/599/361 447/600/399 370/609/336 
f 370/609/336 447/600/399 371/610/334 
f 447/600/399 448/601/363 371/610/334 
f 371/610/334 448/601/363 373/611/340 
f 448/601/363 449/602/355 373/611/340 
f 373/611/340 449/602/355 375/612/331 
f 449/602/355 450/603/356 375/612/331 
f 375/612/331 450/603/356 377/613/329 
f 450/603/356 451/604/358 377/613/329 
f 451/604/358 376/614/330 377/613/329 
f 331/393/313 332/394/314 335/400/317 
f 332/394/314 452/615/400 335/400/317 
f 335/400/317 452/615/400 337/402/319 
f 452/615/400 453/616/401 337/402/319 
f 337/402/319 453/616/401 339/404/321 
f 453/616/401 454/617/402 339/404/321 
f 339/404/321 454/617/402 350/415/326 
f 454/617/402 455/618/403 350/415/326 
f 350/415/326 455/618/403 303/360/285 
f 303/360/285 455/618/403 304/361/286 
f 304/361/286 455/618/403 306/363/288 
f 306/363/288 455/618/403 318/375/300 
f 455/618/403 454/617/402 318/375/300 
f 454/617/402 453/616/401 318/375/300 
f 318/375/300 453/616/401 316/373/298 
f 453/616/401 452/615/400 316/373/298 
f 452/615/400 332/394/314 316/373/298 
f 316/373/298 332/394/314 307/383/289 
# 0 polygons - 859 triangles

