mtllib mi_cigg.mtl
o mi_cigarette
v 0.000130 -0.024588 0.001400
v 0.000130 -0.024588 -0.001400
v 0.000130 0.024588 -0.001400
v 0.000130 0.024588 0.001400
v 0.001400 -0.024588 0.000079
v -0.001400 -0.024588 0.000077
v 0.001400 0.024588 0.000080
v -0.001400 0.024588 0.000077
vt 0.007810 0.828120
vt 0.976560 0.828120
vt 0.976560 0.015620
vt 0.007810 0.015620
vt 0.007810 0.828120
vt 0.976560 0.828120
vt 0.976560 0.015620
vt 0.007810 0.015620
vn 1.0000 0.0000 0.0000
vn -0.0007 -0.0000 1.0000
vn -0.0011 0.0000 1.0000
usemtl mi_cigg_png
s off
f 1/1/1 2/2/1 3/3/1
f 1/1/1 3/3/1 4/4/1
f 6/5/2 5/6/2 7/7/2
f 6/5/3 7/7/3 8/8/3
