# Blender v2.68 (sub 0) OBJ File: ''
# www.blender.org
mtllib wine_bottle_5.mtl
o rdmobj00
v -0.004677 0.539597 -0.033719
v -0.005372 0.443664 -0.037345
v 0.085066 0.063860 -0.013405
v 0.074490 0.028778 -0.026515
v 0.083378 0.028778 -0.013487
v 0.089084 0.063860 -0.000460
v 0.087265 0.028778 -0.000460
v -0.080508 0.028417 -0.013800
v -0.071792 0.028417 -0.026515
v -0.080908 0.063881 -0.013718
v -0.083598 0.028417 -0.000460
v -0.079570 0.028417 0.011943
v -0.079971 0.063881 0.011861
v -0.073262 0.063881 0.025431
v 0.010150 0.086215 0.064440
v 0.009888 0.063860 0.063217
v -0.012315 0.086239 0.064440
v -0.030500 0.063881 -0.057804
v -0.031093 0.086239 -0.058882
v -0.012315 0.086239 -0.065343
v 0.013288 0.232445 0.081474
v -0.015522 0.242376 0.081838
v 0.012331 0.262088 0.076900
v -0.015522 0.242376 -0.082771
v 0.013267 0.242326 -0.082771
v 0.012864 0.252207 -0.080767
v 0.012331 0.262088 -0.077826
v -0.079451 0.232496 0.049982
v -0.062095 0.086239 0.039657
v -0.045782 0.063881 0.049927
v 0.003719 0.335457 0.036311
v -0.006337 0.325704 0.038768
v -0.006002 0.335183 0.036132
v 0.003199 0.438798 0.033950
v 0.007740 0.008917 0.056048
v 0.007829 0.009073 -0.057635
v 0.006360 0.002293 -0.049048
v -0.010307 0.008974 -0.057635
v -0.025421 0.008820 -0.051426
v -0.021519 0.002293 -0.044290
v -0.037409 0.008820 -0.045204
v -0.031280 0.002293 -0.038907
v -0.054308 0.015348 -0.036664
v -0.040881 0.015348 -0.048291
v -0.049806 0.008820 -0.034332
v 0.003871 0.335457 -0.036563
v -0.004842 0.437985 -0.033659
v -0.059610 0.008820 -0.023459
v -0.067396 0.008820 -0.012292
v -0.075914 0.015348 -0.000460
v -0.069348 0.008820 -0.000477
v -0.066423 0.008820 0.010367
v -0.055681 0.002293 0.008793
v -0.049754 0.002293 0.019296
v -0.072449 0.015348 0.011204
v -0.059610 0.008820 0.022506
v -0.037409 0.008820 0.044251
v -0.024773 0.008820 0.051769
v -0.031280 0.002293 0.037988
v -0.010192 0.008820 0.056048
v 0.018019 0.007988 -0.041142
v 0.009022 0.026235 -0.020609
v 0.005694 0.007988 -0.043709
v 0.002859 0.026235 -0.021893
v 0.028119 0.007988 0.033797
v 0.038378 0.007988 0.026865
v 0.019202 0.026235 0.013395
v 0.046411 0.007988 0.017151
v 0.023218 0.026235 0.008538
v 0.026198 0.026235 0.003861
v 0.027229 0.026235 -0.000259
v 0.026337 0.026235 -0.004657
v 0.054434 0.007988 -0.000441
v 0.052649 0.007988 -0.009238
v 0.059089 0.002293 -0.010338
v 0.052083 0.002293 -0.020216
v 0.052083 0.002293 0.019296
v 0.058776 0.002293 0.008793
v 0.052371 0.007988 0.007799
v 0.061093 0.002293 -0.000460
v -0.011682 0.022322 0.063044
v -0.011877 0.028417 0.063621
v 0.009297 0.022605 0.063044
v -0.011028 0.015348 0.059987
v -0.027825 0.007988 0.033797
v -0.020894 0.002293 0.044620
v -0.018576 0.007988 0.039703
v -0.009276 0.026235 0.019814
v 0.000025 0.034071 -0.000076
v 0.014072 0.026235 0.016860
v 0.029044 0.063860 0.058759
v 0.046325 0.063860 0.049927
v 0.028450 0.028778 0.059121
v -0.037164 0.007988 -0.026357
v -0.018570 0.026235 -0.013216
v -0.044276 0.007988 -0.018034
v -0.022126 0.026235 -0.009055
v -0.025182 0.026235 -0.004796
v -0.025734 0.026235 -0.000259
v -0.024765 0.026235 0.003861
v -0.051492 0.007988 -0.000441
v -0.049554 0.007988 0.007799
v -0.049754 0.002293 -0.020216
v -0.056618 0.002293 -0.010650
v -0.050389 0.007988 -0.009516
v -0.057856 0.002293 -0.000460
v -0.011682 0.022322 -0.063982
v -0.011249 0.015656 -0.062129
v 0.009297 0.022605 -0.063982
v 0.009659 0.028778 -0.064540
v -0.013900 0.026235 -0.017378
v 0.072615 0.022605 -0.026293
v 0.076226 0.015542 -0.012748
v 0.081404 0.022605 -0.013381
v 0.079569 0.015542 -0.000460
v 0.085091 0.022605 -0.000469
v 0.081085 0.022605 0.011806
v 0.083066 0.028778 0.011943
v 0.074490 0.028778 0.025595
v 0.072615 0.022605 0.025355
v 0.044169 0.022605 -0.050727
v 0.060624 0.022605 -0.039785
v 0.045365 0.028778 -0.051166
v 0.067881 0.015542 -0.025037
v -0.032991 0.539597 0.006936
v -0.034650 0.529794 0.017543
v -0.037445 0.529794 0.007873
v -0.038704 0.529794 -0.000510
v -0.037931 0.529794 -0.009079
v -0.037366 0.443664 -0.000510
v -0.036203 0.443664 0.007631
v -0.032630 0.437985 0.006878
v -0.036689 0.443664 -0.008836
v -0.033444 0.443664 -0.017326
v -0.033678 0.437985 -0.000460
v 0.044169 0.022605 0.049789
v 0.025840 0.015542 0.055866
v 0.027690 0.022605 0.058647
v 0.008570 0.015542 0.059987
v 0.055809 0.015542 0.037306
v 0.059667 0.022605 0.039166
v -0.007657 0.007988 0.042827
v 0.006360 0.002293 0.048128
v -0.008632 0.002293 0.048128
v 0.005694 0.007988 0.042827
v -0.003816 0.026235 0.021376
v 0.002859 0.026235 0.021376
v 0.008883 0.026235 0.020092
v 0.017741 0.007988 0.040259
v 0.019889 0.002293 0.045245
v 0.009888 0.063860 -0.064136
v 0.063374 0.063860 -0.039848
v 0.062115 0.028778 -0.040090
v 0.041236 0.015542 0.047371
v 0.051256 0.008917 0.034998
v 0.037729 0.008917 0.044251
v 0.031542 0.002293 0.037988
v 0.043063 0.002293 0.030204
v -0.059584 0.028417 0.039171
v -0.060772 0.063881 0.038929
v -0.049806 0.008820 0.034674
v -0.054308 0.015348 0.036994
v -0.028453 0.443664 0.024740
v -0.029380 0.529794 0.025465
v -0.033504 0.443664 0.017058
v 0.026678 0.015854 -0.057925
v 0.008742 0.015854 -0.062129
v 0.028009 0.022605 -0.059585
v 0.003549 0.444476 0.037667
v -0.006591 0.443664 0.037240
v 0.002990 0.539814 0.033555
v 0.062191 0.008917 0.022506
v 0.028346 0.444476 0.024095
v 0.029553 0.530332 0.024819
v 0.021451 0.444476 0.030314
v 0.019334 0.438798 0.027323
v 0.013123 0.444476 0.035379
v 0.013694 0.530332 0.036473
v 0.003769 0.530332 0.038891
v 0.022371 0.530332 0.031278
v 0.019151 0.539814 0.027611
v 0.011207 0.539814 0.031667
v 0.025359 0.539814 0.021866
v -0.029731 0.539597 0.016034
v -0.019157 0.539597 0.027925
v -0.030143 0.437985 -0.015616
v -0.028311 0.443664 -0.024733
v -0.029238 0.529794 -0.025457
v -0.020714 0.443664 -0.032014
v -0.021421 0.529794 -0.032978
v 0.028762 0.028778 -0.060040
v -0.018084 0.539597 -0.028704
v -0.024837 0.539597 -0.022991
v -0.034589 0.529794 -0.017811
v 0.061178 0.028778 0.039483
v 0.045365 0.028778 0.050247
v -0.012093 0.063881 -0.064136
v -0.011877 0.028417 -0.064540
v -0.045782 0.063881 -0.050847
v -0.046802 0.086239 0.050905
v -0.038703 0.232496 0.074517
v -0.060035 0.232496 0.064435
v -0.030479 0.086239 0.059206
v -0.015495 0.232496 0.081474
v -0.012093 0.063881 0.063217
v -0.006994 0.316321 0.040732
v 0.003972 0.325929 0.038940
v 0.004884 0.316499 0.040859
v -0.010588 0.294169 0.058236
v -0.013655 0.272016 0.072838
v 0.011619 0.271970 0.072838
v 0.008528 0.294234 -0.058952
v 0.004142 0.325929 -0.039208
v -0.012110 0.539597 0.031333
v -0.006760 0.529794 0.038464
v -0.005775 0.539597 0.033128
v -0.013935 0.529794 0.036139
v -0.022430 0.529794 0.031957
v -0.021724 0.443664 0.030993
v -0.013497 0.443664 0.035046
v 0.052228 0.008917 -0.035627
v 0.042063 0.015854 -0.049260
v 0.038158 0.009073 -0.045707
v -0.029875 0.063881 0.058134
v -0.074933 0.086239 -0.026859
v -0.060772 0.063881 -0.038598
v -0.073262 0.063881 -0.026350
v -0.062095 0.086239 -0.039333
v -0.079451 0.232496 -0.049652
v -0.046802 0.086239 -0.051807
v -0.060035 0.232496 -0.065355
v 0.032530 0.438798 -0.006882
v 0.036092 0.444476 -0.007636
v 0.037709 0.530332 -0.007879
v 0.038457 0.530332 -0.000510
v 0.037402 0.530332 0.007325
v 0.032485 0.539814 0.006753
v 0.029931 0.539814 0.014001
v 0.033091 0.438798 -0.000460
v 0.036714 0.444476 -0.000510
v 0.032253 0.438798 0.006383
v 0.035784 0.444476 0.007082
v 0.034732 0.530332 0.015753
v 0.029960 0.438798 0.013761
v 0.033240 0.444476 0.015268
v 0.022016 0.444476 -0.031232
v 0.025597 0.438798 -0.021674
v 0.028400 0.444476 -0.024047
v 0.029606 0.530332 -0.024771
v 0.035144 0.530332 -0.016284
v 0.030465 0.539814 -0.014653
v 0.030331 0.438798 -0.014239
v 0.033652 0.444476 -0.015799
v -0.018670 0.437985 -0.028855
v -0.014317 0.443664 -0.035302
v -0.014755 0.529794 -0.036396
v -0.005541 0.529794 -0.038568
v 0.018985 0.539814 -0.028042
v 0.032914 0.539814 -0.006942
v 0.003611 0.444476 -0.037954
v 0.003255 0.438798 -0.034209
v 0.013315 0.444476 -0.036103
v 0.013885 0.530332 -0.037196
v 0.022936 0.530332 -0.032196
v 0.003831 0.530332 -0.039178
v 0.011398 0.539814 -0.032147
v -0.007657 0.007988 -0.043709
v -0.008632 0.002293 -0.049048
v -0.019133 0.007988 -0.039473
v -0.009554 0.026235 -0.019774
v -0.027825 0.007988 -0.034679
v -0.003816 0.026235 -0.021893
v 0.009659 0.028778 0.063621
v -0.077535 0.022322 0.011806
v -0.081357 0.022322 -0.000469
v -0.078492 0.022322 -0.013700
v -0.073387 0.015348 -0.013061
v -0.065233 0.015348 0.024118
v -0.069888 0.022322 0.025355
v -0.071792 0.028417 0.025595
v -0.069888 0.022322 -0.026293
v -0.065233 0.015348 -0.025037
v -0.058089 0.022322 0.038847
v -0.040881 0.015348 0.047371
v -0.037164 0.007988 0.026587
v -0.018570 0.026235 0.013256
v -0.044276 0.007988 0.017151
v -0.022126 0.026235 0.008538
v -0.013900 0.026235 0.016860
v 0.112991 0.232445 -0.000460
v 0.086573 0.086215 -0.013655
v 0.108567 0.232445 -0.017204
v 0.090570 0.086215 -0.000451
v 0.086266 0.086215 0.012139
v 0.084753 0.063860 0.011861
v 0.076047 0.063860 -0.026350
v -0.043671 0.316321 -0.009048
v -0.040146 0.316321 -0.018100
v -0.038018 0.325704 -0.008703
v -0.069778 0.294169 -0.012721
v -0.045168 0.316321 -0.000430
v -0.043941 0.316321 0.007822
v -0.038581 0.325704 0.007463
v -0.069436 0.294169 0.011141
v -0.072039 0.294169 -0.000456
v -0.095320 0.272016 -0.000460
v -0.091471 0.272016 0.013904
v 0.000007 0.539705 -0.000043
v -0.033619 0.539597 -0.000267
v -0.032990 0.539597 -0.007776
v -0.029670 0.539597 -0.016180
v -0.012443 0.539597 -0.031590
v 0.003417 0.539814 -0.033599
v 0.025169 0.539814 -0.021818
v 0.033426 0.539814 -0.000510
v -0.025222 0.539597 0.022390
v 0.024303 0.009073 -0.053961
v 0.020202 0.002293 -0.046165
v 0.069824 0.008917 0.010367
v 0.075913 0.015542 0.011204
v 0.067881 0.015542 0.024118
v 0.072920 0.008917 -0.000477
v 0.070148 0.008917 -0.011968
v 0.062191 0.008917 -0.023459
v -0.028667 0.022322 0.058010
v -0.029314 0.028417 0.058496
v -0.026892 0.015348 0.055241
v -0.043739 0.022322 0.049789
v -0.044875 0.028417 0.050247
v 0.037923 0.242326 0.075500
v 0.013267 0.242326 0.081838
v 0.012864 0.252207 0.079847
v 0.036886 0.252207 0.073686
v 0.035469 0.262088 0.071061
v 0.053580 0.271970 0.057602
v 0.060676 0.242326 0.064724
v 0.033537 0.271970 0.067407
v 0.029663 0.086215 0.059819
v 0.037868 0.232445 0.075142
v 0.101837 0.262088 -0.016280
v 0.087807 0.271970 -0.030437
v 0.105919 0.252207 -0.016876
v 0.110144 0.252207 -0.000460
v 0.108809 0.242326 -0.017289
v 0.113196 0.242326 -0.000466
v 0.108492 0.242326 0.015722
v 0.108254 0.232445 0.015660
v 0.099142 0.232445 0.033029
v 0.105607 0.252207 0.015332
v 0.105713 0.262088 -0.000463
v 0.101522 0.262088 0.014725
v 0.095967 0.271970 0.013904
v 0.092923 0.262088 0.031172
v 0.099347 0.242326 -0.034112
v -0.033782 0.316321 -0.026270
v -0.035184 0.325704 -0.017652
v -0.029873 0.325704 -0.025552
v -0.052883 0.294169 -0.036278
v -0.063593 0.294169 -0.024889
v -0.069349 0.272016 -0.044479
v -0.052327 0.272016 -0.058521
v -0.039651 0.294169 -0.047537
v -0.025000 0.316321 -0.034185
v -0.063527 0.294169 0.024028
v -0.034050 0.316321 0.025906
v -0.040019 0.316321 0.017341
v -0.053021 0.294169 0.036261
v -0.069349 0.272016 0.044810
v -0.025914 0.316321 0.032731
v -0.028088 0.335183 -0.023828
v -0.020578 0.335183 -0.030873
v -0.025518 0.437985 -0.022292
v -0.033088 0.335183 -0.016479
v -0.021888 0.325704 -0.033110
v -0.025917 0.294169 0.053649
v -0.033929 0.272016 0.066782
v -0.040120 0.294169 0.046320
v -0.016614 0.316321 0.037844
v 0.055166 0.294234 -0.036606
v 0.072881 0.271970 -0.045729
v 0.053580 0.271970 -0.058521
v 0.066084 0.294234 -0.024301
v 0.040888 0.294234 -0.047084
v 0.026158 0.316499 -0.033301
v 0.034702 0.316499 -0.025659
v 0.023157 0.325929 -0.031922
v 0.016180 0.316499 -0.038407
v 0.005011 0.316499 -0.041209
v 0.025654 0.294234 -0.054730
v 0.011619 0.271970 -0.073758
v 0.033850 0.271970 -0.068327
v 0.023706 0.008917 0.052417
v 0.081280 0.242326 0.050536
v 0.059033 0.252207 0.063150
v 0.079114 0.252207 0.049324
v 0.096694 0.252207 0.032374
v 0.076080 0.262088 0.047568
v 0.056717 0.262088 0.060817
v 0.071943 0.271970 0.045122
v 0.060572 0.232445 0.064435
v 0.081107 0.232445 0.050294
v 0.099347 0.242326 0.033179
v 0.054674 0.294234 0.036261
v 0.034681 0.316499 0.025593
v 0.030505 0.325929 0.024501
v 0.087807 0.271970 0.029518
v 0.040860 0.294234 0.046339
v 0.026104 0.316499 0.032767
v 0.035797 0.335457 0.006802
v 0.035512 0.325929 0.015843
v 0.033359 0.335457 0.014769
v 0.036621 0.335457 -0.000448
v 0.035675 0.335457 -0.007484
v 0.035555 0.325929 -0.016111
v 0.033427 0.335457 -0.015039
v -0.058089 0.022322 -0.038510
v -0.059584 0.028417 -0.038841
v 0.064648 0.086215 -0.040560
v 0.077666 0.086215 -0.026859
v 0.046325 0.063860 -0.050847
v -0.036637 0.262136 -0.070099
v -0.013655 0.272016 -0.073758
v -0.014483 0.262136 -0.077826
v -0.034615 0.272016 -0.066452
v -0.055642 0.262136 -0.061743
v -0.038189 0.252257 -0.072731
v -0.039324 0.242376 -0.074531
v -0.015495 0.232496 -0.082394
v -0.015102 0.252257 -0.080767
v -0.059955 0.242376 -0.065657
v -0.039328 0.232496 -0.074187
v -0.036248 0.335183 0.006990
v -0.032945 0.335183 0.015754
v -0.039377 0.325704 -0.000477
v -0.037027 0.335183 -0.000448
v -0.035794 0.335183 -0.008147
v -0.033069 0.437985 -0.007964
v 0.082231 0.242326 -0.051152
v 0.099142 0.232445 -0.033949
v 0.096694 0.252207 -0.033293
v 0.080051 0.252207 -0.049931
v 0.077024 0.262088 -0.048179
v 0.056717 0.262088 -0.061743
v 0.059033 0.252207 -0.064070
v 0.082045 0.232445 -0.050902
v 0.092923 0.262088 -0.032098
v -0.104841 0.242376 0.015722
v -0.109677 0.242376 -0.000466
v -0.101648 0.252257 0.015332
v -0.106281 0.252257 -0.000460
v -0.097265 0.262136 0.014725
v -0.101536 0.262136 -0.000463
v -0.098209 0.262136 -0.016595
v -0.092409 0.272016 -0.015761
v -0.083871 0.272016 -0.030437
v -0.105793 0.242376 -0.017606
v -0.102586 0.252257 -0.017189
v -0.105955 0.232496 -0.017517
v -0.096367 0.232496 0.033029
v -0.093265 0.252257 0.032374
v -0.089214 0.262136 0.031172
v -0.058150 0.252257 0.063150
v -0.036007 0.262136 0.070432
v -0.055642 0.262136 0.060817
v -0.037564 0.252257 0.073061
v -0.038690 0.242376 0.074866
v -0.015102 0.252257 0.079847
v -0.014483 0.262136 0.076900
v -0.052327 0.272016 0.057602
v 0.046411 0.007988 -0.018034
v 0.023218 0.026235 -0.009055
v 0.019619 0.026235 -0.013773
v 0.014072 0.026235 -0.017378
v 0.028119 0.007988 -0.034679
v 0.039213 0.007988 -0.027469
v 0.031542 0.002293 -0.038907
v 0.028640 0.335457 0.022876
v 0.025549 0.438798 0.021717
v 0.029970 0.086215 -0.060722
v 0.029357 0.063860 -0.059678
v 0.047335 0.086215 -0.051807
v 0.013288 0.232445 -0.082394
v 0.010150 0.086215 -0.065343
v 0.035784 0.262088 -0.071988
v 0.037199 0.252207 -0.074605
v 0.038240 0.242326 -0.076433
v 0.060676 0.242326 -0.065657
v 0.060572 0.232445 -0.065355
v 0.038180 0.232445 -0.076061
v -0.079346 0.242376 -0.049884
v -0.096367 0.232496 -0.033949
v -0.096200 0.242376 -0.034112
v -0.093265 0.252257 -0.033293
v -0.076958 0.252257 -0.048681
v -0.058150 0.252257 -0.064070
v -0.073687 0.262136 -0.046920
v -0.089214 0.262136 -0.032098
v -0.081772 0.086239 0.012139
v -0.082928 0.063881 -0.000460
v -0.084928 0.086239 -0.000451
v -0.082692 0.086239 -0.013962
v -0.109916 0.232496 -0.000460
v -0.105017 0.232496 0.015660
v -0.074933 0.086239 0.025956
v 0.013440 0.335457 0.034358
v 0.011828 0.438798 0.031888
v 0.021674 0.335457 0.029281
v 0.014330 0.325929 0.036868
v 0.013314 0.335457 -0.034210
v 0.012001 0.438798 -0.032540
v 0.014169 0.325929 -0.036634
v -0.029305 0.022322 -0.057673
v -0.029939 0.028417 -0.058166
v -0.044875 0.028417 -0.051166
v -0.043739 0.022322 -0.050727
v -0.027518 0.015348 -0.054911
v -0.073687 0.262136 0.047253
v -0.076958 0.252257 0.049012
v -0.096200 0.242376 0.033179
v -0.079346 0.242376 0.050219
v -0.059955 0.242376 0.064724
v -0.083871 0.272016 0.029518
v 0.071931 0.294234 0.011075
v 0.066067 0.294234 0.023650
v 0.044312 0.316499 0.007695
v 0.041036 0.316499 0.016605
v 0.038098 0.325929 0.007292
v 0.038966 0.325929 -0.000477
v 0.045583 0.316499 -0.000430
v 0.044238 0.316499 -0.008501
v 0.074523 0.294234 -0.000456
v 0.072054 0.294234 -0.012281
v 0.099751 0.271970 -0.000460
v 0.096279 0.271970 -0.015448
v 0.037931 0.325929 -0.008037
v 0.041068 0.316499 -0.016954
v 0.028491 0.335457 -0.022834
v 0.019843 0.438798 -0.028150
v 0.021778 0.335457 -0.029793
v 0.030329 0.325929 -0.024456
v -0.013815 0.335183 0.033771
v -0.005941 0.437985 0.033565
v -0.014730 0.325704 0.036215
v -0.012166 0.437985 0.031587
v 0.025529 0.294234 0.054271
v 0.016250 0.316499 0.038431
v 0.023085 0.325929 0.031405
v 0.008462 0.294234 0.058301
v 0.063728 0.086215 0.039964
v 0.047335 0.086215 0.050905
v 0.077666 0.086215 0.025956
v 0.076047 0.063860 0.025431
v 0.062437 0.063860 0.039241
v -0.014144 0.335183 -0.034094
v -0.005617 0.335183 -0.036223
v -0.012905 0.437985 -0.031818
v -0.026409 0.294169 -0.053587
v -0.010458 0.294169 -0.058821
v -0.016948 0.316321 -0.038052
v -0.006739 0.316321 -0.040954
v -0.005998 0.325704 -0.038866
v -0.015038 0.325704 -0.036568
v -0.028408 0.335183 0.023345
v -0.030198 0.437985 0.015375
v -0.025645 0.437985 0.022299
v -0.019580 0.437985 0.027935
v -0.021711 0.335183 0.029290
v -0.023105 0.325704 0.031357
v -0.030229 0.325704 0.024990
v -0.035014 0.325704 0.016833
v 0.044001 0.002293 -0.030811
v 0.056747 0.015542 -0.037914
v -0.041767 0.002293 -0.029561
v -0.041767 0.002293 0.029892
vt 0.787109 0.063049
vt 0.810547 0.135010
vt 0.812500 0.063049
vt 0.839844 0.135010
vt 0.842285 0.063049
vt 0.156616 0.063049
vt 0.182861 0.135254
vt 0.180542 0.063049
vt 0.467529 0.612793
vt 0.504883 0.628906
vt 0.467529 0.628906
vt 0.502441 0.798340
vt 0.657715 0.040710
vt 0.680176 0.048004
vt 0.626953 0.048004
vt 0.763672 0.055328
vt 0.702148 0.055328
vt 0.734863 0.048004
vt 0.506836 0.055328
vt 0.454346 0.048004
vt 0.506836 0.048004
vt 0.555176 0.048004
vt 0.549316 0.040710
vt 0.597656 0.040710
vt 0.560547 0.055328
vt 0.608887 0.048004
vt 0.355957 0.040710
vt 0.389893 0.048004
vt 0.333740 0.048004
vt 0.545898 0.061707
vt 0.534668 0.074768
vt 0.530762 0.058655
vt 0.526855 0.073242
vt 0.548340 0.096558
vt 0.574219 0.105347
vt 0.561523 0.110962
vt 0.586914 0.099731
vt 0.554688 0.093750
vt 0.557617 0.090820
vt 0.560547 0.087830
vt 0.557617 0.084900
vt 0.597656 0.087830
vt 0.592285 0.081909
vt 0.586914 0.075989
vt 0.592285 0.093750
vt 0.447998 0.041351
vt 0.524902 0.052185
vt 0.444824 0.052460
vt 0.498291 0.114014
vt 0.484375 0.110962
vt 0.510742 0.100891
vt 0.542480 0.099365
vt 0.472900 0.070374
vt 0.498047 0.079102
vt 0.461670 0.075989
vt 0.492432 0.081909
vt 0.489746 0.084900
vt 0.487305 0.087830
vt 0.489746 0.090820
vt 0.451660 0.087830
vt 0.456543 0.093750
vt 0.456543 0.081909
vt 0.764160 0.041870
vt 0.764648 0.052185
vt 0.788574 0.052185
vt 0.787598 0.041870
vt 0.813965 0.052185
vt 0.791504 0.052185
vt 0.815918 0.063049
vt 0.790527 0.063049
vt 0.767578 0.052185
vt 0.670898 0.063049
vt 0.710938 0.052185
vt 0.657227 0.052185
vt 0.370605 0.880371
vt 0.371582 0.967285
vt 0.361084 0.880371
vt 0.367920 0.798340
vt 0.352295 0.880371
vt 0.363525 0.880371
vt 0.374512 0.798340
vt 0.376953 0.798340
vt 0.385254 0.798340
vt 0.583496 0.041870
vt 0.658691 0.052185
vt 0.591797 0.052185
vt 0.521973 0.041870
vt 0.512207 0.117065
vt 0.530762 0.117065
vt 0.517578 0.102417
vt 0.526855 0.102417
vt 0.534668 0.100891
vt 0.545898 0.114014
vt 0.727051 0.048126
vt 0.689453 0.055542
vt 0.667480 0.048126
vt 0.645020 0.040710
vt 0.697754 0.040710
vt 0.402344 0.798340
vt 0.392090 0.880371
vt 0.383057 0.798340
vt 0.591309 0.052185
vt 0.537109 0.880371
vt 0.532227 0.798340
vt 0.561523 0.798340
vt 0.503906 0.880371
vt 0.570313 0.880371
vt 0.564941 0.967285
vt 0.534180 0.967285
vt 0.404297 0.798340
vt 0.394287 0.880371
vt 0.423584 0.798340
vt 0.415527 0.880371
vt 0.421875 0.967285
vt 0.402344 0.967285
vt 0.372803 0.880371
vt 0.303955 0.176514
vt 0.340088 0.446289
vt 0.251953 0.446289
vt 0.372314 0.176514
vt 0.428223 0.446289
vt 0.505371 0.612793
vt 0.461914 0.599121
vt 0.510254 0.599121
vt 0.448730 0.556641
vt 0.444824 0.967285
vt 0.466797 0.880371
vt 0.469238 0.967285
vt 0.440186 0.880371
vt 0.421875 0.798340
vt 0.413818 0.880371
vt 0.445557 0.798340
vt 0.320313 0.055878
vt 0.282227 0.048126
vt 0.344482 0.048279
vt 0.197021 0.176514
vt 0.259521 0.135254
vt 0.206177 0.135254
vt 0.251953 0.176514
vt 0.255859 0.446289
vt 0.307129 0.176514
vt 0.619629 0.798340
vt 0.635254 0.880371
vt 0.646973 0.880371
vt 0.636230 0.880371
vt 0.625977 0.967285
vt 0.614746 0.967285
vt 0.631348 0.798340
vt 0.620605 0.798340
vt 0.624512 0.880371
vt 0.609863 0.798340
vt 0.585449 0.798340
vt 0.596680 0.880371
vt 0.623535 0.880371
vt 0.613770 0.967285
vt 0.609375 0.798340
vt 0.537598 0.880371
vt 0.503418 0.798340
vt 0.504883 0.880371
vt 0.510742 0.074768
vt 0.498291 0.061707
vt 0.512207 0.058655
vt 0.484375 0.064758
vt 0.522949 0.087830
vt 0.517578 0.073242
vt 0.199707 0.052460
vt 0.244019 0.041351
vt 0.221680 0.052460
vt 0.199463 0.063049
vt 0.204346 0.052460
vt 0.226074 0.052460
vt 0.248047 0.041351
vt 0.461670 0.099731
vt 0.498047 0.096558
vt 0.472900 0.105347
vt 0.492432 0.093750
vt 0.948730 0.446289
vt 0.820313 0.176270
vt 0.910645 0.446289
vt 0.850586 0.176270
vt 0.824219 0.176270
vt 0.308350 0.599121
vt 0.323242 0.599121
vt 0.229492 0.556641
vt 0.206909 0.556641
vt 0.225098 0.556641
vt 0.320068 0.599121
vt 0.105469 0.506836
vt 0.130127 0.506836
vt 0.166138 0.964355
vt 0.165405 0.904785
vt 0.192261 0.963379
vt 0.221558 0.957520
vt 0.484619 0.040710
vt 0.406006 0.048279
vt 0.420898 0.040710
vt 0.458740 0.048126
vt 0.453125 0.055542
vt 0.393799 0.055542
vt 0.383301 0.052460
vt 0.308105 0.063049
vt 0.322021 0.052460
vt 0.374756 0.063049
vt 0.540527 0.461426
vt 0.631348 0.461426
vt 0.538574 0.476563
vt 0.626953 0.476563
vt 0.623047 0.491699
vt 0.921387 0.476563
vt 0.886719 0.476563
vt 0.874512 0.491699
vt 0.898438 0.461426
vt 0.935059 0.461426
vt 0.881836 0.446289
vt 0.915527 0.446289
vt 0.903320 0.461426
vt 0.891113 0.476563
vt 0.907715 0.491699
vt 0.878906 0.491699
vt 0.364258 0.599121
vt 0.372314 0.612793
vt 0.394043 0.612793
vt 0.224365 0.506836
vt 0.294434 0.556641
vt 0.285889 0.506836
vt 0.339355 0.556641
vt 0.393066 0.599121
vt 0.245239 0.556641
vt 0.361816 0.599121
vt 0.332764 0.599121
vt 0.291016 0.556641
vt 0.390869 0.599121
vt 0.415527 0.612793
vt 0.394531 0.628906
vt 0.416016 0.628906
vt 0.336670 0.556641
vt 0.392578 0.556641
vt 0.426270 0.599121
vt 0.697266 0.556641
vt 0.766602 0.506836
vt 0.699707 0.506836
vt 0.646973 0.556641
vt 0.593750 0.599121
vt 0.627441 0.599121
vt 0.747559 0.556641
vt 0.552246 0.599121
vt 0.511230 0.599121
vt 0.505859 0.612793
vt 0.584961 0.556641
vt 0.617676 0.506836
vt 0.535645 0.506836
vt 0.715332 0.476563
vt 0.796387 0.461426
vt 0.787598 0.476563
vt 0.859375 0.476563
vt 0.778320 0.491699
vt 0.708496 0.491699
vt 0.729004 0.446289
vt 0.805664 0.446289
vt 0.647949 0.556641
vt 0.698730 0.556641
vt 0.628418 0.599121
vt 0.594238 0.599121
vt 0.625977 0.612793
vt 0.636719 0.628906
vt 0.624512 0.628906
vt 0.635254 0.628906
vt 0.625000 0.612793
vt 0.624023 0.628906
vt 0.356934 0.491699
vt 0.437012 0.506836
vt 0.435303 0.491699
vt 0.361572 0.506836
vt 0.433350 0.476563
vt 0.352295 0.476563
vt 0.351318 0.612793
vt 0.361084 0.628906
vt 0.352295 0.628906
vt 0.363770 0.628906
vt 0.784180 0.476563
vt 0.855469 0.476563
vt 0.793457 0.461426
vt 0.775391 0.491699
vt 0.706543 0.491699
vt 0.713379 0.476563
vt 0.844238 0.491699
vt 0.103394 0.476563
vt 0.064453 0.461426
vt 0.089966 0.461426
vt 0.078125 0.476563
vt 0.116760 0.491699
vt 0.091797 0.491699
vt 0.122498 0.491699
vt 0.135742 0.506836
vt 0.162720 0.506836
vt 0.096069 0.461426
vt 0.109314 0.476563
vt 0.132813 0.476563
vt 0.145142 0.491699
vt 0.267090 0.476563
vt 0.354248 0.491699
vt 0.274902 0.491699
vt 0.349609 0.476563
vt 0.431885 0.476563
vt 0.344727 0.461426
vt 0.433594 0.491699
vt 0.554688 0.081909
vt 0.548340 0.079102
vt 0.542480 0.076294
vt 0.561523 0.064758
vt 0.574219 0.070374
vt 0.603027 0.176270
vt 0.530273 0.176270
vt 0.542480 0.446289
vt 0.630371 0.461426
vt 0.720215 0.461426
vt 0.727051 0.446289
vt 0.126099 0.461426
vt 0.194824 0.461426
vt 0.113953 0.446289
vt 0.138306 0.476563
vt 0.204590 0.476563
vt 0.214478 0.491699
vt 0.270996 0.476563
vt 0.150513 0.491699
vt 0.148071 0.176514
vt 0.158813 0.135254
vt 0.167847 0.176514
vt 0.050751 0.446289
vt 0.172852 0.176514
vt 0.076599 0.446289
vt 0.538086 0.628906
vt 0.377197 0.063049
vt 0.385498 0.052460
vt 0.311279 0.063049
vt 0.324951 0.052460
vt 0.199951 0.476563
vt 0.120483 0.461426
vt 0.189941 0.461426
vt 0.677734 0.599121
vt 0.750000 0.556641
vt 0.771973 0.556641
vt 0.662598 0.599121
vt 0.637695 0.612793
vt 0.647949 0.612793
vt 0.690918 0.599121
vt 0.676270 0.599121
vt 0.792480 0.556641
vt 0.769531 0.556641
vt 0.894043 0.506836
vt 0.862793 0.506836
vt 0.636719 0.612793
vt 0.661133 0.599121
vt 0.597168 0.628906
vt 0.570801 0.628906
vt 0.440918 0.628906
vt 0.469238 0.798340
vt 0.522949 0.556641
vt 0.585449 0.556641
vt 0.788574 0.135010
vt 0.797852 0.176270
vt 0.737305 0.176270
vt 0.729980 0.135010
vt 0.427979 0.599121
vt 0.450195 0.556641
vt 0.394775 0.556641
vt 0.463135 0.599121
vt 0.468750 0.612793
vt 0.442139 0.612793
vt 0.392578 0.628906
vt 0.414307 0.628906
vt 0.413818 0.612793
vt 0.391846 0.612793
vt 0.369873 0.612793
vt 0.282471 0.506836
vt 0.429932 0.446289
vt 0.342773 0.446289
vt 0.347412 0.461426
vt 0.701660 0.506836
vt 0.618652 0.506836
vt 0.184937 0.446289
vt 0.612793 0.040710
vt 0.228149 0.041351
vt 0.571289 0.612793
vt 0.870605 0.461426
vt 0.802246 0.446289
vt 0.877441 0.446289
vt 0.634766 0.446289
vt 0.470215 0.967285
vt 0.504395 0.967285
vt 0.467773 0.880371
vt 0.470215 0.798340
vt 0.785156 0.135010
vt 0.813965 0.135010
vt 0.204102 0.063049
vt 0.175659 0.063049
vt 0.177979 0.135254
vt 0.201660 0.135254
vt 0.529785 0.176270
vt 0.441895 0.135254
vt 0.528320 0.135010
vt 0.440674 0.176514
vt 0.541992 0.446289
vt 0.378174 0.135254
vt 0.312744 0.135254
vt 0.374512 0.176514
vt 0.443359 0.135254
vt 0.442139 0.176514
vt 0.429932 0.461426
vt 0.537109 0.491699
vt 0.435547 0.506836
vt 0.431641 0.461426
vt 0.539063 0.476563
vt 0.537598 0.491699
vt 0.192261 0.176514
vt 0.180054 0.446289
vt 0.108093 0.446289
vt 0.248047 0.176514
vt 0.255615 0.135254
vt 0.309570 0.135254
vt 0.454590 0.048004
vt 0.539063 0.055542
vt 0.448975 0.055328
vt 0.534180 0.048126
vt 0.459961 0.040710
vt 0.529297 0.040710
vt 0.479248 0.048279
vt 0.565918 0.055664
vt 0.473633 0.055878
vt 0.559570 0.048187
vt 0.553711 0.040710
vt 0.640625 0.055328
vt 0.706055 0.040710
vt 0.505859 0.628906
vt 0.468750 0.628906
vt 0.663086 0.048126
vt 0.646484 0.040710
vt 0.608887 0.048126
vt 0.620117 0.055542
vt 0.356689 0.048004
vt 0.393799 0.055328
vt 0.340332 0.055328
vt 0.404785 0.048004
vt 0.416016 0.040710
vt 0.506836 0.040710
vt 0.620117 0.055328
vt 0.663086 0.048004
vt 0.679199 0.055328
vt 0.375977 0.055328
vt 0.311768 0.055328
vt 0.403564 0.040710
vt 0.528320 0.063049
vt 0.441406 0.063049
vt 0.503906 0.099365
vt 0.600098 0.135010
vt 0.672852 0.063049
vt 0.671387 0.135010
vt 0.600586 0.063049
vt 0.446045 0.052460
vt 0.449463 0.041351
vt 0.525391 0.052185
vt 0.442871 0.063049
vt 0.528809 0.063049
vt 0.503906 0.076294
vt 0.742676 0.041870
vt 0.767090 0.041870
vt 0.745117 0.041870
vt 0.692871 0.041870
vt 0.643555 0.041870
vt 0.729004 0.063049
vt 0.380371 0.967285
vt 0.362793 0.967285
vt 0.374023 0.967285
vt 0.382568 0.967285
vt 0.644531 0.041870
vt 0.694824 0.041870
vt 0.713379 0.052185
vt 0.731445 0.063049
vt 0.528809 0.135010
vt 0.727539 0.135010
vt 0.669922 0.135010
vt 0.756836 0.055542
vt 0.253906 0.063049
vt 0.278809 0.048004
vt 0.249878 0.055328
vt 0.583008 0.041870
vt 0.600098 0.063049
vt 0.503906 0.967285
vt 0.349365 0.048126
vt 0.365723 0.040710
vt 0.404785 0.048126
vt 0.333008 0.055542
vt 0.585938 0.798340
vt 0.597168 0.880371
vt 0.589844 0.967285
vt 0.400391 0.967285
vt 0.420166 0.967285
vt 0.599121 0.135010
vt 0.375732 0.135254
vt 0.257813 0.063049
vt 0.523438 0.556641
vt 0.252930 0.055542
vt 0.368896 0.040710
vt 0.634766 0.967285
vt 0.446777 0.798340
vt 0.441650 0.880371
vt 0.446045 0.967285
vt 0.589355 0.967285
vt 0.625000 0.967285
vt 0.534668 0.967285
vt 0.180176 0.052460
vt 0.206055 0.041351
vt 0.223877 0.041351
vt 0.271729 0.052460
vt 0.289795 0.041351
vt 0.335693 0.041351
vt 0.794434 0.176270
vt 0.335693 0.599121
vt 0.362793 0.612793
vt 0.249268 0.556641
vt 0.360352 0.612793
vt 0.157593 0.506836
vt 0.141113 0.963379
vt 0.245239 0.948730
vt 0.265137 0.937012
vt 0.275146 0.926758
vt 0.282471 0.913086
vt 0.281982 0.898438
vt 0.277100 0.884277
vt 0.262695 0.870605
vt 0.241089 0.859863
vt 0.216187 0.850098
vt 0.189331 0.845703
vt 0.166992 0.845215
vt 0.141724 0.846680
vt 0.116516 0.851074
vt 0.089172 0.859375
vt 0.069214 0.870605
vt 0.055084 0.884766
vt 0.048523 0.899414
vt 0.050018 0.915039
vt 0.056244 0.926270
vt 0.068115 0.938965
vt 0.087341 0.949707
vt 0.109436 0.957520
vt 0.391113 0.055878
vt 0.506836 0.055542
vt 0.506836 0.048126
vt 0.558105 0.048126
vt 0.552246 0.040710
vt 0.464355 0.040710
vt 0.563477 0.055542
vt 0.391846 0.041351
vt 0.722168 0.461426
vt 0.635742 0.446289
vt 0.603516 0.176270
vt 0.677246 0.176270
vt 0.833496 0.506836
vt 0.866699 0.506836
vt 0.848145 0.491699
vt 0.836914 0.506836
vt 0.866699 0.461426
vt 0.219971 0.506836
vt 0.373047 0.628906
vt 0.358887 0.506836
vt 0.440674 0.612793
vt 0.598145 0.612793
vt 0.538574 0.612793
vt 0.604980 0.048126
vt 0.618652 0.055542
vt 0.591309 0.040710
vt 0.769531 0.506836
vt 0.598633 0.612793
vt 0.571777 0.612793
vt 0.646973 0.628906
vt 0.275391 0.052460
vt 0.338379 0.041351
vt 0.293213 0.041351
vt 0.734863 0.176270
vt 0.675781 0.176270
vt 0.278564 0.491699
vt 0.263428 0.461426
vt 0.370850 0.628906
vt 0.082825 0.446289
vt 0.259521 0.461426
vt 0.597656 0.628906
vt 0.622070 0.491699
vt 0.625977 0.476563
vt 0.394043 0.041351
vt 0.209961 0.491699
vt 0.442383 0.628906
vt 0.311523 0.040710
vt 0.679199 0.055542
vt 0.373047 0.040710
vt 0.307617 0.040710
usemtl bayotex0
s 1
f 4/1 3/2 5/3
f 6/4 5/3 3/2
f 5/3 6/4 7/5
f 11/6 10/7 8/8
f 32/9 31/10 33/11
f 34/12 33/11 31/10
f 42/13 41/14 39/15
f 41/14 43/16 44/17
f 43/16 41/14 45/18
f 50/19 49/20 51/21
f 52/22 53/23 54/24
f 51/21 55/25 50/19
f 55/25 51/21 52/22
f 54/24 56/26 52/22
f 59/27 58/28 57/29
f 61/30 62/31 63/32
f 64/33 63/32 62/31
f 67/34 66/35 65/36
f 66/35 67/34 68/37
f 69/38 68/37 67/34
f 68/37 69/38 70/39
f 71/40 72/41 73/42
f 74/43 73/42 72/41
f 73/42 74/43 75/43
f 76/44 75/43 74/43
f 68/37 77/37 66/35
f 77/37 68/37 78/45
f 79/45 78/45 68/37
f 78/45 79/45 80/42
f 73/42 80/42 79/45
f 80/42 73/42 75/43
f 70/39 79/45 68/37
f 79/45 70/39 73/42
f 71/40 73/42 70/39
f 84/46 83/47 81/48
f 86/49 85/50 87/49
f 88/51 87/49 85/50
f 90/52 67/34 65/36
f 94/53 95/54 96/55
f 97/56 96/55 95/54
f 96/55 97/56 98/57
f 99/58 100/59 101/60
f 102/61 101/60 100/59
f 96/55 103/55 94/53
f 103/55 96/55 104/62
f 105/62 104/62 96/55
f 104/62 105/62 106/60
f 101/60 106/60 105/62
f 98/57 105/62 96/55
f 105/62 98/57 101/60
f 99/58 101/60 98/57
f 113/63 112/64 114/65
f 114/65 115/66 113/63
f 115/66 114/65 116/67
f 117/68 118/69 119/70
f 119/70 120/71 117/68
f 123/72 122/73 121/74
f 126/75 125/76 127/77
f 130/78 128/79 129/80
f 128/79 130/78 127/77
f 131/81 127/77 130/78
f 129/80 133/82 130/78
f 133/82 129/80 134/83
f 130/78 135/78 131/81
f 132/81 131/81 135/78
f 137/84 136/85 138/86
f 138/86 139/87 137/84
f 142/88 143/89 144/88
f 143/89 142/88 145/89
f 146/90 145/89 142/88
f 145/89 146/90 147/91
f 148/92 145/89 147/91
f 145/89 148/92 149/93
f 149/93 150/93 145/89
f 143/89 145/89 150/93
f 155/94 154/95 156/96
f 157/97 155/94 156/96
f 155/94 157/97 158/98
f 163/99 164/100 165/101
f 123/72 121/74 168/102
f 178/103 177/104 175/105
f 177/104 178/103 179/106
f 180/107 178/103 175/105
f 178/103 180/107 181/108
f 182/109 178/103 181/108
f 187/110 188/111 189/112
f 190/113 189/112 188/111
f 188/111 192/114 190/113
f 192/114 188/111 193/115
f 194/116 193/115 188/111
f 200/117 201/118 202/119
f 201/118 200/117 203/120
f 203/120 204/121 201/118
f 207/122 206/123 208/124
f 209/125 208/124 206/123
f 214/126 215/127 216/128
f 215/127 214/126 217/129
f 219/130 217/129 218/131
f 217/129 219/130 220/132
f 222/133 221/134 223/135
f 225/136 226/137 227/138
f 226/137 225/136 228/139
f 231/140 230/141 228/139
f 233/142 234/143 235/144
f 236/145 237/146 238/147
f 233/142 239/148 232/142
f 239/148 233/142 240/148
f 235/144 240/148 233/142
f 240/148 235/144 236/145
f 240/148 241/149 239/148
f 241/149 240/148 242/149
f 236/145 242/149 240/148
f 242/149 236/145 243/150
f 238/147 243/150 236/145
f 242/149 244/151 241/149
f 244/151 242/149 245/151
f 243/150 245/151 242/149
f 247/152 246/105 248/152
f 249/153 248/152 246/105
f 248/152 249/153 250/154
f 251/155 250/154 249/153
f 248/152 252/156 247/152
f 252/156 248/152 253/156
f 250/154 253/156 248/152
f 263/157 262/104 260/158
f 262/104 263/157 264/107
f 265/159 263/157 260/158
f 270/160 269/161 267/162
f 269/161 270/160 271/163
f 89/164 270/160 272/165
f 267/162 272/165 270/160
f 274/166 278/167 279/168
f 280/169 274/166 279/168
f 276/170 281/171 282/172
f 287/173 286/174 285/175
f 286/174 287/173 288/176
f 100/59 288/176 287/173
f 290/177 291/178 292/179
f 291/178 290/177 293/180
f 294/181 293/180 290/177
f 301/182 297/183 300/184
f 305/185 304/186 302/187
f 304/186 305/185 306/188
f 300/184 306/188 305/185
f 305/185 301/182 300/184
f 301/182 305/185 302/187
f 307/189 304/186 306/188
f 309/190 308/191 310/192
f 311/193 310/192 308/191
f 37/194 317/195 318/196
f 319/197 320/198 321/199
f 325/200 329/201 328/202
f 329/201 325/200 326/203
f 331/204 330/205 332/206
f 333/207 332/206 330/205
f 332/206 333/207 334/208
f 343/209 342/210 340/211
f 342/210 343/209 344/212
f 345/213 344/212 343/209
f 348/214 347/215 346/216
f 343/209 346/216 345/213
f 346/216 343/209 349/217
f 350/218 349/217 343/209
f 349/217 350/218 351/219
f 340/211 350/218 343/209
f 355/220 356/221 357/222
f 360/223 358/224 361/225
f 362/226 361/225 358/224
f 355/220 362/226 358/224
f 362/226 355/220 363/227
f 364/228 365/229 366/230
f 365/229 364/228 367/231
f 369/232 365/229 367/231
f 374/233 370/234 371/235
f 377/236 375/237 378/238
f 379/239 380/240 381/241
f 383/242 379/239 381/241
f 379/239 383/242 384/243
f 385/244 379/239 384/243
f 379/239 385/244 382/245
f 387/246 388/247 213/248
f 388/247 387/246 389/249
f 391/250 390/251 389/249
f 394/252 393/253 395/254
f 396/255 395/254 393/253
f 395/254 397/256 394/252
f 398/257 394/252 397/256
f 393/253 400/258 401/259
f 407/260 403/261 404/262
f 404/262 408/263 407/260
f 410/264 409/265 411/266
f 413/267 414/268 415/269
f 421/270 422/271 423/272
f 422/271 421/270 424/273
f 429/274 426/275 421/270
f 434/276 432/277 435/278
f 436/279 434/276 435/278
f 441/280 440/281 438/282
f 440/281 441/280 442/283
f 443/284 442/283 441/280
f 441/280 444/285 443/284
f 444/285 441/280 438/282
f 442/283 446/286 440/281
f 449/287 448/288 447/289
f 448/288 449/287 450/290
f 451/291 450/290 449/287
f 450/290 451/291 452/292
f 453/293 454/294 455/295
f 450/290 456/296 448/288
f 456/296 450/290 457/297
f 453/293 457/297 450/290
f 447/289 460/298 449/287
f 451/291 449/287 460/298
f 461/299 451/291 460/298
f 462/300 463/301 464/302
f 463/301 462/300 465/303
f 467/304 465/303 466/305
f 465/303 467/304 463/301
f 468/306 463/301 467/304
f 72/41 470/44 74/43
f 470/44 72/41 471/307
f 472/308 473/309 474/310
f 472/308 470/44 471/307
f 470/44 472/308 475/311
f 474/310 475/311 472/308
f 475/311 474/310 476/310
f 470/44 76/44 74/43
f 479/312 483/313 482/314
f 486/315 487/316 488/317
f 492/318 490/319 491/320
f 490/319 492/318 493/321
f 494/322 490/319 493/321
f 496/323 494/322 493/321
f 494/322 496/323 495/324
f 497/325 496/323 493/321
f 500/326 499/327 498/328
f 500/326 502/329 501/330
f 502/329 500/326 503/331
f 498/328 503/331 500/326
f 261/158 510/104 509/332
f 513/333 512/334 514/335
f 515/336 514/335 512/334
f 518/337 519/338 520/339
f 525/340 524/341 523/342
f 524/341 525/340 526/343
f 527/344 525/340 528/345
f 529/346 528/345 525/340
f 528/345 529/346 530/347
f 531/348 530/347 529/346
f 530/347 531/348 532/349
f 533/350 532/349 531/348
f 532/349 533/350 534/351
f 523/342 529/346 525/340
f 529/346 523/342 531/348
f 533/350 531/348 523/342
f 530/347 535/352 528/345
f 532/349 536/353 530/347
f 537/354 539/355 538/105
f 544/132 541/356 542/357
f 548/358 545/359 546/246
f 552/360 551/361 549/362
f 549/362 553/363 552/360
f 559/364 558/365 557/366
f 558/365 559/364 560/367
f 561/368 560/367 559/364
f 559/364 562/369 561/368
f 564/101 563/370 565/99
f 566/130 565/99 563/370
f 563/370 567/371 566/130
f 567/371 563/370 568/372
f 569/373 568/372 563/370
f 563/370 570/374 569/373
f 464/302 463/301 469/375
f 102/61 100/59 287/173
f 428/376 431/377 427/378
f 335/379 337/380 334/208
f 450/290 452/292 453/293
f 228/139 229/381 231/140
f 42/13 39/15 40/382
f 282/172 277/383 276/170
f 386/384 385/244 384/243
f 421/270 423/272 429/274
f 396/255 393/253 402/385
f 445/386 438/282 439/387
f 488/317 489/388 486/315
f 265/159 1/389 313/390
f 1/389 265/159 257/391
f 257/391 265/159 260/158
f 257/391 260/158 2/392
f 261/158 2/392 260/158
f 2/392 261/158 47/392
f 3/2 4/1 296/393
f 295/394 7/5 6/4
f 7/5 295/394 118/69
f 552/360 118/69 295/394
f 118/69 552/360 119/70
f 8/8 227/138 9/395
f 227/138 8/8 10/7
f 10/7 11/6 499/327
f 12/396 499/327 11/6
f 499/327 12/396 13/397
f 280/169 13/397 12/396
f 13/397 280/169 14/398
f 15/399 205/400 16/401
f 205/400 15/399 17/402
f 21/403 17/402 15/399
f 17/402 21/403 204/121
f 230/141 18/404 199/405
f 18/404 230/141 19/406
f 231/140 19/406 230/141
f 19/406 231/140 431/377
f 19/406 197/407 18/404
f 197/407 19/406 20/408
f 428/376 20/408 19/406
f 331/204 204/121 21/403
f 204/121 331/204 22/409
f 332/206 22/409 331/204
f 22/409 332/206 467/304
f 23/410 467/304 332/206
f 467/304 23/410 468/306
f 211/251 468/306 23/410
f 468/306 211/251 210/411
f 24/412 482/314 428/376
f 482/314 24/412 25/204
f 429/274 25/204 24/412
f 25/204 429/274 26/413
f 423/272 26/413 429/274
f 26/413 423/272 27/414
f 422/271 27/414 423/272
f 27/414 422/271 390/251
f 504/415 28/416 459/417
f 28/416 504/415 29/418
f 14/398 29/418 504/415
f 29/418 14/398 160/419
f 29/418 202/119 28/416
f 202/119 29/418 200/117
f 30/420 200/117 29/418
f 31/10 32/9 207/122
f 33/11 34/12 542/357
f 60/421 139/422 84/423
f 139/422 60/421 35/424
f 144/425 35/424 60/421
f 35/424 144/425 143/426
f 36/427 108/428 167/429
f 108/428 36/427 38/430
f 37/194 38/430 36/427
f 38/430 37/194 268/431
f 38/430 516/432 108/428
f 516/432 38/430 39/15
f 268/431 39/15 38/430
f 39/15 268/431 40/382
f 39/15 44/17 516/432
f 44/17 39/15 41/14
f 42/13 45/18 41/14
f 45/18 42/13 573/433
f 46/434 47/392 261/158
f 47/392 46/434 555/435
f 213/248 555/435 46/434
f 555/435 213/248 561/368
f 221/436 76/24 571/437
f 76/24 221/436 324/438
f 124/439 324/438 221/436
f 45/440 282/441 43/442
f 282/441 45/440 48/443
f 103/444 48/443 45/440
f 48/443 103/444 49/20
f 104/425 49/20 103/444
f 49/20 104/425 106/445
f 48/443 277/423 282/441
f 277/423 48/443 49/20
f 49/20 50/19 277/423
f 106/445 51/21 49/20
f 51/21 106/445 52/22
f 53/23 52/22 106/445
f 52/22 278/446 55/25
f 278/446 52/22 56/26
f 56/26 54/24 161/447
f 574/437 161/447 54/24
f 162/448 56/26 161/447
f 56/26 162/448 278/446
f 57/29 327/449 284/450
f 327/449 57/29 58/28
f 58/28 59/27 86/451
f 58/28 84/423 327/449
f 84/423 58/28 60/421
f 144/425 60/421 58/28
f 474/310 318/30 476/310
f 318/30 474/310 61/30
f 62/31 61/30 474/310
f 63/32 64/33 267/162
f 272/165 267/162 64/33
f 61/30 37/32 318/30
f 37/32 61/30 63/32
f 63/32 268/162 37/32
f 268/162 63/32 267/162
f 65/36 158/35 157/36
f 158/35 65/36 66/35
f 89/164 70/39 69/38
f 70/39 89/164 71/40
f 72/41 71/40 89/164
f 81/48 273/452 82/453
f 273/452 81/48 83/47
f 83/47 84/46 139/87
f 85/50 86/49 59/50
f 87/49 88/51 142/88
f 146/90 142/88 88/51
f 88/51 89/164 146/90
f 89/164 88/51 289/454
f 85/50 289/454 88/51
f 473/309 62/31 474/310
f 62/31 473/309 89/164
f 89/164 64/33 62/31
f 64/33 89/164 272/165
f 67/34 90/52 89/164
f 144/88 87/49 142/88
f 87/49 144/88 86/49
f 91/455 196/456 92/457
f 196/456 91/455 93/458
f 16/401 93/458 91/455
f 93/458 16/401 273/452
f 271/163 573/53 42/163
f 573/53 271/163 94/53
f 95/54 94/53 271/163
f 89/164 98/57 97/56
f 98/57 89/164 99/58
f 100/59 99/58 89/164
f 101/60 102/61 53/61
f 54/173 53/61 102/61
f 106/60 101/60 53/61
f 107/459 167/87 108/460
f 167/87 107/459 109/461
f 198/462 109/461 107/459
f 109/461 198/462 110/463
f 111/464 95/54 271/163
f 95/54 111/464 89/164
f 112/64 113/63 124/465
f 4/1 114/65 112/64
f 114/65 4/1 5/3
f 7/5 116/67 114/65
f 116/67 7/5 117/68
f 118/69 117/68 7/5
f 116/67 320/466 115/66
f 320/466 116/67 117/68
f 117/68 321/467 320/466
f 321/467 117/68 120/71
f 121/74 572/468 222/469
f 572/468 121/74 122/73
f 122/73 123/72 153/470
f 122/73 124/465 572/468
f 124/465 122/73 112/64
f 4/1 112/64 122/73
f 125/76 126/75 184/471
f 309/472 127/77 125/76
f 127/77 309/472 128/79
f 310/473 128/79 309/472
f 128/79 310/473 129/80
f 311/474 129/80 310/473
f 129/80 311/474 194/116
f 127/77 131/81 165/101
f 132/81 165/101 131/81
f 165/101 132/81 564/101
f 194/116 134/83 129/80
f 133/82 437/82 130/78
f 437/82 133/82 186/83
f 134/83 186/83 133/82
f 135/78 130/78 437/82
f 136/85 137/84 154/475
f 196/456 138/86 136/85
f 138/86 196/456 93/458
f 139/87 138/86 83/47
f 273/452 83/47 138/86
f 120/71 140/476 321/467
f 140/476 120/71 141/477
f 119/70 141/477 120/71
f 141/477 119/70 195/478
f 196/456 141/477 195/478
f 141/477 196/456 136/85
f 154/475 141/477 136/85
f 141/477 154/475 140/476
f 89/164 147/91 146/90
f 147/91 89/164 148/92
f 90/52 148/92 89/164
f 148/92 90/52 65/36
f 65/36 149/93 148/92
f 149/93 65/36 157/36
f 150/93 149/93 157/36
f 20/408 151/479 197/407
f 151/479 20/408 483/313
f 428/376 483/313 20/408
f 483/313 428/376 482/314
f 152/480 123/72 420/481
f 123/72 152/480 153/470
f 296/393 153/470 152/480
f 153/470 296/393 4/1
f 154/95 155/94 140/482
f 159/483 14/398 280/169
f 14/398 159/483 160/419
f 329/201 160/419 159/483
f 160/419 329/201 30/420
f 161/484 284/450 162/485
f 284/450 161/484 57/29
f 59/27 57/29 161/484
f 110/463 197/407 151/479
f 197/407 110/463 198/462
f 219/130 565/99 566/130
f 565/99 219/130 163/99
f 164/100 163/99 219/130
f 126/75 165/101 164/100
f 564/101 163/99 165/101
f 163/99 564/101 565/99
f 109/461 166/486 167/87
f 166/486 109/461 168/102
f 110/463 168/102 109/461
f 168/102 110/463 191/487
f 168/102 222/469 166/486
f 222/469 168/102 121/74
f 169/12 542/357 34/12
f 542/357 169/12 170/357
f 179/106 170/357 169/12
f 170/357 179/106 215/127
f 171/488 215/127 179/106
f 215/127 171/488 216/128
f 77/444 155/489 158/490
f 155/489 77/444 172/491
f 321/199 155/489 172/491
f 155/489 321/199 140/492
f 245/151 478/493 244/151
f 478/493 245/151 173/493
f 174/494 173/493 245/151
f 173/493 174/494 180/107
f 181/108 180/107 174/494
f 173/493 176/105 478/493
f 176/105 173/493 175/105
f 180/107 175/105 173/493
f 175/105 506/104 176/105
f 506/104 175/105 177/104
f 171/488 179/106 178/103
f 177/104 34/12 506/104
f 34/12 177/104 169/12
f 179/106 169/12 177/104
f 178/103 182/109 171/488
f 174/494 183/495 181/108
f 183/495 174/494 238/147
f 243/150 238/147 174/494
f 164/100 184/471 126/75
f 184/471 164/100 316/496
f 218/131 316/496 164/100
f 316/496 218/131 185/497
f 134/83 372/110 186/83
f 372/110 134/83 187/110
f 188/111 187/110 134/83
f 254/112 187/110 189/112
f 187/110 254/112 372/110
f 191/487 420/481 123/72
f 420/481 191/487 480/498
f 110/463 480/498 191/487
f 480/498 110/463 151/479
f 193/115 194/116 311/474
f 553/363 119/70 552/360
f 119/70 553/363 195/478
f 92/457 195/478 553/363
f 195/478 92/457 196/456
f 513/333 197/407 198/462
f 197/407 513/333 18/404
f 514/335 18/404 513/333
f 18/404 514/335 199/405
f 30/420 203/120 200/117
f 203/120 30/420 224/499
f 204/121 203/120 17/402
f 205/400 17/402 203/120
f 226/137 9/395 227/138
f 9/395 226/137 417/500
f 199/405 417/500 226/137
f 417/500 199/405 514/335
f 206/123 207/122 32/9
f 208/124 209/125 548/358
f 210/411 548/358 209/125
f 548/358 210/411 211/251
f 558/365 390/251 422/271
f 390/251 558/365 212/501
f 560/367 212/501 558/365
f 212/501 560/367 388/247
f 561/368 388/247 560/367
f 388/247 561/368 213/248
f 185/497 217/129 214/126
f 217/129 185/497 218/131
f 566/130 220/132 219/130
f 220/132 566/130 544/132
f 170/357 220/132 544/132
f 220/132 170/357 217/129
f 215/127 217/129 170/357
f 221/134 222/133 572/502
f 476/503 223/135 221/134
f 224/499 82/453 205/400
f 82/453 224/499 326/203
f 30/420 326/203 224/499
f 326/203 30/420 329/201
f 491/320 228/139 225/136
f 228/139 491/320 229/381
f 228/139 199/405 226/137
f 199/405 228/139 230/141
f 253/156 232/142 252/156
f 232/142 253/156 233/142
f 234/143 233/142 253/156
f 315/504 235/144 234/143
f 235/144 315/504 236/145
f 237/146 236/145 315/504
f 246/105 247/152 538/105
f 189/112 556/505 254/112
f 556/505 189/112 255/505
f 256/506 255/505 189/112
f 255/505 256/506 2/392
f 257/391 2/392 256/506
f 47/392 255/505 2/392
f 255/505 47/392 556/505
f 190/113 256/506 189/112
f 256/506 190/113 312/507
f 192/114 312/507 190/113
f 1/389 256/506 312/507
f 256/506 1/389 257/391
f 249/153 314/508 251/155
f 314/508 249/153 258/108
f 264/107 258/108 249/153
f 234/143 259/509 315/504
f 259/509 234/143 251/155
f 250/154 251/155 234/143
f 260/158 510/104 261/158
f 510/104 260/158 262/104
f 258/108 264/107 263/157
f 262/104 538/105 510/104
f 538/105 262/104 246/105
f 264/107 246/105 262/104
f 263/157 265/159 313/390
f 266/510 263/157 313/390
f 263/157 266/510 258/108
f 267/162 40/161 268/162
f 40/161 267/162 269/161
f 111/464 271/163 270/160
f 270/160 89/164 111/464
f 16/401 82/453 273/452
f 82/453 16/401 205/400
f 42/163 269/161 271/163
f 269/161 42/163 40/161
f 11/6 274/166 12/396
f 274/166 11/6 275/511
f 276/170 275/511 11/6
f 275/511 276/170 50/512
f 277/383 50/512 276/170
f 50/512 274/166 275/511
f 274/166 50/512 55/513
f 278/167 274/166 55/513
f 274/166 280/169 12/396
f 8/8 276/170 11/6
f 276/170 8/8 9/395
f 281/171 276/170 9/395
f 283/514 278/167 162/515
f 278/167 283/514 279/168
f 280/169 279/168 283/514
f 283/514 159/483 280/169
f 159/483 283/514 329/201
f 328/202 329/201 283/514
f 283/514 284/516 328/202
f 284/516 283/514 162/515
f 285/175 85/50 59/50
f 85/50 285/175 286/174
f 288/176 100/59 89/164
f 286/174 289/454 85/50
f 289/454 286/174 89/164
f 288/176 89/164 286/174
f 574/175 285/175 59/50
f 285/175 574/175 287/173
f 54/173 287/173 574/175
f 287/173 54/173 102/61
f 293/180 294/181 6/4
f 295/394 6/4 294/181
f 6/4 291/178 293/180
f 291/178 6/4 3/2
f 296/393 291/178 3/2
f 291/178 296/393 419/517
f 439/387 291/178 419/517
f 291/178 439/387 292/179
f 347/215 294/181 290/177
f 294/181 347/215 348/214
f 551/361 294/181 348/214
f 294/181 551/361 552/360
f 297/183 356/221 298/518
f 356/221 297/183 299/519
f 434/276 299/519 297/183
f 359/520 297/183 298/518
f 297/183 359/520 300/184
f 455/295 300/184 359/520
f 300/184 455/295 454/294
f 297/183 301/182 434/276
f 302/187 434/276 301/182
f 434/276 302/187 303/521
f 570/374 303/521 302/187
f 302/187 366/230 570/374
f 366/230 302/187 304/186
f 306/188 300/184 454/294
f 304/186 307/189 522/522
f 364/228 304/186 522/522
f 304/186 364/228 366/230
f 308/191 309/190 125/523
f 308/191 193/524 311/193
f 193/524 308/191 192/525
f 312/526 192/525 308/191
f 308/191 1/527 312/526
f 1/527 308/191 313/528
f 266/529 313/528 308/191
f 308/191 258/530 266/529
f 258/530 308/191 314/531
f 251/532 314/531 308/191
f 308/191 259/533 251/532
f 259/533 308/191 315/534
f 237/535 315/534 308/191
f 308/191 238/536 237/535
f 238/536 308/191 183/537
f 181/538 183/537 308/191
f 308/191 182/539 181/538
f 182/539 308/191 171/540
f 216/541 171/540 308/191
f 308/191 214/542 216/541
f 214/542 308/191 185/543
f 316/544 185/543 308/191
f 308/191 184/545 316/544
f 184/545 308/191 125/523
f 317/195 476/503 318/196
f 476/503 317/195 223/135
f 222/133 223/135 317/195
f 317/195 166/546 222/133
f 166/546 317/195 167/429
f 36/427 167/429 317/195
f 317/195 37/194 36/427
f 320/198 319/197 115/547
f 322/548 115/547 319/197
f 115/547 322/548 323/549
f 80/445 323/549 322/548
f 323/549 80/445 75/550
f 319/197 80/445 322/548
f 80/445 319/197 78/551
f 77/444 78/551 319/197
f 319/197 172/491 77/444
f 172/491 319/197 321/199
f 323/549 113/552 115/547
f 113/552 323/549 124/439
f 324/438 124/439 323/549
f 323/549 76/24 324/438
f 76/24 323/549 75/550
f 325/200 82/453 326/203
f 82/453 325/200 81/48
f 84/46 81/48 325/200
f 325/200 327/553 84/46
f 327/553 325/200 284/516
f 328/202 284/516 325/200
f 330/205 331/204 21/403
f 398/257 334/208 333/207
f 334/208 398/257 335/379
f 333/207 394/252 398/257
f 394/252 333/207 330/205
f 330/205 336/554 394/252
f 336/554 330/205 400/258
f 339/555 400/258 330/205
f 334/208 23/410 332/206
f 23/410 334/208 211/251
f 337/380 211/251 334/208
f 338/556 339/555 21/403
f 339/555 338/556 400/258
f 550/557 400/258 338/556
f 338/556 92/457 550/557
f 92/457 338/556 91/455
f 16/401 91/455 338/556
f 338/556 15/399 16/401
f 15/399 338/556 21/403
f 340/211 446/286 341/558
f 446/286 340/211 342/210
f 344/212 345/213 290/177
f 346/216 290/177 345/213
f 290/177 346/216 347/215
f 533/350 351/219 350/218
f 351/219 533/350 352/559
f 396/255 349/217 351/219
f 349/217 396/255 346/216
f 402/385 346/216 396/255
f 346/216 402/385 348/214
f 351/219 353/560 396/255
f 353/560 351/219 406/561
f 352/559 406/561 351/219
f 534/351 340/211 341/558
f 340/211 534/351 533/350
f 350/218 340/211 533/350
f 292/179 344/212 290/177
f 344/212 292/179 439/387
f 354/562 344/212 439/387
f 344/212 354/562 440/281
f 440/281 342/210 344/212
f 342/210 440/281 446/286
f 356/221 355/220 298/518
f 358/224 298/518 355/220
f 298/518 358/224 359/520
f 455/295 359/520 358/224
f 358/224 360/223 455/295
f 374/233 363/227 355/220
f 522/522 367/231 364/228
f 367/231 522/522 368/563
f 365/229 570/374 366/230
f 570/374 365/229 569/373
f 568/372 569/373 365/229
f 365/229 369/232 568/372
f 367/231 377/236 369/232
f 377/236 367/231 469/375
f 368/563 469/375 367/231
f 370/234 254/112 371/235
f 254/112 370/234 372/110
f 186/83 372/110 370/234
f 370/234 373/564 186/83
f 373/564 370/234 356/221
f 357/222 356/221 370/234
f 370/234 374/233 357/222
f 375/237 210/411 209/125
f 210/411 375/237 376/565
f 469/375 376/565 375/237
f 375/237 377/236 469/375
f 206/123 378/238 375/237
f 378/238 206/123 32/9
f 378/238 369/232 377/236
f 369/232 378/238 568/372
f 543/566 568/372 378/238
f 380/240 379/239 341/558
f 382/245 341/558 379/239
f 536/353 382/245 385/244
f 385/244 414/268 536/353
f 414/268 385/244 540/567
f 386/384 540/567 385/244
f 387/246 386/384 384/243
f 386/384 387/246 511/568
f 213/248 511/568 387/246
f 383/242 389/249 387/246
f 389/249 383/242 381/241
f 389/249 212/501 388/247
f 212/501 389/249 390/251
f 392/569 154/95 137/570
f 154/95 392/569 156/96
f 157/97 156/96 392/569
f 392/569 150/571 157/97
f 150/571 392/569 143/426
f 35/424 143/426 392/569
f 392/569 139/422 35/424
f 139/422 392/569 137/570
f 393/253 394/252 336/554
f 395/254 396/255 353/560
f 397/256 395/254 353/560
f 397/256 335/379 398/257
f 335/379 397/256 399/572
f 406/561 399/572 397/256
f 400/258 393/253 336/554
f 348/214 393/253 401/259
f 393/253 348/214 402/385
f 526/343 403/261 524/341
f 403/261 526/343 404/262
f 410/264 404/262 526/343
f 404/262 410/264 405/573
f 403/261 406/561 524/341
f 406/561 403/261 399/572
f 335/379 399/572 403/261
f 403/261 407/260 335/379
f 408/263 404/262 547/574
f 405/573 547/574 404/262
f 409/265 410/264 527/344
f 244/151 411/266 409/265
f 409/265 241/149 244/151
f 241/149 409/265 239/148
f 412/575 239/148 409/265
f 239/148 412/575 413/267
f 528/345 413/267 412/575
f 413/267 528/345 535/352
f 409/265 528/345 412/575
f 528/345 409/265 527/344
f 414/268 413/267 535/352
f 252/156 413/267 415/269
f 413/267 252/156 232/142
f 416/576 515/336 44/577
f 515/336 416/576 514/335
f 417/500 514/335 416/576
f 416/576 9/395 417/500
f 9/395 416/576 281/171
f 282/172 281/171 416/576
f 416/576 43/578 282/172
f 43/578 416/576 44/577
f 418/579 419/517 296/393
f 419/517 418/579 439/387
f 445/386 439/387 418/579
f 418/579 488/317 445/386
f 488/317 418/579 481/580
f 420/481 481/580 418/579
f 418/579 152/480 420/481
f 152/480 418/579 296/393
f 361/225 424/273 421/270
f 421/270 425/581 361/225
f 425/581 421/270 495/324
f 426/275 495/324 421/270
f 495/324 426/275 427/378
f 24/412 427/378 426/275
f 427/378 24/412 428/376
f 426/275 429/274 24/412
f 427/378 430/582 495/324
f 430/582 427/378 231/140
f 431/377 231/140 427/378
f 432/277 433/583 564/101
f 433/583 432/277 570/374
f 303/521 570/374 432/277
f 432/277 434/276 303/521
f 135/78 435/278 432/277
f 435/278 135/78 436/279
f 437/82 436/279 135/78
f 436/279 437/82 186/83
f 434/276 436/279 299/519
f 356/221 299/519 436/279
f 436/279 373/564 356/221
f 373/564 436/279 186/83
f 132/81 432/277 564/101
f 432/277 132/81 135/78
f 438/282 354/562 439/387
f 354/562 438/282 440/281
f 442/283 443/284 381/241
f 438/282 487/316 444/285
f 487/316 438/282 488/317
f 445/386 488/317 438/282
f 446/286 442/283 341/558
f 380/240 341/558 442/283
f 447/289 502/329 503/331
f 502/329 447/289 448/288
f 306/188 452/292 451/291
f 452/292 306/188 453/293
f 454/294 453/293 306/188
f 457/297 453/293 493/321
f 497/325 493/321 453/293
f 492/318 457/297 493/321
f 457/297 492/318 456/296
f 491/320 456/296 492/318
f 456/296 491/320 458/584
f 502/329 456/296 458/584
f 456/296 502/329 448/288
f 459/417 447/289 503/331
f 447/289 459/417 519/338
f 460/298 447/289 519/338
f 451/291 461/299 522/522
f 307/189 451/291 522/522
f 451/291 307/189 306/188
f 521/585 465/303 462/300
f 465/303 521/585 466/305
f 202/119 466/305 521/585
f 466/305 202/119 201/118
f 463/301 468/306 210/411
f 466/305 22/409 467/304
f 22/409 466/305 204/121
f 201/118 204/121 466/305
f 376/565 463/301 210/411
f 463/301 376/565 469/375
f 89/164 471/307 72/41
f 471/307 89/164 472/308
f 473/309 472/308 89/164
f 571/311 475/311 476/310
f 475/311 571/311 470/44
f 76/44 470/44 571/311
f 477/586 547/574 405/573
f 547/574 477/586 507/355
f 176/105 507/355 477/586
f 477/586 478/493 176/105
f 478/493 477/586 244/151
f 411/266 244/151 477/586
f 477/586 410/264 411/266
f 410/264 477/586 405/573
f 479/312 480/498 151/479
f 480/498 479/312 420/481
f 481/580 420/481 479/312
f 479/312 488/317 481/580
f 488/317 479/312 489/388
f 482/314 489/388 479/312
f 483/313 479/312 151/479
f 484/587 27/414 390/251
f 27/414 484/587 485/588
f 444/285 485/588 484/587
f 485/588 444/285 486/315
f 487/316 486/315 444/285
f 485/588 26/413 27/414
f 26/413 485/588 486/315
f 486/315 25/204 26/413
f 25/204 486/315 482/314
f 489/388 482/314 486/315
f 391/250 484/587 390/251
f 484/587 391/250 381/241
f 443/284 484/587 381/241
f 484/587 443/284 444/285
f 490/319 229/381 491/320
f 229/381 490/319 231/140
f 430/582 231/140 490/319
f 490/319 494/322 430/582
f 495/324 430/582 494/322
f 425/581 495/324 496/323
f 496/323 361/225 425/581
f 361/225 496/323 360/223
f 455/295 360/223 496/323
f 496/323 497/325 455/295
f 498/328 13/397 14/398
f 13/397 498/328 499/327
f 499/327 500/326 10/7
f 501/330 10/7 500/326
f 10/7 501/330 227/138
f 225/136 227/138 501/330
f 503/331 498/328 459/417
f 504/415 459/417 498/328
f 458/584 501/330 502/329
f 501/330 458/584 491/320
f 505/332 506/104 34/12
f 506/104 505/332 176/105
f 507/355 176/105 505/332
f 505/332 547/574 507/355
f 547/574 505/332 508/568
f 207/122 508/568 505/332
f 505/332 31/10 207/122
f 31/10 505/332 34/12
f 509/332 538/105 539/355
f 538/105 509/332 510/104
f 509/332 46/434 261/158
f 46/434 509/332 213/248
f 511/568 213/248 509/332
f 509/332 386/384 511/568
f 386/384 509/332 539/355
f 512/334 513/333 198/462
f 512/334 44/577 515/336
f 44/577 512/334 516/589
f 108/460 516/589 512/334
f 512/334 107/459 108/460
f 107/459 512/334 198/462
f 460/298 517/590 461/299
f 517/590 460/298 518/337
f 519/338 518/337 460/298
f 459/417 520/339 519/338
f 520/339 459/417 28/416
f 462/300 518/337 520/339
f 518/337 462/300 517/590
f 464/302 517/590 462/300
f 517/590 464/302 469/375
f 520/339 521/585 462/300
f 521/585 520/339 202/119
f 28/416 202/119 520/339
f 517/590 522/522 461/299
f 522/522 517/590 368/563
f 469/375 368/563 517/590
f 523/342 406/561 352/559
f 406/561 523/342 524/341
f 410/264 526/343 525/340
f 525/340 527/344 410/264
f 535/352 530/347 414/268
f 536/353 414/268 530/347
f 536/353 532/349 382/245
f 341/558 382/245 532/349
f 537/354 252/156 415/269
f 252/156 537/354 247/152
f 538/105 247/152 537/354
f 539/355 537/354 386/384
f 540/567 386/384 537/354
f 537/354 414/268 540/567
f 414/268 537/354 415/269
f 541/356 33/11 542/357
f 33/11 541/356 32/9
f 543/566 32/9 541/356
f 541/356 568/372 543/566
f 568/372 541/356 567/371
f 566/130 567/371 541/356
f 541/356 544/132 566/130
f 408/263 545/359 407/260
f 545/359 408/263 546/246
f 547/574 546/246 408/263
f 546/246 547/574 508/568
f 545/359 335/379 407/260
f 335/379 545/359 337/380
f 211/251 337/380 545/359
f 545/359 548/358 211/251
f 546/246 208/124 548/358
f 208/124 546/246 207/122
f 508/568 207/122 546/246
f 549/362 550/557 92/457
f 550/557 549/362 400/258
f 401/259 400/258 549/362
f 549/362 348/214 401/259
f 348/214 549/362 551/361
f 553/363 549/362 92/457
f 554/591 374/233 371/235
f 374/233 554/591 562/369
f 561/368 562/369 554/591
f 554/591 555/435 561/368
f 555/435 554/591 47/392
f 556/505 47/392 554/591
f 554/591 254/112 556/505
f 254/112 554/591 371/235
f 557/366 422/271 424/273
f 422/271 557/366 558/365
f 562/369 559/364 374/233
f 363/227 374/233 559/364
f 557/366 363/227 559/364
f 363/227 557/366 362/226
f 361/225 362/226 557/366
f 563/370 564/101 433/583
f 570/374 563/370 433/583
f 250/154 234/143 253/156
f 341/558 532/349 534/351
f 497/325 453/293 455/295
f 7/5 114/65 5/3
f 355/220 357/222 374/233
f 476/503 221/134 571/592
f 264/107 249/153 246/105
f 533/350 523/342 352/559
f 245/151 243/150 174/494
f 380/240 442/283 381/241
f 397/256 353/560 406/561
f 225/136 501/330 491/320
f 14/398 504/415 498/328
f 126/75 127/77 165/101
f 124/439 221/436 572/593
f 122/73 153/470 4/1
f 123/72 168/102 191/487
f 134/83 194/116 188/111
f 45/440 573/594 103/444
f 30/420 29/418 160/419
f 218/131 164/100 219/130
f 59/27 161/484 574/595
f 203/120 224/499 205/400
f 144/425 58/28 86/451
f 138/86 93/458 273/452
f 428/376 19/406 431/377
f 557/366 424/273 361/225
f 413/267 232/142 239/148
f 77/37 158/35 66/35
f 573/53 94/53 103/55
f 97/56 95/54 89/164
f 89/164 69/38 67/34
f 542/357 170/357 544/132
f 391/250 389/249 381/241
f 32/9 543/566 378/238
f 375/237 209/125 206/123
f 387/246 384/243 383/242
f 339/555 330/205 21/403
f 552/360 295/394 294/181
