# Blender v2.68 (sub 0) OBJ File: ''
# www.blender.org
mtllib wine_bottle_2.mtl
o bayomat0
v 0.018164 0.030087 -0.031461
v 0.009402 0.040723 -0.035090
v 0.009402 0.030087 -0.035090
v 0.000000 0.040723 -0.036328
v -0.009402 0.030087 -0.035090
v -0.025688 0.030087 -0.025688
v -0.031461 0.040723 -0.018164
v -0.000083 0.345985 -0.000046
v 0.003976 0.345955 0.015105
v 0.007759 0.345949 0.013538
v -0.013666 0.346006 0.007797
v -0.011173 0.346026 -0.011137
v 0.013501 0.345964 -0.007889
v -0.000081 0.345231 0.016444
v -0.000058 0.335896 0.016458
v 0.008163 0.345215 0.014235
v 0.015870 0.335887 -0.004300
v 0.015846 0.345222 -0.004313
v 0.016431 0.335880 -0.000032
v 0.014223 0.335896 -0.008276
v 0.014199 0.345231 -0.008290
v 0.011579 0.345242 -0.011705
v 0.011603 0.335907 -0.011691
v 0.013186 0.335898 -0.007678
v 0.008164 0.345253 -0.014325
v 0.004211 0.335930 -0.015959
v -0.000056 0.335940 -0.016520
v -0.000057 0.335939 -0.015323
v -0.004324 0.335950 -0.015958
v -0.011716 0.335961 -0.011690
v -0.008301 0.335957 -0.014311
v -0.011739 0.345296 -0.011704
v -0.014360 0.345297 -0.008289
v -0.016546 0.335957 -0.000031
v -0.011717 0.335930 0.011629
v -0.008302 0.335918 0.014249
v -0.004325 0.335907 0.015896
v -0.000058 0.335898 0.015261
v 0.008187 0.335880 0.014249
v 0.007588 0.335883 0.013212
v 0.011602 0.335876 0.011628
v 0.014222 0.335874 0.008213
v 0.013185 0.335877 0.007614
v 0.014198 0.345209 0.008199
v -0.008324 0.345291 -0.014325
v -0.004348 0.345284 -0.015972
v -0.014336 0.335963 -0.008275
v -0.016007 0.345296 -0.004312
v -0.015984 0.335961 -0.004298
v -0.016569 0.345291 -0.000044
v -0.014337 0.335940 0.008214
v -0.014360 0.345275 0.008200
v 0.004187 0.345265 -0.015972
v -0.000080 0.345275 -0.016534
v -0.015233 0.346026 -0.004105
v -0.015767 0.346021 -0.000045
v -0.011174 0.345996 0.011046
v -0.007926 0.345985 0.013539
v -0.011740 0.345265 0.011615
v -0.008326 0.345253 0.014236
v -0.004143 0.345974 0.015105
v -0.000083 0.345964 0.015640
v 0.011008 0.345944 0.011045
v 0.011578 0.345210 0.011614
v 0.013501 0.345943 0.007796
v 0.015068 0.345944 0.004013
v 0.015602 0.345949 -0.000047
v 0.015068 0.345955 -0.004106
v 0.016408 0.345215 -0.000045
v 0.011009 0.345974 -0.011138
v 0.007760 0.345985 -0.013630
v 0.003978 0.345996 -0.015197
v -0.004142 0.346015 -0.015197
v -0.000082 0.346006 -0.015732
v -0.007924 0.346021 -0.013630
v -0.031461 0.030087 -0.018164
v 0.004210 0.335887 0.015896
v -0.004349 0.345242 0.015883
v 0.004186 0.345222 0.015882
v 0.015846 0.345210 0.004222
v 0.015869 0.335876 0.004236
v 0.008188 0.335918 -0.014312
v -0.010869 0.335958 -0.010844
v -0.016008 0.345284 0.004223
v -0.015984 0.335950 0.004237
v -0.013666 0.346027 -0.007888
v -0.015233 0.346015 0.004014
v -0.036591 0.179639 0.000074
v -0.036591 0.057053 0.000074
v -0.035344 0.179639 0.009612
v -0.035344 0.057053 0.009612
v -0.031689 0.179639 0.018501
v -0.031689 0.057053 0.018501
v -0.025874 0.179639 0.026134
v -0.025874 0.057053 0.026134
v -0.018295 0.179639 0.031990
v -0.018295 0.057053 0.031990
v -0.009470 0.179639 0.035672
v -0.009470 0.057053 0.035672
v 0.000000 0.179639 0.036928
v 0.000000 0.057053 0.036928
v 0.009470 0.179639 0.035672
v 0.009470 0.057053 0.035672
v 0.018295 0.179639 0.031990
v 0.018295 0.057053 0.031990
v 0.025874 0.179639 0.026134
v 0.025874 0.057053 0.026134
v 0.031689 0.179639 0.018501
v 0.031689 0.057053 0.018501
v 0.035344 0.179639 0.009612
v 0.035344 0.057053 0.009612
v 0.036591 0.179639 0.000074
v 0.036591 0.057053 0.000074
v 0.003859 0.261906 -0.013993
v 0.003734 0.319847 -0.014065
v 0.007367 0.261894 -0.012539
v 0.007243 0.319836 -0.012611
v 0.010381 0.261884 -0.010227
v 0.010256 0.319824 -0.010299
v 0.012692 0.261874 -0.007214
v 0.012569 0.319815 -0.007286
v 0.014146 0.261865 -0.003705
v 0.014021 0.319806 -0.003777
v 0.014641 0.261859 0.000061
v 0.014517 0.319799 -0.000011
v 0.014146 0.261855 0.003827
v 0.014021 0.319795 0.003755
v 0.012692 0.261853 0.007336
v 0.012568 0.319794 0.007264
v 0.010380 0.261854 0.010350
v 0.010255 0.319795 0.010278
v 0.007366 0.261859 0.012662
v 0.007242 0.319799 0.012591
v 0.003858 0.261865 0.014116
v 0.003733 0.319806 0.014044
v 0.000092 0.261874 0.014612
v -0.000033 0.319814 0.014540
v -0.003674 0.261883 0.014116
v -0.003799 0.319824 0.014044
v -0.007183 0.261894 0.012662
v -0.007307 0.319836 0.012591
v -0.010196 0.261906 0.010350
v -0.010320 0.319847 0.010278
v -0.012508 0.261916 0.007337
v -0.012632 0.319856 0.007265
v -0.013961 0.261924 0.003828
v -0.014086 0.319865 0.003756
v -0.014457 0.261931 0.000062
v -0.014581 0.319872 -0.000010
v -0.013961 0.261935 -0.003704
v -0.014086 0.319876 -0.003776
v -0.012508 0.261936 -0.007213
v -0.012632 0.319877 -0.007284
v -0.010195 0.261935 -0.010226
v -0.010320 0.319876 -0.010298
v -0.007182 0.261931 -0.012538
v -0.007306 0.319872 -0.012610
v -0.003673 0.261924 -0.013992
v -0.003798 0.319865 -0.014064
v 0.000093 0.261916 -0.014488
v -0.000032 0.319857 -0.014560
v -0.036328 0.021864 0.000000
v -0.037602 0.009999 0.000000
v -0.035090 0.021864 0.009402
v -0.036321 0.009999 0.009732
v -0.037559 0.006285 0.000000
v -0.036279 0.006285 0.009721
v -0.031461 0.057053 0.018164
v -0.031461 0.021864 0.018164
v -0.032565 0.009999 0.018801
v -0.032527 0.006285 0.018779
v -0.028596 -0.000008 0.007662
v 0.000000 0.038911 0.000000
v -0.025639 -0.000008 0.014802
v -0.020934 -0.000008 0.020934
v -0.014802 -0.000008 0.025639
v -0.018779 0.006285 0.032527
v -0.009721 0.006285 0.036279
v -0.025688 0.057053 0.025688
v -0.025688 0.021864 0.025688
v -0.026558 0.006285 0.026558
v -0.026589 0.009999 0.026589
v -0.018164 0.021864 0.031461
v -0.018164 0.057053 0.031461
v -0.009732 0.009999 0.036321
v -0.009402 0.021864 0.035090
v -0.018801 0.009999 0.032565
v 0.000000 0.057053 0.036328
v 0.000000 0.009999 0.037602
v 0.000000 0.021864 0.036328
v 0.000000 -0.000008 0.029605
v 0.000000 0.006285 0.037559
v -0.007662 -0.000008 0.028596
v 0.014802 -0.000008 0.025639
v 0.026558 0.006285 0.026558
v 0.018779 0.006285 0.032527
v 0.026589 0.009999 0.026589
v 0.009402 0.021864 0.035090
v 0.009721 0.006285 0.036279
v 0.009732 0.009999 0.036321
v 0.018801 0.009999 0.032565
v 0.018164 0.021864 0.031461
v 0.025688 0.021864 0.025688
v 0.032565 0.009999 0.018801
v 0.032527 0.006285 0.018779
v 0.025639 -0.000008 0.014802
v 0.020934 -0.000008 0.020934
v 0.029605 -0.000008 -0.000000
v 0.028596 -0.000008 0.007662
v 0.036321 0.009999 -0.009732
v 0.037559 0.006285 0.000000
v 0.036279 0.006285 -0.009721
v 0.036321 0.009999 0.009732
v 0.036279 0.006285 0.009721
v 0.037602 0.009999 0.000000
v 0.035090 0.021864 -0.009402
v 0.031461 0.021864 -0.018164
v 0.025688 0.184555 -0.025688
v 0.031461 0.184555 -0.018164
v 0.019048 0.191779 -0.032993
v 0.026939 0.191779 -0.026939
v 0.010564 0.206591 -0.039427
v 0.020409 0.206591 -0.035349
v 0.010510 0.215821 -0.039223
v 0.035090 0.184555 -0.009402
v 0.036328 0.021864 0.000000
v 0.032993 0.191779 -0.019048
v 0.028862 0.206591 -0.028862
v 0.020303 0.215821 -0.035166
v 0.009288 0.225761 -0.034664
v 0.000181 0.235720 -0.026824
v 0.000000 0.225761 -0.035887
v 0.035349 0.206591 -0.020409
v 0.017944 0.225761 -0.031079
v 0.007150 0.235703 -0.025907
v 0.000158 0.244862 -0.017893
v -0.004496 0.244872 -0.017280
v -0.003629 0.253721 -0.014018
v -0.007151 0.253727 -0.012559
v -0.003631 0.262253 -0.013839
v 0.013644 0.235686 -0.023217
v 0.025376 0.225761 -0.025376
v 0.004812 0.244851 -0.017280
v 0.000151 0.253713 -0.014516
v 0.035166 0.215821 -0.020303
v 0.031079 0.225761 -0.017944
v 0.009149 0.244838 -0.015484
v 0.019221 0.235668 -0.018938
v 0.003931 0.253703 -0.014019
v 0.003815 0.262235 -0.013840
v 0.039223 0.215821 -0.010510
v 0.034664 0.225761 -0.009288
v 0.023500 0.235651 -0.013361
v 0.012873 0.244826 -0.012626
v 0.007454 0.253693 -0.012560
v 0.026189 0.235637 -0.006867
v 0.015730 0.244814 -0.008902
v 0.010478 0.253683 -0.010239
v 0.012799 0.253674 -0.007214
v 0.017527 0.244804 -0.004573
v 0.012548 0.262183 0.007246
v 0.014258 0.253655 0.003869
v 0.012799 0.253654 0.007391
v 0.007283 0.262189 0.012512
v 0.010477 0.253655 0.010416
v 0.003814 0.262195 0.013949
v 0.007453 0.253659 0.012737
v 0.003930 0.253665 0.014197
v 0.000150 0.253673 0.014694
v 0.000091 0.262204 0.014439
v 0.014258 0.253665 -0.003692
v 0.014755 0.253659 0.000089
v 0.018139 0.244797 0.000089
v 0.017526 0.244792 0.004743
v 0.015730 0.244791 0.009081
v 0.012872 0.244793 0.012805
v 0.009147 0.244798 0.015663
v 0.004810 0.244805 0.017460
v -0.004498 0.244827 0.017460
v 0.000156 0.244815 0.018073
v 0.019219 0.235619 0.019143
v 0.007148 0.235637 0.026113
v 0.000179 0.235651 0.027031
v -0.006790 0.235668 0.026113
v 0.026189 0.235619 0.007072
v 0.023499 0.235617 0.013566
v 0.031079 0.225761 0.017944
v -0.009288 0.225761 0.034664
v 0.000000 0.225761 0.035887
v -0.013284 0.235686 0.023424
v -0.017944 0.225761 0.031079
v 0.020303 0.215821 0.035166
v 0.028713 0.215821 0.028713
v 0.025376 0.225761 0.025376
v 0.010510 0.215821 0.039223
v 0.017944 0.225761 0.031079
v 0.009288 0.225761 0.034664
v -0.010510 0.215821 0.039223
v -0.020303 0.215821 0.035166
v -0.028713 0.215821 0.028713
v -0.025376 0.225761 0.025376
v -0.035166 0.215821 0.020303
v 0.010564 0.206591 0.039427
v 0.020409 0.206591 0.035349
v 0.000000 0.206591 0.040817
v -0.010564 0.206591 0.039427
v -0.020409 0.206591 0.035349
v -0.028862 0.206591 0.028862
v -0.035349 0.206591 0.020409
v -0.039427 0.206591 0.010564
v 0.000000 0.191779 0.038097
v -0.009860 0.191779 0.036799
v -0.019048 0.191779 0.032993
v -0.026939 0.191779 0.026939
v -0.032993 0.191779 0.019048
v -0.036799 0.191779 0.009860
v 0.009860 0.191779 0.036799
v 0.000000 0.184555 0.036328
v -0.018164 0.184555 0.031461
v -0.009402 0.184555 0.035090
v -0.025688 0.184555 0.025688
v -0.031461 0.184555 0.018164
v -0.035090 0.184555 0.009402
v -0.009402 0.179639 0.035090
v -0.031461 0.179639 0.018164
v 0.009402 0.184555 0.035090
v 0.000000 0.179639 0.036328
v 0.018164 0.184555 0.031461
v 0.036328 0.184555 0.000000
v 0.035090 0.184555 0.009402
v 0.035090 0.179639 0.009402
v 0.036328 0.179639 0.000000
v 0.019048 0.191779 0.032993
v 0.026939 0.191779 0.026939
v 0.031461 0.184555 0.018164
v 0.036799 0.191779 0.009860
v 0.038097 0.191779 0.000000
v 0.036799 0.191779 -0.009860
v 0.028862 0.206591 0.028862
v 0.032993 0.191779 0.019048
v 0.035349 0.206591 0.020409
v 0.040817 0.206591 0.000000
v 0.039427 0.206591 0.010564
v 0.039427 0.206591 -0.010564
v 0.035166 0.215821 0.020303
v 0.040607 0.215821 0.000000
v 0.039223 0.215821 0.010510
v 0.034664 0.225761 0.009288
v 0.035887 0.225761 0.000000
v 0.027107 0.235626 0.000102
v 0.015349 0.331709 -0.004156
v 0.014729 0.329597 -0.003980
v 0.013756 0.331718 -0.008002
v 0.013202 0.329605 -0.007668
v 0.003917 0.329637 -0.014793
v 0.003692 0.319517 -0.013911
v -0.003630 0.253683 0.014197
v -0.003632 0.262213 0.013949
v -0.007152 0.253693 0.012738
v -0.007101 0.262224 0.012512
v -0.010177 0.253703 0.010417
v -0.010080 0.262235 0.010226
v -0.012498 0.253713 0.007392
v -0.012365 0.262245 0.007247
v -0.013802 0.262253 0.003778
v -0.014292 0.262260 0.000055
v -0.013956 0.253721 0.003870
v -0.008835 0.244839 0.015664
v -0.012559 0.244852 0.012806
v -0.017212 0.244873 0.004745
v -0.015416 0.244863 0.009082
v -0.018860 0.235703 0.019145
v -0.025829 0.235734 0.007074
v -0.023139 0.235720 0.013568
v -0.031079 0.225761 0.017944
v -0.026746 0.235745 0.000104
v -0.039223 0.215821 0.010510
v -0.034664 0.225761 0.009288
v -0.040817 0.206591 0.000000
v -0.007703 0.335918 0.013212
v -0.004180 0.331729 0.015374
v -0.004015 0.335908 0.014740
v -0.000053 0.331718 0.015917
v -0.000042 0.329605 0.015270
v 0.004073 0.331709 0.015373
v 0.003900 0.335889 0.014739
v -0.004014 0.335947 -0.014802
v -0.004179 0.331772 -0.015431
v -0.007702 0.335954 -0.013274
v -0.008025 0.331779 -0.013838
v 0.007161 0.319506 -0.012474
v 0.007284 0.262224 -0.012403
v 0.010263 0.262214 -0.010117
v 0.012548 0.262204 -0.007138
v 0.013985 0.262185 0.003777
v 0.012425 0.319465 0.007175
v 0.010262 0.262184 0.010226
v -0.000032 0.319485 0.014368
v 0.003691 0.319477 0.013878
v -0.010202 0.319517 0.010155
v -0.014415 0.319542 -0.000016
v -0.013925 0.319535 0.003707
v -0.013802 0.262264 -0.003668
v -0.010079 0.262264 -0.010116
v -0.010202 0.319546 -0.010187
v -0.007223 0.319542 -0.012473
v -0.007686 0.329662 -0.013265
v -0.010853 0.329666 -0.010835
v -0.013283 0.329667 -0.007667
v -0.013861 0.331785 -0.008001
v -0.015332 0.329661 -0.000021
v -0.015998 0.331779 -0.000028
v -0.015455 0.331772 0.004099
v -0.015454 0.331783 -0.004155
v -0.015348 0.335954 -0.000031
v 0.015250 0.329590 -0.000023
v 0.014352 0.319470 -0.000017
v 0.015892 0.331701 -0.000029
v 0.015234 0.335883 -0.000032
v 0.013862 0.319466 0.003706
v 0.015349 0.331697 0.004098
v 0.014729 0.330074 0.003935
v 0.014713 0.335879 0.003926
v 0.035090 0.021864 0.009402
v 0.036328 0.057053 0.000000
v 0.031461 0.057053 0.018164
v 0.031461 0.021864 0.018164
v 0.025688 0.057053 0.025688
v 0.007605 0.329626 -0.013265
v 0.010140 0.319495 -0.010188
v 0.010772 0.329615 -0.010835
v 0.007920 0.331740 -0.013838
v 0.007589 0.335918 -0.013275
v 0.011222 0.331729 -0.011304
v 0.010756 0.335908 -0.010845
v 0.012426 0.319486 -0.007209
v 0.010755 0.335879 0.010781
v 0.011222 0.331697 0.011246
v 0.013756 0.331696 0.007944
v 0.013201 0.329585 0.007623
v 0.010771 0.330074 0.010790
v 0.010139 0.319466 0.010155
v 0.003916 0.329597 0.014749
v 0.007604 0.329590 0.013221
v 0.007919 0.331702 0.013780
v -0.000031 0.319527 -0.014401
v -0.000041 0.329647 -0.015314
v -0.000052 0.331762 -0.015974
v 0.035090 0.057053 0.009402
v 0.025688 0.179639 0.025688
v 0.018164 0.057053 0.031461
v 0.018164 0.179639 0.031461
v 0.009402 0.057053 0.035090
v 0.009402 0.179639 0.035090
v -0.009402 0.057053 0.035090
v -0.025688 0.179639 0.025688
v -0.035090 0.179639 0.009402
v -0.035090 0.057053 0.009402
v -0.036328 0.179639 0.000000
v -0.013284 0.329646 0.007624
v -0.013862 0.331762 0.007945
v -0.014811 0.329655 0.003936
v -0.007100 0.262260 -0.012402
v -0.008833 0.244880 -0.015483
v -0.010176 0.253731 -0.010238
v -0.013282 0.235745 -0.023216
v -0.012558 0.244885 -0.012625
v -0.018859 0.235752 -0.018937
v -0.025376 0.225761 -0.025376
v -0.017944 0.225761 -0.031079
v -0.020303 0.215821 -0.035166
v -0.026939 0.191779 -0.026939
v -0.028862 0.206591 -0.028862
v -0.019048 0.191779 -0.032993
v -0.015415 0.244887 -0.008901
v -0.012497 0.253732 -0.007213
v -0.023138 0.235754 -0.013360
v -0.031079 0.225761 -0.017944
v -0.035166 0.215821 -0.020303
v -0.028713 0.215821 -0.028713
v -0.035349 0.206591 -0.020409
v -0.012365 0.262265 -0.007137
v -0.017212 0.244885 -0.004564
v -0.013956 0.253731 -0.003691
v -0.025828 0.235752 -0.006865
v -0.034664 0.225761 -0.009288
v -0.039223 0.215821 -0.010510
v -0.036799 0.191779 -0.009860
v -0.039427 0.206591 -0.010564
v -0.032993 0.191779 -0.019048
v -0.014454 0.253727 0.000090
v -0.017825 0.244880 0.000091
v -0.035887 0.225761 0.000000
v -0.040607 0.215821 0.000000
v -0.038097 0.191779 0.000000
v -0.035090 0.184555 -0.009402
v -0.025688 0.184555 -0.025688
v -0.031461 0.184555 -0.018164
v -0.018164 0.184555 -0.031461
v -0.009402 0.184555 -0.035090
v -0.009860 0.191779 -0.036799
v 0.000000 0.184555 -0.036328
v -0.025688 0.040723 -0.025688
v -0.018164 0.040723 -0.031461
v -0.009402 0.040723 -0.035090
v 0.025688 0.021864 -0.025688
v 0.026589 0.009999 -0.026589
v 0.018164 0.021864 -0.031461
v 0.026558 0.006285 -0.026558
v 0.018801 0.009999 -0.032565
v 0.007662 -0.000008 -0.028596
v 0.014802 -0.000008 -0.025639
v 0.000000 -0.000008 -0.029605
v 0.000000 0.006285 -0.037559
v -0.009732 0.009999 -0.036321
v -0.009721 0.006285 -0.036279
v 0.009402 0.021864 -0.035090
v 0.009732 0.009999 -0.036321
v 0.018779 0.006285 -0.032527
v 0.009721 0.006285 -0.036279
v 0.000000 0.021864 -0.036328
v 0.000000 0.009999 -0.037602
v -0.009402 0.021864 -0.035090
v -0.018164 0.030087 -0.031461
v -0.018164 0.021864 -0.031461
v -0.018801 0.009999 -0.032565
v -0.032527 0.006285 -0.018779
v -0.020934 -0.000008 -0.020934
v -0.025639 -0.000008 -0.014802
v -0.036279 0.006285 -0.009721
v -0.025688 0.021864 -0.025688
v -0.026589 0.009999 -0.026589
v -0.018779 0.006285 -0.032527
v -0.014802 -0.000008 -0.025639
v -0.026558 0.006285 -0.026558
v -0.031461 0.021864 -0.018164
v -0.032565 0.009999 -0.018801
v -0.035090 0.021864 -0.009402
v -0.036321 0.009999 -0.009732
v -0.007662 -0.000008 -0.028596
v -0.010564 0.206591 -0.039427
v -0.020409 0.206591 -0.035349
v -0.010510 0.215821 -0.039223
v -0.006788 0.235734 -0.025906
v -0.009288 0.225761 -0.034664
v 0.000000 0.191779 -0.038097
v 0.000000 0.206591 -0.040817
v 0.009860 0.191779 -0.036799
v 0.018164 0.184555 -0.031461
v 0.032565 0.009999 -0.018801
v 0.032527 0.006285 -0.018779
v 0.028596 -0.000008 -0.007662
v 0.025639 -0.000008 -0.014802
v 0.020934 -0.000008 -0.020934
v -0.007224 0.319506 0.012441
v -0.010854 0.329637 0.010791
v -0.007687 0.329626 0.013221
v -0.008026 0.331740 0.013781
v -0.011328 0.331752 0.011247
v -0.010870 0.335929 0.010782
v -0.014827 0.335947 0.003927
v -0.012488 0.319526 0.007176
v -0.003755 0.319495 0.013878
v -0.036328 0.057053 0.000000
v -0.029605 -0.000008 -0.000000
v 0.007662 -0.000008 0.028596
v 0.000000 0.215821 -0.040607
v 0.028713 0.215821 -0.028713
v 0.013985 0.262195 -0.003669
v 0.013642 0.235626 0.023423
v -0.024924 0.206591 0.031885
v -0.010302 0.201069 0.038447
v -0.018164 0.179639 0.031461
v -0.019796 0.199922 0.034288
v -0.022204 0.191779 0.030572
v -0.023858 0.200259 0.031082
v -0.036328 0.184555 0.000000
v 0.007160 0.319470 0.012441
v -0.028474 0.203601 0.028474
v -0.035276 0.210284 0.020367
v -0.039850 0.214412 0.005988
v -0.040295 0.206591 0.003970
v -0.040052 0.215821 0.004212
v -0.040237 0.215821 0.002806
v -0.039148 0.217695 0.004321
v -0.037413 0.215821 0.014881
v -0.038263 0.217915 0.010252
v -0.039566 0.215821 0.007902
v -0.037430 0.222511 0.000000
v -0.014827 0.335958 -0.003988
v -0.013300 0.335939 0.007615
v 0.014475 0.262189 0.000054
v 0.000092 0.262245 -0.014330
v -0.003999 0.329615 0.014749
v 0.013862 0.319477 -0.003740
v -0.012488 0.319547 -0.007208
v -0.013925 0.319546 -0.003739
v -0.014811 0.329666 -0.003979
v 0.025688 0.184555 0.025688
v 0.031461 0.179639 0.018164
v -0.011327 0.331783 -0.011304
v -0.013299 0.335959 -0.007677
v -0.003998 0.329655 -0.014793
v 0.004075 0.331752 -0.015431
v 0.003901 0.335929 -0.014802
v 0.014713 0.335889 -0.003990
v -0.028596 -0.000008 -0.007662
v 0.000000 0.030087 -0.036328
v 0.018164 0.040723 -0.031461
v -0.038018 0.221273 0.000000
v -0.036519 0.223689 -0.002670
v -0.037184 0.220266 -0.009963
v -0.035462 0.225761 -0.003231
v 0.009402 0.184555 -0.035090
v 0.000231 0.195748 0.038016
v -0.010071 0.201069 0.037637
v -0.010037 0.200348 0.037509
v -0.019677 0.201137 0.033671
v -0.028632 0.206591 0.028052
v -0.030076 0.206591 0.026170
v -0.028590 0.210633 0.028002
v -0.020396 0.207722 0.035327
v -0.028690 0.209962 0.028898
v -0.020161 0.210168 0.034483
v -0.020368 0.210168 0.035278
v -0.024142 0.208105 0.031487
v -0.024342 0.209158 0.032258
v -0.035792 0.220266 -0.010774
v -0.035127 0.223689 -0.003480
v -0.010523 0.213633 0.039271
v -0.010316 0.213633 0.038477
v 0.000000 0.215821 0.040607
v 0.000207 0.215821 0.039812
v -0.010321 0.212675 0.038498
v -0.020186 0.207995 0.034526
v -0.024577 0.207041 0.031184
v -0.036625 0.221273 -0.000810
v -0.034069 0.225761 -0.004041
v -0.036870 0.217915 0.009442
v -0.036038 0.222511 -0.000810
v 0.000000 0.215172 0.040621
v -0.010528 0.212675 0.039292
v -0.037756 0.217695 0.003511
v -0.038845 0.215821 0.001995
v -0.038902 0.206591 0.003160
v -0.038660 0.215821 0.003402
v -0.038458 0.214412 0.005178
v -0.037831 0.215821 0.009700
v -0.038011 0.215821 0.012069
v -0.038242 0.215821 0.012879
v -0.035045 0.210284 0.019557
v -0.037182 0.215821 0.014070
v -0.038174 0.215821 0.007092
v -0.003754 0.319535 -0.013910
v -0.010200 0.198919 0.038066
v -0.019619 0.200506 0.033571
v -0.024667 0.200814 0.029769
v -0.021973 0.191779 0.029762
v -0.025948 0.200307 0.029657
v -0.025380 0.201282 0.029329
v -0.028374 0.204606 0.027795
v -0.030307 0.206591 0.026980
v 0.000000 0.195086 0.038704
v -0.019985 0.201981 0.034616
v -0.028153 0.206591 0.029407
vt 0.010391 0.062012
vt 0.039307 0.062012
vt 0.068176 0.062012
vt 0.068176 0.049805
vt 0.366455 0.062988
vt 0.097107 0.062988
vt 0.125977 0.062988
vt 0.154907 0.062500
vt 0.097107 0.049805
vt 0.183838 0.062012
vt 0.241699 0.062988
vt 0.270508 0.062500
vt 0.212769 0.062988
vt 0.299561 0.062012
vt 0.357178 0.062988
vt 0.328369 0.062988
vt 0.386230 0.062500
vt 0.415039 0.062012
vt 0.444092 0.043945
vt 0.415039 0.043945
vt 0.472900 0.041016
vt 0.444092 0.041016
vt 0.501953 0.038086
vt 0.472900 0.038086
vt 0.501953 0.035156
vt 0.386230 0.043945
vt 0.415039 0.041016
vt 0.444092 0.038086
vt 0.472900 0.035156
vt 0.501953 0.026367
vt 0.530762 0.018066
vt 0.530762 0.026367
vt 0.415039 0.038086
vt 0.472900 0.026367
vt 0.501953 0.018066
vt 0.530762 0.012207
vt 0.559570 0.012207
vt 0.559570 0.009277
vt 0.588379 0.009277
vt 0.559570 0.006836
vt 0.472900 0.018066
vt 0.444092 0.026367
vt 0.501953 0.012207
vt 0.530762 0.009277
vt 0.415039 0.035156
vt 0.415039 0.026367
vt 0.472900 0.012207
vt 0.444092 0.018066
vt 0.501953 0.009277
vt 0.501953 0.006836
vt 0.386230 0.035156
vt 0.386230 0.026367
vt 0.415039 0.018066
vt 0.444092 0.012207
vt 0.472900 0.009277
vt 0.386230 0.018066
vt 0.415039 0.012207
vt 0.444092 0.009277
vt 0.415039 0.009277
vt 0.386230 0.012207
vt 0.241699 0.006836
vt 0.212769 0.006836
vt 0.241699 0.009277
vt 0.212769 0.009277
vt 0.183838 0.009277
vt 0.183838 0.006836
vt 0.386230 0.009277
vt 0.357178 0.009277
vt 0.357178 0.012207
vt 0.328369 0.009277
vt 0.328369 0.012207
vt 0.299561 0.009277
vt 0.299561 0.012207
vt 0.270508 0.012207
vt 0.270508 0.009277
vt 0.241699 0.012207
vt 0.212769 0.012207
vt 0.154907 0.012207
vt 0.183838 0.012207
vt 0.270508 0.018066
vt 0.212769 0.018066
vt 0.183838 0.018066
vt 0.154907 0.018066
vt 0.328369 0.018066
vt 0.299561 0.018066
vt 0.299561 0.026367
vt 0.154907 0.026367
vt 0.183838 0.026367
vt 0.125977 0.018066
vt 0.125977 0.026367
vt 0.241699 0.035156
vt 0.270508 0.035156
vt 0.270508 0.026367
vt 0.212769 0.035156
vt 0.241699 0.026367
vt 0.212769 0.026367
vt 0.154907 0.035156
vt 0.125977 0.035156
vt 0.097107 0.035156
vt 0.097107 0.026367
vt 0.068176 0.035156
vt 0.212769 0.038086
vt 0.241699 0.038086
vt 0.125977 0.038086
vt 0.154907 0.038086
vt 0.097107 0.038086
vt 0.068176 0.038086
vt 0.039307 0.038086
vt 0.183838 0.038086
vt 0.183838 0.041016
vt 0.154907 0.041016
vt 0.125977 0.041016
vt 0.097107 0.041016
vt 0.068176 0.041016
vt 0.039307 0.041016
vt 0.212769 0.041016
vt 0.183838 0.043945
vt 0.125977 0.043945
vt 0.154907 0.043945
vt 0.097107 0.043945
vt 0.068176 0.043945
vt 0.039307 0.043945
vt 0.154907 0.045898
vt 0.212769 0.043945
vt 0.183838 0.045898
vt 0.357178 0.043945
vt 0.328369 0.043945
vt 0.328369 0.045898
vt 0.357178 0.046387
vt 0.241699 0.043945
vt 0.241699 0.041016
vt 0.270508 0.041016
vt 0.299561 0.043945
vt 0.328369 0.041016
vt 0.357178 0.041016
vt 0.386230 0.041016
vt 0.270508 0.038086
vt 0.299561 0.041016
vt 0.299561 0.038086
vt 0.357178 0.038086
vt 0.328369 0.038086
vt 0.386230 0.038086
vt 0.299561 0.035156
vt 0.357178 0.035156
vt 0.328369 0.035156
vt 0.328369 0.026367
vt 0.357178 0.026367
vt 0.357178 0.018066
vt 0.507813 0.058105
vt 0.617676 0.058105
vt 0.507813 0.012207
vt 0.154907 0.009277
vt 0.154907 0.006836
vt 0.125977 0.009277
vt 0.125977 0.006836
vt 0.097107 0.009277
vt 0.097107 0.006836
vt 0.068176 0.009277
vt 0.068176 0.006836
vt 0.039307 0.006836
vt 0.010391 0.006836
vt 0.039307 0.009277
vt 0.125977 0.012207
vt 0.097107 0.012207
vt 0.039307 0.012207
vt 0.068176 0.012207
vt 0.097107 0.018066
vt 0.039307 0.018066
vt 0.068176 0.018066
vt 0.068176 0.026367
vt 0.039307 0.035156
vt 0.039307 0.026367
vt 0.010391 0.038086
vt 0.482178 0.012207
vt 0.482178 0.058105
vt 0.617676 0.012207
vt 0.668945 0.058105
vt 0.668945 0.012207
vt 0.357178 0.052246
vt 0.299561 0.049805
vt 0.270508 0.049805
vt 0.125977 0.045898
vt 0.125977 0.049805
vt 0.588379 0.006836
vt 0.588379 0.012207
vt 0.617676 0.009277
vt 0.588379 0.018066
vt 0.617676 0.018066
vt 0.617676 0.026367
vt 0.588379 0.026367
vt 0.588379 0.035156
vt 0.617676 0.041016
vt 0.617676 0.038086
vt 0.588379 0.041016
vt 0.646484 0.012207
vt 0.646484 0.009277
vt 0.646484 0.018066
vt 0.646484 0.026367
vt 0.646484 0.035156
vt 0.617676 0.035156
vt 0.646484 0.038086
vt 0.675293 0.012207
vt 0.675293 0.009277
vt 0.675293 0.018066
vt 0.675293 0.026367
vt 0.675293 0.035156
vt 0.675293 0.041016
vt 0.675293 0.038086
vt 0.646484 0.041016
vt 0.704102 0.009277
vt 0.704102 0.012207
vt 0.704102 0.026367
vt 0.704102 0.035156
vt 0.704102 0.041016
vt 0.675293 0.043945
vt 0.617676 0.043945
vt 0.646484 0.043945
vt 0.588379 0.043945
vt 0.559570 0.043945
vt 0.559570 0.041016
vt 0.530762 0.043945
vt 0.617676 0.059570
vt 0.588379 0.059570
vt 0.559570 0.059570
vt 0.444092 0.062012
vt 0.472900 0.062012
vt 0.501953 0.062988
vt 0.530762 0.062988
vt 0.559570 0.062500
vt 0.588379 0.062012
vt 0.646484 0.062988
vt 0.617676 0.062988
vt 0.675293 0.062500
vt 0.559570 0.038086
vt 0.588379 0.038086
vt 0.559570 0.035156
vt 0.559570 0.018066
vt 0.559570 0.026367
vt 0.530762 0.041016
vt 0.530762 0.038086
vt 0.501953 0.041016
vt 0.472900 0.043945
vt 0.183838 0.049805
vt 0.530762 0.035156
vt 0.444092 0.035156
vt 0.386230 0.006836
vt 0.299561 0.006836
vt 0.241699 0.018066
vt 0.154907 0.039551
vt 0.114441 0.041016
vt 0.108643 0.039551
vt 0.068176 0.045898
vt 0.010391 0.043945
vt 0.026855 0.035645
vt 0.021255 0.038086
vt 0.021973 0.035156
vt 0.010391 0.018066
vt 0.052185 0.035156
vt 0.039307 0.033691
vt 0.032135 0.035156
vt 0.010391 0.029297
vt 0.647461 0.051270
vt 0.647949 0.018555
vt 0.628906 0.051270
vt 0.270508 0.043945
vt 0.299561 0.045898
vt 0.530762 0.059570
vt 0.704102 0.030762
vt 0.696289 0.028320
vt 0.675293 0.031250
vt 0.694336 0.026367
vt 0.501953 0.043945
vt 0.472900 0.059570
vt 0.141479 0.787842
vt 0.153320 0.728516
vt 0.151733 0.728516
vt 0.646484 0.006836
vt 0.234497 0.459473
vt 0.220947 0.459961
vt 0.205078 0.435547
vt 0.234009 0.435059
vt 0.176147 0.437500
vt 0.022278 0.033691
vt 0.018112 0.035156
vt 0.046295 0.035156
vt 0.154907 0.049805
vt 0.384033 0.098145
vt 0.375977 0.096680
vt 0.125977 0.039551
vt 0.039307 0.049805
vt 0.530762 0.006836
vt 0.472900 0.006836
vt 0.415039 0.006836
vt 0.328369 0.006836
vt 0.270508 0.006836
vt 0.183838 0.035156
vt 0.010391 0.041016
vt 0.097107 0.045898
vt 0.212769 0.045898
vt 0.241699 0.045898
vt 0.010391 0.012207
vt 0.010391 0.026367
vt 0.010391 0.035156
vt 0.684570 0.051270
vt 0.685059 0.018555
vt 0.666016 0.051270
vt 0.666504 0.018555
vt 0.629883 0.018555
vt 0.610352 0.051270
vt 0.611328 0.018555
vt 0.592285 0.051270
vt 0.555664 0.019043
vt 0.555176 0.051270
vt 0.574219 0.019043
vt 0.537109 0.051270
vt 0.537109 0.019043
vt 0.518555 0.051270
vt 0.500000 0.051270
vt 0.499756 0.019043
vt 0.481689 0.051270
vt 0.462891 0.018555
vt 0.463379 0.051270
vt 0.481201 0.019043
vt 0.445068 0.051270
vt 0.426514 0.051270
vt 0.407471 0.018555
vt 0.407959 0.051270
vt 0.425781 0.018555
vt 0.352051 0.018555
vt 0.352539 0.051270
vt 0.370605 0.018555
vt 0.333984 0.051270
vt 0.333740 0.018555
vt 0.315430 0.051270
vt 0.315430 0.018555
vt 0.296875 0.051270
vt 0.296875 0.018555
vt 0.278320 0.051270
vt 0.278564 0.018555
vt 0.328369 0.049805
vt 0.241699 0.049805
vt 0.212769 0.049805
vt 0.010391 0.046387
vt 0.010071 0.049316
vt 0.039307 0.045898
vt 0.270508 0.045898
vt 0.357666 0.049316
vt 0.617676 0.006836
vt 0.675293 0.006836
vt 0.704102 0.018066
vt 0.704102 0.038086
vt 0.704102 0.062012
vt 0.704102 0.046387
vt 0.704102 0.043945
vt 0.646484 0.059570
vt 0.704102 0.006836
vt 0.010391 0.052246
vt 0.444092 0.006836
vt 0.357178 0.006836
vt 0.112793 0.038086
vt 0.106262 0.039551
vt 0.090698 0.038086
vt 0.010391 0.009277
vt 0.592773 0.019043
vt 0.573730 0.051270
vt 0.518555 0.019043
vt 0.389404 0.051270
vt 0.388916 0.018555
vt 0.371094 0.051270
vt 0.259766 0.051270
vt 0.260254 0.018555
vt 0.241089 0.051270
vt 0.704102 0.052246
vt 0.501953 0.059570
vt 0.152100 0.669189
vt 0.153442 0.669189
vt 0.152710 0.633301
vt 0.165649 0.609863
vt 0.161255 0.609863
vt 0.165649 0.596436
vt 0.153809 0.628662
vt 0.132568 0.645264
vt 0.222656 0.472168
vt 0.238281 0.473145
vt 0.251465 0.472656
vt 0.263428 0.458008
vt 0.205688 0.458984
vt 0.704102 0.029297
vt 0.162842 0.437988
vt 0.147217 0.436523
vt 0.853516 0.672852
vt 0.853516 0.671631
vt 0.845215 0.670654
vt 0.843262 0.668945
vt 0.178955 0.719727
vt 0.137817 0.715332
vt 0.122620 0.715332
vt 0.104675 0.715332
vt 0.104675 0.710693
vt 0.086243 0.715332
vt 0.072754 0.716553
vt 0.060211 0.715332
vt 0.060974 0.711182
vt 0.050262 0.715332
vt 0.030457 0.702881
vt 0.030457 0.700195
vt 0.212769 0.137695
vt 0.183838 0.137695
vt 0.154907 0.138672
vt 0.010391 0.030762
vt 0.453613 0.097656
vt 0.424561 0.096680
vt 0.395752 0.096680
vt 0.378174 0.096680
vt 0.366699 0.095703
vt 0.360352 0.095215
vt 0.337891 0.094238
vt 0.824707 0.673584
vt 0.178955 0.550293
vt 0.058350 0.722900
vt 0.989258 0.954224
vt 0.916992 0.954224
vt 0.989258 0.996439
vt 0.815918 0.062500
vt 0.726074 0.050293
vt 0.735352 0.039063
vt 0.982910 0.101074
vt 0.982910 0.011230
vt 0.937012 0.101074
vt 0.937012 0.011230
vt 0.937012 0.004395
vt 0.982910 0.004395
vt 0.916992 0.911987
vt 0.989258 0.743164
vt 0.916992 0.743164
vt 0.989258 0.785278
vt 0.000894 0.995426
vt 0.902344 0.995426
vt 0.000894 0.946289
vt 0.902344 0.946289
vt 0.000894 0.897156
vt 0.902344 0.897156
vt 0.000894 0.848022
vt 0.902344 0.848022
vt 0.000894 0.798828
vt 0.902344 0.798828
vt 0.000894 0.749756
vt 0.902344 0.749756
vt 0.000894 0.700439
vt 0.902344 0.700439
vt 0.000894 0.651367
vt 0.902344 0.651367
vt 0.000894 0.602295
vt 0.902344 0.602295
vt 0.000894 0.552979
vt 0.902344 0.552979
vt 0.000894 0.503906
vt 0.902344 0.503906
vt 0.000894 0.454590
vt 0.902344 0.454590
vt 0.000894 0.405762
vt 0.902344 0.405762
vt 0.921387 0.080566
vt 0.004372 0.080078
vt 0.921875 0.093750
vt 0.004543 0.093262
vt 0.921875 0.106934
vt 0.004711 0.106445
vt 0.921875 0.119629
vt 0.004871 0.119141
vt 0.921875 0.132813
vt 0.005009 0.132324
vt 0.922363 0.145996
vt 0.005112 0.145508
vt 0.922363 0.159180
vt 0.005177 0.158691
vt 0.922363 0.171875
vt 0.005199 0.171875
vt 0.922363 0.185059
vt 0.005177 0.185059
vt 0.922363 0.198242
vt 0.005112 0.198242
vt 0.921875 0.211426
vt 0.005009 0.211426
vt 0.921875 0.224121
vt 0.004871 0.224609
vt 0.921875 0.237305
vt 0.004715 0.237793
vt 0.921875 0.250488
vt 0.004543 0.250977
vt 0.921387 0.263672
vt 0.004375 0.264160
vt 0.921387 0.276855
vt 0.004215 0.277344
vt 0.921387 0.290039
vt 0.004078 0.290039
vt 0.920898 0.303223
vt 0.003975 0.303223
vt 0.920898 0.316406
vt 0.003910 0.316406
vt 0.920898 0.329590
vt 0.003887 0.329590
vt 0.920898 0.342773
vt 0.003910 0.342285
vt 0.920898 0.355957
vt 0.003975 0.355469
vt 0.921387 0.369141
vt 0.004078 0.368652
vt 0.921387 0.381836
vt 0.004215 0.381836
vt 0.916992 0.996439
vt 0.989258 0.911987
vt 0.916992 0.869751
vt 0.989258 0.869751
vt 0.916992 0.785278
vt 0.989258 0.827515
vt 0.723145 0.062500
vt 0.750488 0.029785
vt 0.791992 0.017578
vt 0.769531 0.022461
vt 0.815918 0.016113
vt 0.839844 0.017578
vt 0.862305 0.021973
vt 0.881348 0.029297
vt 0.916992 0.827515
vt 0.896484 0.039063
vt 0.905762 0.050293
vt 0.908691 0.062500
vt 0.921387 0.067383
vt 0.004215 0.066895
usemtl bayomat0
s 1
f 162/1 163/1 164/2
f 165/2 164/2 163/1
f 163/1 166/1 165/2
f 167/2 165/2 166/1
f 169/3 168/4 164/2
f 164/2 165/2 169/3
f 170/3 169/3 165/2
f 165/2 167/2 170/3
f 171/3 170/3 167/2
f 172/2 173/5 174/3
f 175/6 174/3 173/5
f 173/5 176/7 175/6
f 177/7 175/6 176/7
f 176/7 178/8 177/7
f 168/4 169/3 179/9
f 180/6 179/9 169/3
f 175/6 181/6 174/3
f 180/6 182/6 183/7
f 185/8 186/8 187/7
f 189/10 190/10 185/8
f 185/8 178/8 189/10
f 191/10 192/10 193/8
f 193/8 173/5 191/10
f 194/11 195/12 196/11
f 197/12 196/11 195/12
f 190/10 189/10 198/13
f 199/13 200/13 192/10
f 196/11 201/11 199/13
f 202/11 201/11 203/12
f 197/12 203/12 201/11
f 197/12 195/12 204/14
f 205/14 204/14 195/12
f 206/14 205/14 207/12
f 173/5 208/15 209/16
f 210/17 211/15 212/17
f 204/14 205/14 213/16
f 214/16 213/16 205/14
f 205/14 206/14 214/16
f 209/16 214/16 206/14
f 215/15 214/16 211/15
f 211/15 210/17 215/15
f 216/17 215/15 210/17
f 217/18 218/19 219/20
f 218/19 220/21 221/22
f 220/21 222/23 223/24
f 224/25 223/24 222/23
f 225/26 226/15 216/17
f 219/20 221/22 227/27
f 228/28 227/27 221/22
f 221/22 223/24 228/28
f 229/29 228/28 223/24
f 223/24 224/25 229/29
f 230/30 229/29 224/25
f 231/31 230/30 232/32
f 227/27 228/28 233/33
f 229/29 230/30 234/34
f 235/35 234/34 230/30
f 230/30 231/31 235/35
f 236/36 235/35 231/31
f 231/31 237/37 236/36
f 238/38 236/36 237/37
f 237/37 239/39 238/38
f 240/40 238/38 239/39
f 241/41 242/42 234/34
f 243/43 241/41 235/35
f 236/36 238/38 244/44
f 245/45 242/42 246/46
f 247/47 248/48 241/41
f 249/49 247/47 243/43
f 250/50 249/49 244/44
f 251/51 246/46 252/52
f 253/53 252/52 246/46
f 246/46 248/48 253/53
f 254/54 253/53 248/48
f 248/48 247/47 254/54
f 247/47 249/49 255/55
f 252/52 253/53 256/56
f 257/57 256/56 253/53
f 253/53 254/54 257/57
f 258/58 257/57 254/54
f 259/59 260/60 257/57
f 257/57 258/58 259/59
f 264/61 266/62 267/63
f 268/64 267/63 266/62
f 269/65 268/64 270/66
f 271/67 272/68 273/69
f 272/68 262/70 274/71
f 262/70 263/72 275/73
f 276/74 275/73 263/72
f 265/75 267/63 277/76
f 278/77 277/76 267/63
f 279/78 280/79 269/65
f 275/73 276/74 281/80
f 277/76 278/77 282/81
f 283/82 282/81 278/77
f 278/77 280/79 283/82
f 284/83 283/82 280/79
f 285/84 286/85 287/86
f 288/87 289/88 283/82
f 284/83 290/89 291/90
f 292/91 293/92 294/93
f 295/94 292/91 296/95
f 296/95 297/96 295/94
f 289/88 288/87 298/97
f 288/87 291/90 299/98
f 300/99 299/98 291/90
f 291/90 301/100 300/99
f 302/101 300/99 301/100
f 303/102 304/103 292/91
f 292/91 295/94 303/102
f 307/104 306/105 298/97
f 298/97 299/98 307/104
f 308/106 307/104 299/98
f 299/98 300/99 308/106
f 309/107 308/106 300/99
f 300/99 302/101 309/107
f 310/108 309/107 302/101
f 303/102 305/109 311/110
f 312/111 311/110 305/109
f 305/109 306/105 312/111
f 313/112 312/111 306/105
f 306/105 307/104 313/112
f 314/113 313/112 307/104
f 307/104 308/106 314/113
f 315/114 314/113 308/106
f 308/106 309/107 315/114
f 316/115 315/114 309/107
f 317/116 311/110 318/117
f 319/118 320/119 312/111
f 313/112 314/113 321/120
f 314/113 315/114 322/121
f 315/114 316/115 323/122
f 318/117 320/119 324/123
f 326/124 318/117 327/125
f 329/126 330/127 331/128
f 331/128 332/129 329/126
f 318/117 326/124 317/116
f 326/124 328/130 333/131
f 334/132 333/131 328/130
f 335/133 330/127 336/134
f 337/135 336/134 330/127
f 329/126 225/26 338/136
f 317/116 333/131 304/103
f 339/137 304/103 333/131
f 333/131 334/132 339/137
f 334/132 340/138 341/139
f 342/140 343/141 336/134
f 336/134 337/135 342/140
f 344/142 342/140 337/135
f 337/135 338/136 344/142
f 304/103 339/137 293/92
f 339/137 341/139 345/143
f 346/144 347/145 343/141
f 251/51 346/144 342/140
f 293/92 345/143 287/86
f 345/143 347/145 348/146
f 349/147 348/146 347/145
f 347/145 346/144 349/147
f 252/52 349/147 346/144
f 346/144 251/51 252/52
f 348/146 349/147 350/148
f 285/84 350/148 273/69
f 260/60 273/69 350/148
f 350/148 256/56 260/60
f 351/149 352/150 353/151
f 357/152 269/65 358/153
f 359/154 357/152 360/155
f 361/156 359/154 362/157
f 363/158 361/156 364/159
f 364/159 365/160 363/158
f 365/160 366/161 367/162
f 269/65 357/152 279/78
f 368/163 279/78 357/152
f 369/164 368/163 359/154
f 359/154 361/156 369/164
f 370/165 371/166 363/158
f 363/158 367/162 370/165
f 372/167 290/89 368/163
f 371/166 370/165 373/168
f 290/89 372/167 301/100
f 372/167 374/169 375/170
f 301/100 375/170 302/101
f 377/171 302/101 375/170
f 375/170 378/172 377/171
f 302/101 377/171 310/108
f 379/173 310/108 377/171
f 383/149 384/150 385/151
f 385/151 386/174 383/149
f 387/175 388/149 389/174
f 390/151 389/174 388/149
f 195/12 194/11 207/12
f 173/5 207/12 194/11
f 408/176 409/150 410/149
f 413/151 412/149 411/150
f 415/175 414/151 412/149
f 417/177 416/150 420/178
f 421/151 422/176 418/149
f 423/174 421/151 419/175
f 213/16 226/15 424/16
f 425/179 424/16 226/15
f 226/15 225/26 425/179
f 426/180 428/181 203/12
f 431/176 430/178 429/150
f 432/149 433/175 434/151
f 435/174 434/151 433/175
f 430/178 431/176 436/177
f 440/150 439/149 441/176
f 441/176 442/178 440/150
f 451/182 452/183 453/123
f 173/5 193/8 176/7
f 460/176 461/151 462/150
f 240/40 239/39 463/184
f 239/39 464/185 465/186
f 464/185 466/187 467/176
f 468/188 467/176 466/187
f 469/189 468/188 470/190
f 470/190 471/191 469/189
f 472/192 473/193 474/194
f 475/195 476/196 467/176
f 467/176 468/188 475/195
f 468/188 469/189 477/197
f 478/198 477/197 469/189
f 479/199 478/198 480/200
f 480/200 473/193 479/199
f 481/201 479/199 473/193
f 483/202 484/203 475/195
f 475/195 477/197 483/202
f 477/197 478/198 485/204
f 486/205 485/204 478/198
f 487/206 486/205 479/199
f 488/207 489/208 490/209
f 484/203 483/202 491/210
f 483/202 485/204 492/211
f 486/205 487/206 493/212
f 494/213 493/212 487/206
f 487/206 489/208 494/213
f 495/214 488/207 496/215
f 497/216 498/217 490/209
f 490/209 472/192 497/216
f 472/192 474/194 499/218
f 500/219 499/218 474/194
f 474/194 501/220 500/219
f 502/221 500/219 501/220
f 498/217 497/216 503/222
f 497/216 499/218 504/223
f 505/224 504/223 499/218
f 506/225 507/225 508/226
f 507/225 509/225 510/226
f 511/227 512/226 173/5
f 173/5 513/228 511/227
f 514/228 511/227 513/228
f 515/229 514/228 516/229
f 508/226 510/226 517/227
f 518/227 517/227 510/226
f 510/226 519/226 518/227
f 520/227 518/227 519/226
f 519/226 512/226 520/227
f 511/227 520/227 512/226
f 517/227 518/227 521/228
f 518/227 520/227 522/228
f 520/227 511/227 514/228
f 521/228 522/228 523/229
f 523/229 515/229 525/230
f 515/229 516/229 526/230
f 527/231 528/232 529/231
f 529/231 530/233 527/231
f 525/230 526/230 531/232
f 532/232 531/232 526/230
f 526/230 533/230 532/232
f 533/230 534/230 535/232
f 528/232 535/232 534/230
f 531/232 532/232 536/231
f 537/231 536/231 532/232
f 532/232 535/232 537/231
f 516/229 513/228 540/229
f 541/234 501/220 542/235
f 543/236 541/234 471/191
f 544/237 545/238 466/187
f 466/187 464/185 544/237
f 501/220 541/234 546/239
f 541/234 543/236 547/240
f 545/238 544/237 232/32
f 544/237 237/37 231/31
f 222/23 548/241 547/240
f 506/225 549/242 218/19
f 218/19 217/18 506/225
f 550/18 506/225 217/18
f 551/18 507/225 550/18
f 550/18 212/17 551/18
f 212/17 208/15 552/17
f 507/225 551/18 509/225
f 553/18 509/225 551/18
f 173/5 554/225 553/18
f 557/150 556/176 555/177
f 556/176 557/150 558/149
f 190/10 198/13 188/243
f 271/67 273/69 260/60
f 561/174 412/149 413/151
f 166/1 565/1 167/2
f 172/2 167/2 565/1
f 167/2 172/2 171/3
f 174/3 171/3 172/2
f 185/8 177/7 178/8
f 169/3 170/3 180/6
f 182/6 180/6 170/3
f 170/3 171/3 182/6
f 181/6 182/6 171/3
f 171/3 174/3 181/6
f 179/9 180/6 184/183
f 183/7 184/183 180/6
f 187/7 183/7 182/6
f 182/6 181/6 187/7
f 177/7 187/7 181/6
f 181/6 175/6 177/7
f 183/7 187/7 186/8
f 187/7 177/7 185/8
f 190/10 188/243 186/8
f 186/8 185/8 190/10
f 192/10 189/10 178/8
f 178/8 193/8 192/10
f 566/13 191/10 173/5
f 173/5 194/11 566/13
f 196/11 566/13 194/11
f 200/13 198/13 189/10
f 189/10 192/10 200/13
f 192/10 191/10 199/13
f 566/13 199/13 191/10
f 198/13 200/13 202/11
f 201/11 202/11 200/13
f 200/13 199/13 201/11
f 199/13 566/13 196/11
f 201/11 196/11 197/12
f 203/12 197/12 427/14
f 204/14 427/14 197/12
f 195/12 207/12 205/14
f 207/12 173/5 206/14
f 209/16 206/14 173/5
f 211/15 209/16 208/15
f 208/15 212/17 211/15
f 212/17 550/18 210/17
f 217/18 210/17 550/18
f 427/14 204/14 424/16
f 213/16 424/16 204/14
f 209/16 211/15 214/16
f 210/17 217/18 216/17
f 219/20 216/17 217/18
f 221/22 219/20 218/19
f 223/24 221/22 220/21
f 222/23 567/244 224/25
f 232/32 224/25 567/244
f 214/16 215/15 213/16
f 226/15 213/16 215/15
f 215/15 216/17 226/15
f 216/17 219/20 225/26
f 227/27 225/26 219/20
f 224/25 232/32 230/30
f 225/26 227/27 338/136
f 233/33 338/136 227/27
f 568/245 233/33 228/28
f 228/28 229/29 568/245
f 234/34 568/245 229/29
f 338/136 233/33 344/142
f 245/45 344/142 233/33
f 233/33 568/245 245/45
f 242/42 245/45 568/245
f 568/245 234/34 242/42
f 234/34 235/35 241/41
f 235/35 236/36 243/43
f 244/44 243/43 236/36
f 344/142 245/45 251/51
f 246/46 251/51 245/45
f 248/48 246/46 242/42
f 242/42 241/41 248/48
f 241/41 243/43 247/47
f 243/43 244/44 249/49
f 255/55 254/54 247/47
f 254/54 255/55 258/58
f 256/56 257/57 260/60
f 260/60 259/59 271/67
f 569/246 271/67 259/59
f 263/72 262/70 261/247
f 267/63 265/75 264/61
f 266/62 270/66 268/64
f 274/71 273/69 272/68
f 275/73 274/71 262/70
f 263/72 265/75 276/74
f 277/76 276/74 265/75
f 267/63 268/64 278/77
f 280/79 278/77 268/64
f 268/64 269/65 280/79
f 273/69 274/71 285/84
f 286/85 285/84 274/71
f 274/71 275/73 286/85
f 281/80 286/85 275/73
f 570/248 281/80 276/74
f 276/74 277/76 570/248
f 282/81 570/248 277/76
f 280/79 279/78 284/83
f 290/89 284/83 279/78
f 294/93 287/86 286/85
f 286/85 281/80 294/93
f 296/95 294/93 281/80
f 281/80 570/248 296/95
f 297/96 296/95 570/248
f 570/248 282/81 297/96
f 289/88 297/96 282/81
f 282/81 283/82 289/88
f 283/82 284/83 288/87
f 291/90 288/87 284/83
f 301/100 291/90 290/89
f 287/86 294/93 293/92
f 294/93 296/95 292/91
f 299/98 298/97 288/87
f 293/92 292/91 304/103
f 305/109 303/102 295/94
f 305/109 306/105 572/249
f 317/116 303/102 311/110
f 327/125 318/117 324/123
f 318/117 311/110 320/119
f 312/111 320/119 311/110
f 324/123 320/119 573/182
f 319/118 573/182 320/119
f 313/112 319/118 312/111
f 319/118 313/112 321/120
f 575/250 321/120 313/112
f 313/112 576/251 575/250
f 322/121 325/252 321/120
f 321/120 314/113 322/121
f 314/113 309/107 315/114
f 309/107 310/108 316/115
f 322/121 315/114 323/122
f 323/122 316/115 577/253
f 438/151 441/176 439/149
f 442/178 441/176 578/177
f 444/176 445/151 443/150
f 321/120 575/250 314/113
f 309/107 314/113 579/106
f 580/107 377/171 309/107
f 310/108 309/107 377/171
f 377/171 581/254 310/108
f 582/255 310/108 581/254
f 581/254 583/256 582/255
f 310/108 582/255 379/173
f 270/66 358/153 269/65
f 358/153 360/155 357/152
f 360/155 362/157 359/154
f 362/157 364/159 361/156
f 367/162 363/158 365/160
f 357/152 359/154 368/163
f 371/166 369/164 361/156
f 361/156 363/158 371/166
f 279/78 368/163 290/89
f 368/163 369/164 372/167
f 374/169 372/167 369/164
f 369/164 371/166 374/169
f 373/168 374/169 371/166
f 376/257 373/168 370/165
f 375/170 301/100 372/167
f 378/172 375/170 374/169
f 374/169 373/168 378/172
f 586/258 302/101 375/170
f 375/170 587/259 586/258
f 375/170 378/172 587/259
f 588/260 587/259 378/172
f 378/172 589/261 588/260
f 590/174 414/151 415/175
f 415/175 412/149 561/174
f 462/150 562/178 460/176
f 559/151 556/176 558/149
f 392/262 391/263 393/264
f 422/176 420/178 416/150
f 416/150 418/149 422/176
f 418/149 419/175 421/151
f 348/146 350/148 285/84
f 285/84 287/86 348/146
f 345/143 348/146 287/86
f 339/137 345/143 293/92
f 326/124 333/131 317/116
f 349/147 256/56 350/148
f 341/139 347/145 345/143
f 334/132 341/139 339/137
f 256/56 349/147 252/52
f 347/145 341/139 343/141
f 340/138 343/141 341/139
f 599/265 340/138 334/132
f 334/132 328/130 599/265
f 346/144 343/141 342/140
f 343/141 340/138 336/134
f 335/133 336/134 340/138
f 340/138 599/265 335/133
f 251/51 342/140 344/142
f 600/266 330/127 335/133
f 329/126 338/136 337/135
f 337/135 330/127 329/126
f 330/127 600/266 331/128
f 332/129 225/26 329/126
f 332/129 425/179 225/26
f 203/12 427/14 426/180
f 202/11 203/12 428/181
f 407/150 408/176 601/151
f 410/149 601/151 408/176
f 447/150 446/177 603/176
f 178/8 176/7 193/8
f 429/150 432/149 431/176
f 434/151 431/176 432/149
f 354/176 353/151 352/150
f 607/233 530/233 529/231
f 530/233 539/233 527/231
f 537/231 527/231 539/233
f 539/233 538/233 537/231
f 536/231 537/231 538/233
f 538/233 496/215 536/231
f 607/233 529/231 173/5
f 528/232 173/5 529/231
f 535/232 528/232 527/231
f 527/231 537/231 535/232
f 535/232 532/232 533/230
f 528/232 534/230 173/5
f 540/229 173/5 534/230
f 534/230 533/230 540/229
f 516/229 540/229 533/230
f 533/230 526/230 516/229
f 526/230 525/230 515/229
f 525/230 524/223 523/229
f 514/228 513/228 516/229
f 522/228 514/228 515/229
f 515/229 523/229 522/228
f 540/229 513/228 173/5
f 514/228 522/228 520/227
f 522/228 521/228 518/227
f 521/228 608/267 517/227
f 554/225 173/5 512/226
f 512/226 519/226 554/225
f 509/225 554/225 519/226
f 519/226 510/226 509/225
f 510/226 508/226 507/225
f 554/225 509/225 553/18
f 507/225 506/225 550/18
f 552/17 173/5 553/18
f 553/18 551/18 552/17
f 212/17 552/17 551/18
f 173/5 552/17 208/15
f 494/213 610/268 487/206
f 611/269 487/206 610/268
f 496/215 488/207 498/217
f 490/209 498/217 488/207
f 481/201 490/209 489/208
f 489/208 487/206 481/201
f 479/199 481/201 487/206
f 487/206 612/270 479/199
f 486/205 479/199 612/270
f 612/270 613/271 486/205
f 490/209 481/201 472/192
f 473/193 472/192 481/201
f 469/189 480/200 478/198
f 477/197 475/195 468/188
f 465/186 467/176 476/196
f 497/216 472/192 499/218
f 542/235 474/194 473/193
f 473/193 480/200 542/235
f 471/191 542/235 480/200
f 480/200 469/189 471/191
f 466/187 470/190 468/188
f 467/176 465/186 464/185
f 474/194 542/235 501/220
f 542/235 471/191 541/234
f 471/191 470/190 543/236
f 545/238 543/236 470/190
f 470/190 466/187 545/238
f 237/37 544/237 464/185
f 464/185 239/39 237/37
f 546/239 502/221 501/220
f 547/240 546/239 541/234
f 567/244 547/240 543/236
f 543/236 545/238 567/244
f 232/32 567/244 545/238
f 231/31 232/32 544/237
f 502/221 546/239 614/272
f 548/241 614/272 546/239
f 546/239 547/240 548/241
f 547/240 567/244 222/23
f 614/272 548/241 549/242
f 220/21 549/242 548/241
f 548/241 222/23 220/21
f 614/272 549/242 609/273
f 506/225 609/273 549/242
f 499/218 500/219 505/224
f 504/223 503/222 497/216
f 615/274 616/275 617/276
f 465/186 463/184 239/39
f 484/203 482/277 476/196
f 476/196 475/195 484/203
f 485/204 483/202 477/197
f 478/198 479/199 486/205
f 492/211 491/210 483/202
f 586/258 580/107 302/101
f 300/99 302/101 580/107
f 580/107 623/106 300/99
f 299/98 300/99 623/106
f 624/278 625/278 626/279
f 627/279 626/279 625/278
f 612/270 628/270 613/271
f 628/270 612/270 629/269
f 611/269 629/269 612/270
f 630/280 631/280 632/281
f 633/281 632/281 631/280
f 633/281 631/280 634/280
f 635/282 634/280 631/280
f 643/283 585/283 644/284
f 584/284 644/284 585/283
f 644/284 584/284 645/255
f 582/255 645/255 584/284
f 645/255 582/255 646/256
f 583/256 646/256 582/255
f 646/256 583/256 647/254
f 581/254 647/254 583/256
f 647/254 581/254 648/171
f 377/171 648/171 581/254
f 648/171 377/171 649/285
f 650/285 649/285 377/171
f 377/171 580/107 650/285
f 649/285 650/285 651/107
f 580/107 651/107 650/285
f 651/107 580/107 652/258
f 586/258 652/258 580/107
f 588/260 653/260 587/259
f 452/183 451/182 450/9
f 454/286 453/123 452/183
f 658/287 660/288 659/288
f 220/21 218/19 549/242
f 602/175 601/151 410/149
f 304/103 303/102 317/116
f 313/112 574/289 576/251
f 487/206 611/269 612/270
f 458/290 164/2 168/4
f 184/183 183/7 455/286
f 455/286 186/8 188/243
f 238/38 240/40 593/291
f 244/44 593/291 250/50
f 392/292 255/55 249/49
f 394/293 259/59 258/58
f 395/294 261/247 262/70
f 261/247 397/295 263/72
f 397/295 264/61 265/75
f 632/296 295/94 297/96
f 295/94 632/296 305/109
f 306/105 305/109 632/296
f 632/296 298/97 306/105
f 495/297 316/115 310/108
f 319/118 321/120 456/298
f 325/252 456/298 321/120
f 328/130 326/124 454/299
f 454/299 452/300 328/130
f 352/150 595/177 354/176
f 436/178 354/176 595/177
f 604/149 605/175 432/151
f 429/176 391/178 355/150
f 356/177 355/150 391/178
f 492/301 370/165 367/162
f 373/168 376/257 493/302
f 494/303 377/171 378/172
f 378/172 493/302 494/303
f 377/171 494/303 379/173
f 380/174 558/151 382/175
f 381/149 382/175 558/151
f 382/174 381/151 38/175
f 381/151 594/176 383/149
f 43/174 439/151 423/175
f 421/149 423/175 439/151
f 439/151 440/176 421/149
f 422/150 421/149 440/176
f 440/176 396/178 422/150
f 420/177 422/150 396/178
f 593/304 446/305 250/306
f 391/263 392/262 356/307
f 430/308 393/264 391/263
f 393/264 430/308 394/309
f 394/309 436/310 569/311
f 420/312 395/313 417/314
f 395/313 420/312 261/315
f 396/316 261/315 420/312
f 261/315 396/316 397/317
f 264/318 578/319 266/320
f 398/321 270/322 399/323
f 270/322 398/321 358/324
f 563/48 358/324 398/321
f 358/324 563/48 360/325
f 400/326 362/327 555/328
f 401/329 366/330 402/331
f 403/332 597/333 482/334
f 482/334 596/335 404/336
f 405/337 404/336 596/335
f 404/336 405/337 463/338
f 406/339 463/338 405/337
f 406/177 405/178 407/150
f 405/178 596/177 408/176
f 598/176 411/150 412/149
f 598/176 412/149 414/151
f 416/150 417/177 352/176
f 352/176 351/151 416/150
f 418/149 416/150 351/151
f 351/151 606/174 418/149
f 419/175 418/149 606/174
f 449/340 426/180 427/14
f 198/13 202/11 451/341
f 451/341 453/342 198/13
f 391/177 429/150 430/178
f 431/176 434/151 354/150
f 434/151 435/174 353/149
f 24/175 353/149 435/174
f 40/175 445/149 437/174
f 438/151 437/174 445/149
f 445/149 444/150 438/151
f 437/174 438/151 43/175
f 439/149 43/175 438/151
f 396/177 440/150 442/178
f 443/150 399/177 444/176
f 385/149 443/150 445/151
f 446/177 447/150 356/178
f 28/175 448/149 387/174
f 448/149 447/150 388/151
f 425/343 332/344 449/345
f 449/345 331/290 426/252
f 426/252 600/4 428/298
f 428/298 450/9 451/182
f 327/243 188/125 454/286
f 188/125 327/243 455/299
f 324/342 455/299 327/243
f 455/299 324/342 184/300
f 184/300 573/341 179/346
f 325/180 168/266 456/181
f 457/340 458/128 325/180
f 458/128 457/340 564/129
f 459/347 564/129 457/340
f 463/184 465/186 404/348
f 404/348 476/196 482/277
f 482/277 484/203 403/349
f 376/350 492/211 485/204
f 485/204 486/205 376/350
f 493/212 376/350 486/205
f 379/351 494/213 489/208
f 500/219 502/221 4/267
f 523/229 5/224 521/228
f 5/224 523/229 524/223
f 538/233 539/233 162/352
f 172/2 565/352 173/5
f 459/353 577/354 538/233
f 562/177 400/178 460/150
f 400/178 555/177 556/176
f 559/151 380/175 560/174
f 496/215 7/355 76/355
f 491/210 366/356 403/349
f 461/149 560/174 591/175
f 562/178 462/150 402/177
f 398/177 594/176 563/178
f 564/357 162/1 458/290
f 458/290 162/1 164/2
f 186/8 455/286 183/7
f 593/291 244/44 238/38
f 249/49 250/50 392/292
f 393/358 258/58 255/55
f 255/55 392/292 393/358
f 258/58 393/358 394/293
f 259/59 394/293 569/246
f 569/246 592/359 271/67
f 272/68 271/67 592/359
f 592/359 395/294 272/68
f 262/70 272/68 395/294
f 265/75 263/72 397/295
f 297/96 289/88 632/296
f 298/97 632/296 289/88
f 295/94 641/296 305/109
f 306/105 305/109 641/296
f 641/296 642/97 306/105
f 307/104 306/105 642/97
f 642/97 622/104 307/104
f 571/360 307/104 622/104
f 571/360 664/289 307/104
f 306/105 307/104 664/289
f 664/289 572/249 306/105
f 572/249 663/110 305/109
f 303/102 305/109 663/110
f 663/110 311/110 303/102
f 454/299 326/124 327/125
f 311/110 663/110 312/111
f 655/249 312/111 663/110
f 312/111 655/249 313/112
f 574/289 313/112 655/249
f 573/182 319/118 456/298
f 310/108 379/173 495/297
f 325/252 322/121 457/345
f 323/122 457/345 322/121
f 457/345 323/122 459/343
f 577/253 459/343 323/122
f 495/297 577/253 316/115
f 444/150 578/177 441/176
f 441/176 438/151 444/150
f 386/175 385/149 40/174
f 445/151 40/174 385/149
f 578/178 444/176 399/177
f 659/361 314/113 575/250
f 659/361 579/106 314/113
f 579/106 662/362 309/107
f 580/107 309/107 662/362
f 494/303 379/173 582/255
f 582/255 584/284 494/303
f 585/283 494/303 584/284
f 433/174 432/151 605/175
f 432/151 429/176 604/149
f 355/150 604/149 429/176
f 491/363 367/162 366/161
f 367/162 491/363 492/301
f 370/165 492/301 376/257
f 493/302 378/172 373/168
f 598/176 401/177 411/150
f 402/178 411/150 401/177
f 462/176 413/151 411/150
f 411/150 402/178 462/176
f 561/175 413/149 591/174
f 461/151 591/174 413/149
f 413/149 462/150 461/151
f 559/151 560/174 461/149
f 461/149 460/150 559/151
f 556/176 559/151 460/150
f 460/150 400/178 556/176
f 558/149 380/175 559/151
f 356/307 250/306 446/305
f 250/306 356/307 392/262
f 436/310 394/309 430/308
f 595/364 569/311 436/310
f 569/311 595/364 592/365
f 417/314 592/365 595/364
f 592/365 417/314 395/313
f 442/366 397/317 396/316
f 397/317 442/366 264/318
f 578/319 264/318 442/366
f 399/323 266/320 578/319
f 266/320 399/323 270/322
f 555/328 360/325 563/48
f 360/325 555/328 362/327
f 362/327 400/326 364/367
f 562/368 364/367 400/326
f 364/367 562/368 365/369
f 402/331 365/369 562/368
f 365/369 402/331 366/330
f 366/330 401/329 403/332
f 597/333 403/332 401/329
f 596/335 482/334 597/333
f 463/338 406/339 240/370
f 654/371 240/370 406/339
f 240/370 654/371 593/372
f 446/248 593/372 654/371
f 555/178 563/177 557/176
f 594/150 557/176 563/177
f 594/150 381/149 557/176
f 558/151 557/176 381/149
f 384/150 594/176 398/177
f 398/177 443/176 384/150
f 385/151 384/150 443/176
f 594/176 384/150 383/149
f 381/151 383/149 38/175
f 386/174 38/175 383/149
f 595/178 352/176 417/177
f 596/178 597/177 409/176
f 598/150 409/176 597/177
f 598/150 414/149 409/176
f 410/151 409/176 414/149
f 414/149 590/175 410/151
f 602/174 410/151 590/175
f 452/300 599/265 328/130
f 450/346 335/133 599/265
f 599/265 452/300 450/346
f 335/133 450/346 600/266
f 425/179 449/340 424/16
f 427/14 424/16 449/340
f 428/181 451/341 202/11
f 188/243 198/13 453/342
f 408/176 407/150 405/178
f 409/150 408/176 596/177
f 407/150 601/151 390/149
f 83/174 390/149 601/151
f 601/151 602/175 83/174
f 654/178 603/176 446/177
f 603/176 388/151 447/150
f 388/151 387/174 448/149
f 355/176 356/178 447/150
f 447/150 448/149 355/176
f 604/151 355/176 448/149
f 448/149 28/175 604/151
f 605/174 604/151 28/175
f 354/150 436/177 431/176
f 353/149 354/150 434/151
f 353/151 24/174 351/149
f 606/175 351/149 24/174
f 607/233 173/5 565/352
f 565/352 166/352 607/233
f 530/233 607/233 166/352
f 166/352 163/352 530/233
f 539/233 530/233 163/352
f 163/352 162/352 539/233
f 162/352 564/373 538/233
f 459/353 538/233 564/373
f 76/355 536/231 496/215
f 536/231 76/355 531/232
f 6/222 531/232 76/355
f 531/232 6/222 525/230
f 524/223 525/230 6/222
f 608/267 521/228 5/224
f 3/374 517/227 608/267
f 517/227 3/374 508/226
f 1/273 508/226 3/374
f 508/226 1/273 506/225
f 609/273 506/225 1/273
f 496/215 538/233 577/354
f 577/354 495/214 496/215
f 495/214 379/351 488/207
f 489/208 488/207 379/351
f 376/350 486/205 613/271
f 613/271 493/212 376/350
f 609/273 2/374 614/272
f 502/221 614/272 2/374
f 2/374 4/267 502/221
f 4/267 505/224 500/219
f 503/222 7/355 498/217
f 496/215 498/217 7/355
f 656/375 617/276 616/275
f 616/275 618/376 656/375
f 657/377 656/375 618/376
f 618/376 619/378 657/377
f 661/379 657/377 619/378
f 619/378 620/380 661/379
f 661/379 660/381 657/377
f 658/382 657/377 660/381
f 476/196 404/348 465/186
f 491/210 403/349 484/203
f 621/383 623/383 636/384
f 571/384 636/384 623/383
f 636/384 571/384 635/385
f 622/385 635/385 571/384
f 623/106 627/360 299/98
f 625/104 299/98 627/360
f 580/107 665/106 623/106
f 571/360 623/106 665/106
f 665/106 664/289 571/360
f 299/98 625/104 298/97
f 630/97 298/97 625/104
f 631/386 630/386 624/278
f 625/278 624/278 630/386
f 626/279 627/279 621/387
f 623/387 621/387 627/279
f 640/388 589/388 638/271
f 613/271 638/271 589/388
f 638/271 613/271 628/270
f 629/269 611/269 637/268
f 610/268 637/268 611/269
f 632/281 633/281 642/280
f 634/280 642/280 633/281
f 631/280 624/282 635/282
f 636/389 635/282 624/282
f 624/282 626/389 636/389
f 621/390 636/389 626/389
f 635/282 622/282 634/280
f 642/280 634/280 622/282
f 637/391 640/392 629/393
f 638/394 629/393 640/392
f 651/395 652/396 649/397
f 648/398 649/397 652/396
f 652/396 639/399 648/398
f 653/400 648/398 639/399
f 648/398 653/400 647/401
f 646/402 647/401 653/400
f 653/400 643/403 646/402
f 644/404 646/402 643/403
f 643/403 653/400 637/405
f 640/406 637/405 653/400
f 295/407 632/408 641/408
f 642/409 641/408 632/408
f 637/410 610/410 643/283
f 585/283 643/283 610/410
f 652/258 586/258 639/259
f 587/259 639/259 586/258
f 639/259 587/259 653/260
f 653/260 588/260 640/261
f 589/261 640/261 588/260
f 331/290 449/345 332/344
f 600/4 426/252 331/290
f 450/9 428/298 600/4
f 453/123 454/286 188/125
f 573/341 184/300 324/342
f 456/181 179/346 573/341
f 179/346 456/181 168/266
f 168/266 325/180 458/128
f 654/177 406/178 603/150
f 407/176 603/150 406/178
f 407/176 390/151 603/150
f 388/149 603/150 390/151
f 615/411 617/412 655/412
f 574/413 655/412 617/412
f 617/412 656/413 574/413
f 576/414 574/413 656/413
f 656/413 657/414 576/414
f 575/287 576/414 657/414
f 657/414 658/287 575/287
f 659/288 575/287 658/287
f 579/415 659/288 660/288
f 660/288 661/415 579/415
f 662/416 579/415 661/415
f 661/415 620/416 662/416
f 580/417 662/416 620/416
f 655/412 663/411 615/411
f 616/412 615/411 663/411
f 663/411 572/412 616/412
f 618/413 616/412 572/412
f 572/412 664/413 618/413
f 619/415 618/413 664/413
f 664/413 665/415 619/415
f 651/417 619/415 665/415
f 665/415 580/417 651/417
f 620/416 651/417 580/417
f 589/388 493/212 613/271
f 378/172 493/302 589/261
f 390/149 83/174 389/175
f 443/176 398/177 399/178
f 401/177 598/176 597/178
f 628/418 629/393 638/394
f 620/380 619/378 651/419
f 644/404 645/420 646/402
f 610/410 494/303 585/283
f 632/296 298/97 630/97
usemtl bayomat0_bottle2_tex.png.002
f 3/421 2/422 1/423
f 8/424 9/425 10/426
f 17/427 18/428 19/429
f 22/428 23/427 25/430
f 27/429 28/429 29/429
f 32/428 31/429 30/427
f 41/427 42/429 44/430
f 46/430 29/429 45/428
f 48/428 49/427 50/430
f 34/429 50/430 49/427
f 58/431 57/432 59/428
f 64/428 44/430 65/431
f 66/431 65/431 44/430
f 68/431 67/431 69/430
f 71/431 70/432 22/428
f 22/428 25/430 71/431
f 73/431 74/431 54/430
f 75/431 73/431 46/430
f 2/422 3/421 4/433
f 76/434 7/435 6/436
f 80/428 81/427 69/430
f 19/429 69/430 81/427
f 69/430 19/429 18/428
f 82/429 25/430 23/427
f 30/427 33/430 32/428
f 60/430 59/428 35/427
f 35/427 36/429 60/430
f 41/427 39/429 40/429
f 39/429 41/427 64/428
f 44/430 64/428 41/427
f 50/430 34/429 84/428
f 85/427 84/428 34/429
f 32/428 33/430 86/431
f 55/431 86/431 33/430
f 87/431 56/431 50/430
f 59/428 60/430 58/431
f 61/431 58/431 60/430
f 65/431 63/432 64/428
f 72/431 71/431 25/430
f 54/430 46/430 73/431
f 88/437 89/438 90/439
f 91/440 90/439 89/438
f 90/439 91/440 92/441
f 93/442 92/441 91/440
f 92/441 93/442 94/443
f 95/444 94/443 93/442
f 94/443 95/444 96/445
f 97/446 96/445 95/444
f 96/445 97/446 98/447
f 99/448 98/447 97/446
f 98/447 99/448 100/449
f 101/450 100/449 99/448
f 100/449 101/450 102/451
f 103/452 102/451 101/450
f 102/451 103/452 104/453
f 105/454 104/453 103/452
f 104/453 105/454 106/455
f 107/456 106/455 105/454
f 106/455 107/456 108/457
f 109/458 108/457 107/456
f 108/457 109/458 110/459
f 111/460 110/459 109/458
f 110/459 111/460 112/461
f 113/462 112/461 111/460
f 114/463 115/464 116/465
f 117/466 116/465 115/464
f 116/465 117/466 118/467
f 119/468 118/467 117/466
f 118/467 119/468 120/469
f 121/470 120/469 119/468
f 120/469 121/470 122/471
f 123/472 122/471 121/470
f 122/471 123/472 124/473
f 125/474 124/473 123/472
f 124/473 125/474 126/475
f 127/476 126/475 125/474
f 126/475 127/476 128/477
f 129/478 128/477 127/476
f 128/477 129/478 130/479
f 131/480 130/479 129/478
f 130/479 131/480 132/481
f 133/482 132/481 131/480
f 132/481 133/482 134/483
f 135/484 134/483 133/482
f 134/483 135/484 136/485
f 137/486 136/485 135/484
f 136/485 137/486 138/487
f 139/488 138/487 137/486
f 138/487 139/488 140/489
f 141/490 140/489 139/488
f 140/489 141/490 142/491
f 143/492 142/491 141/490
f 142/491 143/492 144/493
f 145/494 144/493 143/492
f 144/493 145/494 146/495
f 147/496 146/495 145/494
f 146/495 147/496 148/497
f 149/498 148/497 147/496
f 148/497 149/498 150/499
f 151/500 150/499 149/498
f 150/499 151/500 152/501
f 153/502 152/501 151/500
f 152/501 153/502 154/503
f 155/504 154/503 153/502
f 154/503 155/504 156/505
f 157/506 156/505 155/504
f 156/505 157/506 158/507
f 159/508 158/507 157/506
f 158/507 159/508 160/509
f 161/510 160/509 159/508
f 609/511 1/423 2/422
f 608/512 4/433 3/421
f 4/433 608/512 505/513
f 5/514 505/513 608/512
f 6/436 503/515 524/516
f 503/515 6/436 7/435
f 9/425 8/424 62/517
f 61/425 62/517 8/424
f 58/426 8/424 57/518
f 8/424 87/519 11/520
f 87/519 8/424 56/521
f 55/522 56/521 8/424
f 8/424 86/523 55/522
f 86/523 8/424 12/524
f 13/523 70/524 8/424
f 67/521 8/424 66/519
f 67/521 68/522 8/424
f 13/523 8/424 68/522
f 14/430 15/429 79/428
f 15/429 14/430 37/427
f 39/427 16/428 77/429
f 81/429 80/430 42/427
f 20/427 21/428 17/429
f 18/430 17/429 21/428
f 21/430 20/429 22/428
f 23/427 22/428 20/429
f 20/429 24/429 23/427
f 435/427 23/427 24/429
f 26/429 605/429 27/429
f 387/429 29/429 28/429
f 389/429 30/427 31/429
f 33/430 30/427 47/429
f 34/429 49/429 590/429
f 561/429 591/429 51/429
f 591/429 560/427 35/427
f 36/429 35/427 560/427
f 37/429 36/429 380/429
f 25/428 82/427 53/430
f 26/429 53/430 82/427
f 15/429 37/429 382/429
f 77/429 15/429 38/429
f 39/429 77/429 386/429
f 386/429 40/429 39/429
f 40/429 437/427 41/427
f 42/429 41/427 437/427
f 43/429 423/429 81/429
f 423/429 419/429 19/429
f 606/429 24/429 20/429
f 31/427 45/428 29/429
f 49/429 48/430 47/427
f 60/428 36/427 78/430
f 37/429 78/430 36/427
f 51/427 52/428 85/429
f 29/427 46/428 27/429
f 53/428 26/427 54/430
f 45/430 32/428 12/432
f 33/430 48/430 55/431
f 56/431 55/431 48/430
f 57/432 11/431 52/430
f 60/430 78/430 61/431
f 62/431 61/431 78/430
f 9/431 62/431 14/430
f 63/432 10/431 16/430
f 16/430 64/428 63/432
f 44/430 80/430 66/431
f 67/431 66/431 80/430
f 69/430 18/430 68/431
f 70/432 13/431 21/430
f 21/430 22/428 70/432
f 25/430 53/430 72/431
f 39/429 64/428 16/430
f 45/430 31/429 32/428
f 51/429 59/428 52/430
f 505/513 5/514 504/525
f 524/516 504/525 5/514
f 504/525 524/516 503/515
f 65/520 8/424 63/518
f 10/426 63/518 8/424
f 8/424 58/426 61/425
f 11/520 57/518 8/424
f 75/526 12/524 8/424
f 8/424 73/527 75/526
f 73/527 8/424 74/528
f 72/527 74/528 8/424
f 8/424 71/526 72/527
f 71/526 8/424 70/524
f 65/520 66/519 8/424
f 77/427 79/428 15/429
f 78/428 37/427 14/430
f 79/430 77/429 16/428
f 44/428 42/427 80/430
f 23/427 435/427 82/429
f 433/429 82/429 435/427
f 82/429 433/429 26/429
f 605/429 26/429 433/429
f 28/429 27/429 605/429
f 29/429 387/429 31/429
f 389/429 31/429 387/429
f 83/427 47/429 30/427
f 30/427 389/429 83/427
f 83/427 602/429 47/429
f 49/429 47/429 602/429
f 602/429 590/429 49/429
f 590/429 415/429 34/429
f 85/429 34/429 415/429
f 415/429 561/429 85/429
f 51/429 85/429 561/429
f 35/427 51/429 591/429
f 560/427 380/429 36/429
f 51/429 35/427 59/428
f 380/429 382/429 37/429
f 382/429 38/429 15/429
f 38/429 386/429 77/429
f 437/427 43/429 42/429
f 81/429 42/429 43/429
f 19/429 81/429 423/429
f 17/429 19/429 419/429
f 419/429 606/429 17/429
f 20/429 17/429 606/429
f 33/428 47/427 48/430
f 84/430 85/429 52/428
f 54/430 27/429 46/428
f 27/429 54/430 26/427
f 46/430 45/430 75/431
f 12/432 75/431 45/430
f 86/431 12/432 32/428
f 48/430 50/430 56/431
f 50/430 84/430 87/431
f 11/431 87/431 84/430
f 84/430 52/430 11/431
f 52/430 59/428 57/432
f 78/430 14/430 62/431
f 14/430 79/430 9/431
f 10/431 9/431 79/430
f 79/430 16/430 10/431
f 80/430 69/430 67/431
f 13/431 68/431 18/430
f 18/430 21/430 13/431
f 74/431 72/431 53/430
f 53/430 54/430 74/431
f 160/529 161/530 114/463
f 115/464 114/463 161/530
